<svg width="24" height="24" viewBox="0 0 24 24" fill="none" xmlns="http://www.w3.org/2000/svg">
<path d="M4 20C3.45 20 2.97933 19.8043 2.588 19.413C2.19667 19.0217 2.00067 18.5507 2 18V6C2 5.45 2.196 4.97933 2.588 4.588C2.98 4.19667 3.45067 4.00067 4 4H13C13.2833 4 13.521 4.096 13.713 4.288C13.905 4.48 14.0007 4.71733 14 5C13.9993 5.28267 13.9033 5.52033 13.712 5.713C13.5207 5.90567 13.2833 6.00133 13 6H4V18H20V11C20 10.7167 20.096 10.4793 20.288 10.288C20.48 10.0967 20.7173 10.0007 21 10C21.2827 9.99933 21.5203 10.0953 21.713 10.288C21.9057 10.4807 22.0013 10.718 22 11V18C22 18.55 21.8043 19.021 21.413 19.413C21.0217 19.805 20.5507 20.0007 20 20H4ZM12 11L15.225 9C15.4583 8.85 15.6793 8.81267 15.888 8.888C16.0967 8.96333 16.259 9.09233 16.375 9.275C16.491 9.45767 16.5327 9.65767 16.5 9.875C16.4673 10.0923 16.334 10.2757 16.1 10.425L12.525 12.675C12.3583 12.775 12.1833 12.825 12 12.825C11.8167 12.825 11.6417 12.775 11.475 12.675L4 8V6L12 11ZM19 8C18.1667 8 17.4583 7.70833 16.875 7.125C16.2917 6.54167 16 5.83333 16 5C16 4.16667 16.2917 3.45833 16.875 2.875C17.4583 2.29167 18.1667 2 19 2C19.8333 2 20.5417 2.29167 21.125 2.875C21.7083 3.45833 22 4.16667 22 5C22 5.83333 21.7083 6.54167 21.125 7.125C20.5417 7.70833 19.8333 8 19 8Z" fill="url(#paint0_linear_224_184)"/>
<defs>
<linearGradient id="paint0_linear_224_184" x1="12" y1="2" x2="12" y2="20" gradientUnits="userSpaceOnUse">
<stop stop-color="#7C1B00"/>
<stop offset="1" stop-color="#E35C36"/>
</linearGradient>
</defs>
</svg>
