<svg width="68" height="68" viewBox="0 0 68 68" fill="none" xmlns="http://www.w3.org/2000/svg">
<path d="M51.015 50.8602C60.3298 41.4302 60.2364 26.2345 50.8064 16.9197C41.3764 7.60488 26.1808 7.69826 16.866 17.1283C7.55115 26.5583 7.64453 41.7539 17.0745 51.0687C26.5045 60.3836 41.7002 60.2902 51.015 50.8602Z" stroke="url(#paint0_linear_312_20)" stroke-width="5" stroke-linecap="round" stroke-linejoin="round"/>
<path d="M47 34.2303C47 34.8077 46.7942 35.3173 46.3825 35.7588L45.1309 37.0326C44.7082 37.4629 44.202 37.678 43.6123 37.678C43.0116 37.678 42.5109 37.4629 42.1104 37.0326L37.2041 32.0564V44.0129C37.2041 44.6017 36.9955 45.08 36.5783 45.448C36.1611 45.816 35.6577 46 35.068 46H32.932C32.3423 46 31.8389 45.816 31.4217 45.448C31.0045 45.08 30.7959 44.6017 30.7959 44.0129V32.0564L25.8896 37.0326C25.4891 37.4629 24.9884 37.678 24.3877 37.678C23.7869 37.678 23.2863 37.4629 22.8858 37.0326L21.6341 35.7588C21.2114 35.3286 21 34.8191 21 34.2303C21 33.6302 21.2114 33.115 21.6341 32.6848L32.4981 21.6284C32.8875 21.2095 33.3881 21 34 21C34.6008 21 35.107 21.2095 35.5186 21.6284L46.3825 32.6848C46.7942 33.1264 47 33.6415 47 34.2303Z" fill="#AC310F"/>
<defs>
<linearGradient id="paint0_linear_312_20" x1="50.8064" y1="16.9197" x2="17.0745" y2="51.0687" gradientUnits="userSpaceOnUse">
<stop stop-color="#7C1B00"/>
<stop offset="1" stop-color="#E35C36"/>
</linearGradient>
</defs>
</svg>
