<svg width="99" height="126" viewBox="0 0 99 126" fill="none" xmlns="http://www.w3.org/2000/svg">
<g filter="url(#filter0_d_380_73)">
<path d="M97 21.54V98.34C97 101.02 96.2223 103.42 94.6669 105.54C93.1115 107.62 91.0176 109.02 88.3854 109.74L54.1064 119.64C53.6278 119.76 53.0894 119.88 52.4912 120H51.1751C49.8589 120 48.6625 119.82 47.5856 119.46C46.5088 119.1 45.412 118.62 44.2953 118.02L21.8615 105.3C21.0239 104.82 20.3659 104.2 19.8873 103.44C19.4087 102.68 19.1694 101.82 19.1694 100.86C19.1694 99.42 19.6879 98.2 20.7248 97.2C21.7219 96.2 22.9383 95.7 24.3741 95.7H53.4484V24.84L31.5529 32.64C29.8379 33.28 28.4421 34.4 27.3652 36C26.2884 37.52 25.75 39.22 25.75 41.1V81.48C25.75 83.16 25.3312 84.68 24.4937 86.04C23.6961 87.4 22.5594 88.48 21.0838 89.28L10.7941 94.92C9.8369 95.44 8.87972 95.7 7.92255 95.7C6.28736 95.7 4.89148 95.12 3.73489 93.96C2.5783 92.8 2 91.38 2 89.7V32.82C2 30.74 2.53841 28.8 3.61524 27C4.73195 25 6.18766 23.48 7.98237 22.44L44.8338 1.44C45.6713 0.96 46.5686 0.6 47.5258 0.36C48.483 0.12 49.4402 0 50.3974 0C51.0754 0 51.6935 0.0599998 52.2519 0.18C52.8102 0.26 53.4284 0.399999 54.1064 0.599999L88.3854 10.14C89.7015 10.5 90.878 11.04 91.915 11.76C92.9519 12.48 93.8493 13.34 94.6071 14.34C95.4047 15.38 96.0029 16.5 96.4018 17.7C96.8006 18.94 97 20.22 97 21.54ZM89.1033 98.34V21.54C89.1033 20.62 88.864 19.82 88.3854 19.14C87.7872 18.38 87.0493 17.92 86.1719 17.76L69.3016 13.08C68.0653 12.72 66.7492 12.36 65.3533 12C64.0372 11.56 62.741 11.18 61.4647 10.86V109.26L86.1719 102C87.0493 101.84 87.7872 101.42 88.3854 100.74C88.864 100.06 89.1033 99.26 89.1033 98.34Z" fill="url(#paint0_linear_380_73)"/>
</g>
<defs>
<filter id="filter0_d_380_73" x="0" y="0" width="99" height="126" filterUnits="userSpaceOnUse" color-interpolation-filters="sRGB">
<feFlood flood-opacity="0" result="BackgroundImageFix"/>
<feColorMatrix in="SourceAlpha" type="matrix" values="0 0 0 0 0 0 0 0 0 0 0 0 0 0 0 0 0 0 127 0" result="hardAlpha"/>
<feOffset dy="4"/>
<feGaussianBlur stdDeviation="1"/>
<feComposite in2="hardAlpha" operator="out"/>
<feColorMatrix type="matrix" values="0 0 0 0 0 0 0 0 0 0 0 0 0 0 0 0 0 0 0.25 0"/>
<feBlend mode="normal" in2="BackgroundImageFix" result="effect1_dropShadow_380_73"/>
<feBlend mode="normal" in="SourceGraphic" in2="effect1_dropShadow_380_73" result="shape"/>
</filter>
<linearGradient id="paint0_linear_380_73" x1="2" y1="41.4507" x2="97" y2="78.5493" gradientUnits="userSpaceOnUse">
<stop/>
<stop offset="1" stop-color="#7C1B00"/>
</linearGradient>
</defs>
</svg>
