<svg width="132" height="134" viewBox="0 0 132 134" fill="none" xmlns="http://www.w3.org/2000/svg">
<g filter="url(#filter0_d_394_75)">
<path d="M121.5 25C120.307 25 119.162 24.5259 118.318 23.682C117.474 22.8381 117 21.6935 117 20.5C117 19.3065 117.474 18.1619 118.318 17.318C119.162 16.4741 120.307 16 121.5 16C122.693 16 123.838 16.4741 124.682 17.318C125.526 18.1619 126 19.3065 126 20.5C126 21.6935 125.526 22.8381 124.682 23.682C123.838 24.5259 122.693 25 121.5 25ZM121.5 25V47.5C121.5 51.688 121.5 53.782 120.984 55.48C120.412 57.369 119.383 59.0877 117.988 60.4839C116.593 61.88 114.875 62.9105 112.986 63.484C111.282 64 109.188 64 105 64M10.5 103C11.6935 103 12.8381 103.474 13.682 104.318C14.5259 105.162 15 106.307 15 107.5C15 108.693 14.5259 109.838 13.682 110.682C12.8381 111.526 11.6935 112 10.5 112C9.30653 112 8.16193 111.526 7.31802 110.682C6.47411 109.838 6 108.693 6 107.5C6 106.307 6.47411 105.162 7.31802 104.318C8.16193 103.474 9.30653 103 10.5 103ZM10.5 103V80.5C10.5 76.312 10.5 74.218 11.016 72.52C11.5881 70.631 12.6173 68.9123 14.0124 67.5161C15.4075 66.12 17.1254 65.0895 19.014 64.516C20.718 64 22.812 64 27 64M27 8.5C27 9.69347 26.5259 10.8381 25.682 11.682C24.8381 12.5259 23.6935 13 22.5 13C21.3065 13 20.1619 12.5259 19.318 11.682C18.4741 10.8381 18 9.69347 18 8.5C18 7.30653 18.4741 6.16193 19.318 5.31802C20.1619 4.47411 21.3065 4 22.5 4C23.6935 4 24.8381 4.47411 25.682 5.31802C26.5259 6.16193 27 7.30653 27 8.5ZM27 8.5H49.5C53.688 8.5 55.782 8.5 57.48 9.016C59.369 9.58809 61.0877 10.6173 62.4839 12.0124C63.88 13.4075 64.9105 15.1254 65.484 17.014C66 18.718 66 20.812 66 25M105 119.5C105 118.307 105.474 117.162 106.318 116.318C107.162 115.474 108.307 115 109.5 115C110.693 115 111.838 115.474 112.682 116.318C113.526 117.162 114 118.307 114 119.5C114 120.693 113.526 121.838 112.682 122.682C111.838 123.526 110.693 124 109.5 124C108.307 124 107.162 123.526 106.318 122.682C105.474 121.838 105 120.693 105 119.5ZM105 119.5H82.5C78.312 119.5 76.218 119.5 74.52 118.984C72.631 118.412 70.9123 117.383 69.5161 115.988C68.12 114.593 67.0895 112.875 66.516 110.986C66 109.282 66 107.188 66 103" stroke="url(#paint0_linear_394_75)" stroke-width="8" stroke-linecap="round" stroke-linejoin="round"/>
<path d="M27.2939 63.7061C27.2939 45.3221 27.2939 36.1301 33.0059 30.4181C38.7179 24.7061 47.9099 24.7061 66.2939 24.7061C84.6779 24.7061 93.87 24.7061 99.582 30.4181C105.294 36.1301 105.294 45.3221 105.294 63.7061C105.294 82.0901 105.294 91.2821 99.582 96.9941C93.87 102.706 84.6779 102.706 66.2939 102.706C47.9099 102.706 38.7179 102.706 33.0059 96.9941C27.2939 91.2821 27.2939 82.0901 27.2939 63.7061Z" stroke="url(#paint1_linear_394_75)" stroke-width="8" stroke-linecap="round" stroke-linejoin="round"/>
<path d="M68.994 79L60.234 51.874C59.9302 51.018 59.3643 50.2796 58.6167 49.7637C57.8692 49.2477 56.9781 48.9805 56.07 49C55.1629 48.9818 54.2731 49.2496 53.5268 49.7654C52.7804 50.2813 52.2155 51.019 51.912 51.874L43.152 79M83.994 49V79M46.374 70H65.766" stroke="url(#paint2_linear_394_75)" stroke-width="8" stroke-linecap="round" stroke-linejoin="round"/>
</g>
<defs>
<filter id="filter0_d_394_75" x="0" y="0" width="132" height="134" filterUnits="userSpaceOnUse" color-interpolation-filters="sRGB">
<feFlood flood-opacity="0" result="BackgroundImageFix"/>
<feColorMatrix in="SourceAlpha" type="matrix" values="0 0 0 0 0 0 0 0 0 0 0 0 0 0 0 0 0 0 127 0" result="hardAlpha"/>
<feOffset dy="4"/>
<feGaussianBlur stdDeviation="1"/>
<feComposite in2="hardAlpha" operator="out"/>
<feColorMatrix type="matrix" values="0 0 0 0 0 0 0 0 0 0 0 0 0 0 0 0 0 0 0.1 0"/>
<feBlend mode="normal" in2="BackgroundImageFix" result="effect1_dropShadow_394_75"/>
<feBlend mode="normal" in="SourceGraphic" in2="effect1_dropShadow_394_75" result="shape"/>
</filter>
<linearGradient id="paint0_linear_394_75" x1="66" y1="4" x2="66" y2="124" gradientUnits="userSpaceOnUse">
<stop stop-color="#7C1B00"/>
<stop offset="1"/>
</linearGradient>
<linearGradient id="paint1_linear_394_75" x1="66.2939" y1="24.7061" x2="66.2939" y2="102.706" gradientUnits="userSpaceOnUse">
<stop stop-color="#7C1B00"/>
<stop offset="1"/>
</linearGradient>
<linearGradient id="paint2_linear_394_75" x1="63.573" y1="48.999" x2="63.573" y2="79" gradientUnits="userSpaceOnUse">
<stop stop-color="#7C1B00"/>
<stop offset="1"/>
</linearGradient>
</defs>
</svg>
