<svg width="128" height="130" viewBox="0 0 128 130" fill="none" xmlns="http://www.w3.org/2000/svg">
<g filter="url(#filter0_d_380_77)">
<path d="M52.7955 73H46.75L54.6023 49.7273H62.0909L69.9432 73H63.8977L58.4318 55.5909H58.25L52.7955 73ZM51.9886 63.8409H64.625V68.1136H51.9886V63.8409ZM78.0739 49.7273V73H72.4489V49.7273H78.0739Z" fill="#D9D9D9"/>
<path d="M119.5 23C118.307 23 117.162 22.5259 116.318 21.682C115.474 20.8381 115 19.6935 115 18.5C115 17.3065 115.474 16.1619 116.318 15.318C117.162 14.4741 118.307 14 119.5 14C120.693 14 121.838 14.4741 122.682 15.318C123.526 16.1619 124 17.3065 124 18.5C124 19.6935 123.526 20.8381 122.682 21.682C121.838 22.5259 120.693 23 119.5 23ZM119.5 23V45.5C119.5 49.688 119.5 51.782 118.984 53.48C118.412 55.369 117.383 57.0877 115.988 58.4839C114.593 59.88 112.875 60.9105 110.986 61.484C109.282 62 107.188 62 103 62M8.5 101C9.69347 101 10.8381 101.474 11.682 102.318C12.5259 103.162 13 104.307 13 105.5C13 106.693 12.5259 107.838 11.682 108.682C10.8381 109.526 9.69347 110 8.5 110C7.30653 110 6.16193 109.526 5.31802 108.682C4.47411 107.838 4 106.693 4 105.5C4 104.307 4.47411 103.162 5.31802 102.318C6.16193 101.474 7.30653 101 8.5 101ZM8.5 101V78.5C8.5 74.312 8.5 72.218 9.016 70.52C9.58809 68.631 10.6173 66.9123 12.0124 65.5161C13.4075 64.12 15.1254 63.0895 17.014 62.516C18.718 62 20.812 62 25 62M25 6.5C25 7.69347 24.5259 8.83807 23.682 9.68198C22.8381 10.5259 21.6935 11 20.5 11C19.3065 11 18.1619 10.5259 17.318 9.68198C16.4741 8.83807 16 7.69347 16 6.5C16 5.30653 16.4741 4.16193 17.318 3.31802C18.1619 2.47411 19.3065 2 20.5 2C21.6935 2 22.8381 2.47411 23.682 3.31802C24.5259 4.16193 25 5.30653 25 6.5ZM25 6.5H47.5C51.688 6.5 53.782 6.5 55.48 7.016C57.369 7.58809 59.0877 8.61728 60.4839 10.0124C61.88 11.4075 62.9105 13.1254 63.484 15.014C64 16.718 64 18.812 64 23M103 117.5C103 116.307 103.474 115.162 104.318 114.318C105.162 113.474 106.307 113 107.5 113C108.693 113 109.838 113.474 110.682 114.318C111.526 115.162 112 116.307 112 117.5C112 118.693 111.526 119.838 110.682 120.682C109.838 121.526 108.693 122 107.5 122C106.307 122 105.162 121.526 104.318 120.682C103.474 119.838 103 118.693 103 117.5ZM103 117.5H80.5C76.312 117.5 74.218 117.5 72.52 116.984C70.631 116.412 68.9123 115.383 67.5161 113.988C66.12 112.593 65.0895 110.875 64.516 108.986C64 107.282 64 105.188 64 101" stroke="url(#paint0_linear_380_77)" stroke-width="4" stroke-linecap="round" stroke-linejoin="round"/>
<path d="M25.2939 61.706C25.2939 43.322 25.2939 34.13 31.0059 28.418C36.7179 22.706 45.9099 22.706 64.2939 22.706C82.6779 22.706 91.8699 22.706 97.5819 28.418C103.294 34.13 103.294 43.322 103.294 61.706C103.294 80.09 103.294 89.282 97.5819 94.994C91.8699 100.706 82.6779 100.706 64.2939 100.706C45.9099 100.706 36.7179 100.706 31.0059 94.994C25.2939 89.282 25.2939 80.09 25.2939 61.706Z" stroke="url(#paint1_linear_380_77)" stroke-width="4" stroke-linecap="round" stroke-linejoin="round"/>
</g>
<defs>
<filter id="filter0_d_380_77" x="0" y="0" width="128" height="130" filterUnits="userSpaceOnUse" color-interpolation-filters="sRGB">
<feFlood flood-opacity="0" result="BackgroundImageFix"/>
<feColorMatrix in="SourceAlpha" type="matrix" values="0 0 0 0 0 0 0 0 0 0 0 0 0 0 0 0 0 0 127 0" result="hardAlpha"/>
<feOffset dy="4"/>
<feGaussianBlur stdDeviation="1"/>
<feComposite in2="hardAlpha" operator="out"/>
<feColorMatrix type="matrix" values="0 0 0 0 0.0118343 0 0 0 0 0.0891274 0 0 0 0 0.096154 0 0 0 0.3 0"/>
<feBlend mode="normal" in2="BackgroundImageFix" result="effect1_dropShadow_380_77"/>
<feBlend mode="normal" in="SourceGraphic" in2="effect1_dropShadow_380_77" result="shape"/>
</filter>
<linearGradient id="paint0_linear_380_77" x1="64" y1="2" x2="64" y2="122" gradientUnits="userSpaceOnUse">
<stop/>
<stop offset="1" stop-color="#7C1B00"/>
</linearGradient>
<linearGradient id="paint1_linear_380_77" x1="64.2939" y1="22.706" x2="64.2939" y2="100.706" gradientUnits="userSpaceOnUse">
<stop/>
<stop offset="1" stop-color="#7C1B00"/>
</linearGradient>
</defs>
</svg>
