<svg width="133" height="135" viewBox="0 0 133 135" fill="none" xmlns="http://www.w3.org/2000/svg">
<g filter="url(#filter0_d_394_75)">
<path d="M121.583 25.0834C120.39 25.0834 119.245 24.6093 118.401 23.7654C117.557 22.9214 117.083 21.7768 117.083 20.5834C117.083 19.3899 117.557 18.2453 118.401 17.4014C119.245 16.5575 120.39 16.0834 121.583 16.0834C122.777 16.0834 123.921 16.5575 124.765 17.4014C125.609 18.2453 126.083 19.3899 126.083 20.5834C126.083 21.7768 125.609 22.9214 124.765 23.7654C123.921 24.6093 122.777 25.0834 121.583 25.0834ZM121.583 25.0834V47.5834C121.583 51.7714 121.583 53.8654 121.067 55.5634C120.495 57.4524 119.466 59.1711 118.071 60.5672C116.676 61.9634 114.958 62.9939 113.069 63.5674C111.365 64.0834 109.271 64.0834 105.083 64.0834M10.5833 103.083C11.7768 103.083 12.9214 103.557 13.7653 104.401C14.6092 105.245 15.0833 106.39 15.0833 107.583C15.0833 108.777 14.6092 109.921 13.7653 110.765C12.9214 111.609 11.7768 112.083 10.5833 112.083C9.38984 112.083 8.24525 111.609 7.40133 110.765C6.55742 109.921 6.08331 108.777 6.08331 107.583C6.08331 106.39 6.55742 105.245 7.40133 104.401C8.24525 103.557 9.38984 103.083 10.5833 103.083ZM10.5833 103.083V80.5834C10.5833 76.3954 10.5833 74.3014 11.0993 72.6034C11.6714 70.7144 12.7006 68.9957 14.0957 67.5995C15.4908 66.2034 17.2088 65.1729 19.0973 64.5994C20.8013 64.0834 22.8953 64.0834 27.0833 64.0834M27.0833 8.58337C27.0833 9.77685 26.6092 10.9214 25.7653 11.7654C24.9214 12.6093 23.7768 13.0834 22.5833 13.0834C21.3898 13.0834 20.2452 12.6093 19.4013 11.7654C18.5574 10.9214 18.0833 9.77685 18.0833 8.58337C18.0833 7.3899 18.5574 6.24531 19.4013 5.40139C20.2452 4.55748 21.3898 4.08337 22.5833 4.08337C23.7768 4.08337 24.9214 4.55748 25.7653 5.40139C26.6092 6.24531 27.0833 7.3899 27.0833 8.58337ZM27.0833 8.58337H49.5833C53.7713 8.58337 55.8653 8.58337 57.5633 9.09937C59.4523 9.67146 61.171 10.7007 62.5672 12.0958C63.9633 13.4909 64.9938 15.2088 65.5673 17.0974C66.0833 18.8014 66.0833 20.8954 66.0833 25.0834M105.083 119.583C105.083 118.39 105.557 117.245 106.401 116.401C107.245 115.557 108.39 115.083 109.583 115.083C110.777 115.083 111.921 115.557 112.765 116.401C113.609 117.245 114.083 118.39 114.083 119.583C114.083 120.777 113.609 121.921 112.765 122.765C111.921 123.609 110.777 124.083 109.583 124.083C108.39 124.083 107.245 123.609 106.401 122.765C105.557 121.921 105.083 120.777 105.083 119.583ZM105.083 119.583H82.5833C78.3953 119.583 76.3013 119.583 74.6033 119.067C72.7143 118.495 70.9956 117.466 69.5995 116.071C68.2033 114.676 67.1728 112.958 66.5993 111.069C66.0833 109.365 66.0833 107.271 66.0833 103.083" fill="white"/>
<path d="M121.583 25.0834C120.39 25.0834 119.245 24.6093 118.401 23.7654C117.557 22.9214 117.083 21.7768 117.083 20.5834C117.083 19.3899 117.557 18.2453 118.401 17.4014C119.245 16.5575 120.39 16.0834 121.583 16.0834C122.777 16.0834 123.921 16.5575 124.765 17.4014C125.609 18.2453 126.083 19.3899 126.083 20.5834C126.083 21.7768 125.609 22.9214 124.765 23.7654C123.921 24.6093 122.777 25.0834 121.583 25.0834ZM121.583 25.0834V47.5834C121.583 51.7714 121.583 53.8654 121.067 55.5634C120.495 57.4524 119.466 59.1711 118.071 60.5672C116.676 61.9634 114.958 62.9939 113.069 63.5674C111.365 64.0834 109.271 64.0834 105.083 64.0834M10.5833 103.083C11.7768 103.083 12.9214 103.557 13.7653 104.401C14.6092 105.245 15.0833 106.39 15.0833 107.583C15.0833 108.777 14.6092 109.921 13.7653 110.765C12.9214 111.609 11.7768 112.083 10.5833 112.083C9.38984 112.083 8.24525 111.609 7.40133 110.765C6.55742 109.921 6.08331 108.777 6.08331 107.583C6.08331 106.39 6.55742 105.245 7.40133 104.401C8.24525 103.557 9.38984 103.083 10.5833 103.083ZM10.5833 103.083V80.5834C10.5833 76.3954 10.5833 74.3014 11.0993 72.6034C11.6714 70.7144 12.7006 68.9957 14.0957 67.5995C15.4908 66.2034 17.2088 65.1729 19.0973 64.5994C20.8013 64.0834 22.8953 64.0834 27.0833 64.0834M27.0833 8.58337C27.0833 9.77685 26.6092 10.9214 25.7653 11.7654C24.9214 12.6093 23.7768 13.0834 22.5833 13.0834C21.3898 13.0834 20.2452 12.6093 19.4013 11.7654C18.5574 10.9214 18.0833 9.77685 18.0833 8.58337C18.0833 7.3899 18.5574 6.24531 19.4013 5.40139C20.2452 4.55748 21.3898 4.08337 22.5833 4.08337C23.7768 4.08337 24.9214 4.55748 25.7653 5.40139C26.6092 6.24531 27.0833 7.3899 27.0833 8.58337ZM27.0833 8.58337H49.5833C53.7713 8.58337 55.8653 8.58337 57.5633 9.09937C59.4523 9.67146 61.171 10.7007 62.5672 12.0958C63.9633 13.4909 64.9938 15.2088 65.5673 17.0974C66.0833 18.8014 66.0833 20.8954 66.0833 25.0834M105.083 119.583C105.083 118.39 105.557 117.245 106.401 116.401C107.245 115.557 108.39 115.083 109.583 115.083C110.777 115.083 111.921 115.557 112.765 116.401C113.609 117.245 114.083 118.39 114.083 119.583C114.083 120.777 113.609 121.921 112.765 122.765C111.921 123.609 110.777 124.083 109.583 124.083C108.39 124.083 107.245 123.609 106.401 122.765C105.557 121.921 105.083 120.777 105.083 119.583ZM105.083 119.583H82.5833C78.3953 119.583 76.3013 119.583 74.6033 119.067C72.7143 118.495 70.9956 117.466 69.5995 116.071C68.2033 114.676 67.1728 112.958 66.5993 111.069C66.0833 109.365 66.0833 107.271 66.0833 103.083" stroke="url(#paint0_linear_394_75)" stroke-width="8" stroke-linecap="round" stroke-linejoin="round"/>
<path d="M27.3773 63.7894C27.3773 45.4054 27.3773 36.2134 33.0893 30.5014C38.8013 24.7894 47.9933 24.7894 66.3773 24.7894C84.7613 24.7894 93.9533 24.7894 99.6653 30.5014C105.377 36.2134 105.377 45.4054 105.377 63.7894C105.377 82.1734 105.377 91.3654 99.6653 97.0774C93.9533 102.789 84.7613 102.789 66.3773 102.789C47.9933 102.789 38.8013 102.789 33.0893 97.0774C27.3773 91.3654 27.3773 82.1734 27.3773 63.7894Z" fill="white" stroke="url(#paint1_linear_394_75)" stroke-width="8" stroke-linecap="round" stroke-linejoin="round"/>
<path d="M69.0773 79.0834L60.3173 51.9574C60.0135 51.1014 59.4476 50.363 58.7 49.847C57.9525 49.3311 57.0614 49.0639 56.1533 49.0834C55.2462 49.0651 54.3564 49.3329 53.6101 49.8488C52.8638 50.3647 52.2988 51.1024 51.9953 51.9574L43.2353 79.0834M84.0773 49.0834V79.0834V49.0834ZM46.4573 70.0834H65.8493H46.4573Z" fill="white"/>
<path d="M69.0773 79.0834L60.3173 51.9574C60.0135 51.1014 59.4476 50.363 58.7 49.847C57.9525 49.3311 57.0614 49.0639 56.1533 49.0834C55.2462 49.0651 54.3564 49.3329 53.6101 49.8488C52.8638 50.3647 52.2988 51.1024 51.9953 51.9574L43.2353 79.0834M84.0773 49.0834V79.0834M46.4573 70.0834H65.8493" stroke="url(#paint2_linear_394_75)" stroke-width="8" stroke-linecap="round" stroke-linejoin="round"/>
</g>
<defs>
<filter id="filter0_d_394_75" x="0.083313" y="0.083374" width="132" height="134" filterUnits="userSpaceOnUse" color-interpolation-filters="sRGB">
<feFlood flood-opacity="0" result="BackgroundImageFix"/>
<feColorMatrix in="SourceAlpha" type="matrix" values="0 0 0 0 0 0 0 0 0 0 0 0 0 0 0 0 0 0 127 0" result="hardAlpha"/>
<feOffset dy="4"/>
<feGaussianBlur stdDeviation="1"/>
<feComposite in2="hardAlpha" operator="out"/>
<feColorMatrix type="matrix" values="0 0 0 0 0 0 0 0 0 0 0 0 0 0 0 0 0 0 0.1 0"/>
<feBlend mode="normal" in2="BackgroundImageFix" result="effect1_dropShadow_394_75"/>
<feBlend mode="normal" in="SourceGraphic" in2="effect1_dropShadow_394_75" result="shape"/>
</filter>
<linearGradient id="paint0_linear_394_75" x1="66.0833" y1="4.08337" x2="66.0833" y2="124.083" gradientUnits="userSpaceOnUse">
<stop stop-color="#7C1B00"/>
<stop offset="1"/>
</linearGradient>
<linearGradient id="paint1_linear_394_75" x1="66.3773" y1="24.7894" x2="66.3773" y2="102.789" gradientUnits="userSpaceOnUse">
<stop stop-color="#7C1B00"/>
<stop offset="1"/>
</linearGradient>
<linearGradient id="paint2_linear_394_75" x1="63.6563" y1="49.0824" x2="63.6563" y2="79.0834" gradientUnits="userSpaceOnUse">
<stop stop-color="#7C1B00"/>
<stop offset="1"/>
</linearGradient>
</defs>
</svg>
