<svg width="128" height="116" viewBox="0 0 128 116" fill="none" xmlns="http://www.w3.org/2000/svg">
<g filter="url(#filter0_d_380_74)">
<path d="M82.7183 2.49921L40.7952 55.0017M104.274 28.5026L40.7816 108M9.12423 2.00342C8.15916 2.00248 7.21348 2.27486 6.39625 2.78916C5.57903 3.30346 4.92356 4.03873 4.50543 4.91015C4.0873 5.78158 3.92355 6.75367 4.03307 7.71432C4.14259 8.67496 4.52091 9.58502 5.1244 10.3395L40.7918 55.0017L5.1244 99.6639C4.52091 100.418 4.14259 101.328 4.03307 102.289C3.92355 103.25 4.0873 104.222 4.50543 105.093C4.92356 105.965 5.57903 106.7 6.39625 107.214C7.21348 107.729 8.15916 108.001 9.12423 108H80.6536C81.4217 108 82.1801 107.827 82.8725 107.494C83.5649 107.161 84.1735 106.676 84.6534 106.075L122.877 58.2055C123.604 57.2959 124 56.1653 124 55C124 53.8347 123.604 52.7041 122.877 51.7945L84.6534 3.92504C84.1735 3.32407 83.5649 2.83899 82.8725 2.50575C82.1801 2.17252 81.4217 1.99966 80.6536 2L9.12423 2.00342Z" stroke="url(#paint0_linear_380_74)" stroke-width="4" stroke-linecap="round" stroke-linejoin="round"/>
</g>
<defs>
<filter id="filter0_d_380_74" x="0" y="0" width="128" height="116" filterUnits="userSpaceOnUse" color-interpolation-filters="sRGB">
<feFlood flood-opacity="0" result="BackgroundImageFix"/>
<feColorMatrix in="SourceAlpha" type="matrix" values="0 0 0 0 0 0 0 0 0 0 0 0 0 0 0 0 0 0 127 0" result="hardAlpha"/>
<feOffset dy="4"/>
<feGaussianBlur stdDeviation="1"/>
<feComposite in2="hardAlpha" operator="out"/>
<feColorMatrix type="matrix" values="0 0 0 0 0.0118343 0 0 0 0 0.0891274 0 0 0 0 0.096154 0 0 0 0.3 0"/>
<feBlend mode="normal" in2="BackgroundImageFix" result="effect1_dropShadow_380_74"/>
<feBlend mode="normal" in="SourceGraphic" in2="effect1_dropShadow_380_74" result="shape"/>
</filter>
<linearGradient id="paint0_linear_380_74" x1="64" y1="2" x2="64" y2="108" gradientUnits="userSpaceOnUse">
<stop/>
<stop offset="1" stop-color="#7C1B00"/>
</linearGradient>
</defs>
</svg>
