<svg width="132" height="120" viewBox="0 0 132 120" fill="none" xmlns="http://www.w3.org/2000/svg">
<g filter="url(#filter0_d_380_74)">
<path d="M84.7183 4.49921L42.7952 57.0017M106.274 30.5026L42.7816 110M11.1242 4.00342C10.1592 4.00248 9.21348 4.27486 8.39625 4.78916C7.57903 5.30346 6.92356 6.03873 6.50543 6.91015C6.0873 7.78158 5.92355 8.75367 6.03307 9.71432C6.14259 10.675 6.52091 11.585 7.1244 12.3395L42.7918 57.0017L7.1244 101.664C6.52091 102.418 6.14259 103.328 6.03307 104.289C5.92355 105.25 6.0873 106.222 6.50543 107.093C6.92356 107.965 7.57903 108.7 8.39625 109.214C9.21348 109.729 10.1592 110.001 11.1242 110H82.6536C83.4217 110 84.1801 109.827 84.8725 109.494C85.5649 109.161 86.1735 108.676 86.6534 108.075L124.877 60.2055C125.604 59.2959 126 58.1653 126 57C126 55.8347 125.604 54.7041 124.877 53.7945L86.6534 5.92504C86.1735 5.32407 85.5649 4.83899 84.8725 4.50575C84.1801 4.17252 83.4217 3.99966 82.6536 4L11.1242 4.00342Z" stroke="url(#paint0_linear_380_74)" stroke-width="8" stroke-linecap="round" stroke-linejoin="round"/>
</g>
<defs>
<filter id="filter0_d_380_74" x="0" y="0" width="132" height="120" filterUnits="userSpaceOnUse" color-interpolation-filters="sRGB">
<feFlood flood-opacity="0" result="BackgroundImageFix"/>
<feColorMatrix in="SourceAlpha" type="matrix" values="0 0 0 0 0 0 0 0 0 0 0 0 0 0 0 0 0 0 127 0" result="hardAlpha"/>
<feOffset dy="4"/>
<feGaussianBlur stdDeviation="1"/>
<feComposite in2="hardAlpha" operator="out"/>
<feColorMatrix type="matrix" values="0 0 0 0 0 0 0 0 0 0 0 0 0 0 0 0 0 0 0.25 0"/>
<feBlend mode="normal" in2="BackgroundImageFix" result="effect1_dropShadow_380_74"/>
<feBlend mode="normal" in="SourceGraphic" in2="effect1_dropShadow_380_74" result="shape"/>
</filter>
<linearGradient id="paint0_linear_380_74" x1="66" y1="4" x2="66" y2="110" gradientUnits="userSpaceOnUse">
<stop/>
<stop offset="1" stop-color="#7C1B00"/>
</linearGradient>
</defs>
</svg>
