<svg width="94" height="126" viewBox="0 0 94 126" fill="none" xmlns="http://www.w3.org/2000/svg">
<g filter="url(#filter0_d_394_50)">
<mask id="mask0_394_50" style="mask-type:luminance" maskUnits="userSpaceOnUse" x="2" y="0" width="90" height="120">
<path d="M51.9999 4.99018C51.9999 2.23439 54.2387 0 56.9998 0H87.0001C89.7613 0 92 2.23439 92 4.99018V114.776C92 117.532 89.7613 119.766 87.0001 119.766H6.99992C4.23875 119.766 2 117.532 2 114.776V64.8737C2 62.1175 4.23875 59.8835 6.99992 59.8835H27.0003V34.9319C27.0003 32.1758 29.2387 29.9414 32.0002 29.9414H51.9999V4.99018Z" fill="white"/>
</mask>
<g mask="url(#mask0_394_50)">
<path d="M92 0V119.766H51.9999V0H92Z" fill="url(#paint0_linear_394_50)"/>
</g>
<mask id="mask1_394_50" style="mask-type:luminance" maskUnits="userSpaceOnUse" x="2" y="0" width="90" height="120">
<path d="M51.9999 4.99018C51.9999 2.23439 54.2387 0 56.9998 0H87.0001C89.7613 0 92 2.23439 92 4.99018V114.776C92 117.532 89.7613 119.766 87.0001 119.766H6.99992C4.23875 119.766 2 117.532 2 114.776V64.8737C2 62.1175 4.23875 59.8835 6.99992 59.8835H27.0003V34.9319C27.0003 32.1758 29.2387 29.9414 32.0002 29.9414H51.9999V4.99018Z" fill="white"/>
</mask>
<g mask="url(#mask1_394_50)">
<path d="M67.0001 35.4308V120.265H26.9996V30.4407H61.9998C64.761 30.4407 66.9997 32.6747 66.9997 35.4308" fill="black" fill-opacity="0.2"/>
</g>
<mask id="mask2_394_50" style="mask-type:luminance" maskUnits="userSpaceOnUse" x="2" y="0" width="90" height="120">
<path d="M51.9999 4.99018C51.9999 2.23439 54.2387 0 56.9998 0H87.0001C89.7613 0 92 2.23439 92 4.99018V114.776C92 117.532 89.7613 119.766 87.0001 119.766H6.99992C4.23875 119.766 2 117.532 2 114.776V64.8737C2 62.1175 4.23875 59.8835 6.99992 59.8835H27.0003V34.9319C27.0003 32.1758 29.2387 29.9414 32.0002 29.9414H51.9999V4.99018Z" fill="white"/>
</mask>
<g mask="url(#mask2_394_50)">
<path d="M67.0001 37.427V122.261H26.9996V32.4365H61.9998C64.761 32.4365 66.9997 34.6709 66.9997 37.427" fill="black" fill-opacity="0.18"/>
</g>
<mask id="mask3_394_50" style="mask-type:luminance" maskUnits="userSpaceOnUse" x="2" y="0" width="90" height="120">
<path d="M51.9999 4.99018C51.9999 2.23439 54.2387 0 56.9998 0H87.0001C89.7613 0 92 2.23439 92 4.99018V114.776C92 117.532 89.7613 119.766 87.0001 119.766H6.99992C4.23875 119.766 2 117.532 2 114.776V64.8737C2 62.1175 4.23875 59.8835 6.99992 59.8835H27.0003V34.9319C27.0003 32.1758 29.2387 29.9414 32.0002 29.9414H51.9999V4.99018Z" fill="white"/>
</mask>
<g mask="url(#mask3_394_50)">
<path d="M67.0001 34.9319V119.766H26.9996V29.9414H61.9998C64.761 29.9414 66.9997 32.1758 66.9997 34.9319" fill="url(#paint1_linear_394_50)"/>
</g>
<mask id="mask4_394_50" style="mask-type:luminance" maskUnits="userSpaceOnUse" x="2" y="0" width="90" height="120">
<path d="M51.9999 4.99018C51.9999 2.23439 54.2387 0 56.9998 0H87.0001C89.7613 0 92 2.23439 92 4.99018V114.776C92 117.532 89.7613 119.766 87.0001 119.766H6.99992C4.23875 119.766 2 117.532 2 114.776V64.8737C2 62.1175 4.23875 59.8835 6.99992 59.8835H27.0003V34.9319C27.0003 32.1758 29.2387 29.9414 32.0002 29.9414H51.9999V4.99018Z" fill="white"/>
</mask>
<g mask="url(#mask4_394_50)">
<path d="M2 59.8832V119.766H42.0001V64.8737C42.0001 62.1176 39.7613 59.8835 37.0002 59.8835L2 59.8832Z" fill="url(#paint2_linear_394_50)"/>
</g>
</g>
<defs>
<filter id="filter0_d_394_50" x="0" y="0" width="94" height="126" filterUnits="userSpaceOnUse" color-interpolation-filters="sRGB">
<feFlood flood-opacity="0" result="BackgroundImageFix"/>
<feColorMatrix in="SourceAlpha" type="matrix" values="0 0 0 0 0 0 0 0 0 0 0 0 0 0 0 0 0 0 127 0" result="hardAlpha"/>
<feOffset dy="4"/>
<feGaussianBlur stdDeviation="1"/>
<feComposite in2="hardAlpha" operator="out"/>
<feColorMatrix type="matrix" values="0 0 0 0 0 0 0 0 0 0 0 0 0 0 0 0 0 0 0.25 0"/>
<feBlend mode="normal" in2="BackgroundImageFix" result="effect1_dropShadow_394_50"/>
<feBlend mode="normal" in="SourceGraphic" in2="effect1_dropShadow_394_50" result="shape"/>
</filter>
<linearGradient id="paint0_linear_394_50" x1="1755.72" y1="-2.90851e-05" x2="6162.8" y2="9359.99" gradientUnits="userSpaceOnUse">
<stop stop-color="#3E0D00"/>
<stop offset="1"/>
</linearGradient>
<linearGradient id="paint1_linear_394_50" x1="1631.9" y1="29.9413" x2="5308.86" y2="7175.19" gradientUnits="userSpaceOnUse">
<stop stop-color="#952506"/>
<stop offset="1" stop-color="#7C1B00"/>
</linearGradient>
<linearGradient id="paint2_linear_394_50" x1="1112.96" y1="59.8832" x2="3351.1" y2="5374.5" gradientUnits="userSpaceOnUse">
<stop stop-color="#CE4620"/>
<stop offset="1" stop-color="#AC310F"/>
</linearGradient>
</defs>
</svg>
