<svg width="123" height="125" viewBox="0 0 123 125" fill="none" xmlns="http://www.w3.org/2000/svg">
<g filter="url(#filter0_d_380_76)">
<path d="M69.0315 30.0836V7.89743C69.0315 6.33334 69.811 4.8333 71.1985 3.72732C72.5859 2.62133 74.4677 2 76.4299 2H111.602C113.564 2 115.446 2.62133 116.833 3.72732C118.221 4.8333 119 6.33334 119 7.89743V111.102C119 112.667 118.221 114.167 116.833 115.273C115.446 116.379 113.564 117 111.602 117H86.4842M11.3984 57.9195H46.5701C48.5323 57.9195 50.4141 58.5408 51.8016 59.6468C53.189 60.7528 53.9685 62.2528 53.9685 63.8169V117H11.3984C9.43619 117 7.55439 116.379 6.16693 115.273C4.77947 114.167 4 112.667 4 111.102V63.8169C4 62.2528 4.77947 60.7528 6.16693 59.6468C7.55439 58.5408 9.43619 57.9195 11.3984 57.9195Z" stroke="url(#paint0_linear_380_76)" stroke-width="4" stroke-linecap="round" stroke-linejoin="round"/>
<path d="M36.5157 57.9196V35.9811C36.5157 34.417 37.2952 32.917 38.6827 31.811C40.0701 30.705 41.9519 30.0837 43.9141 30.0837H79.0859C81.048 30.0837 82.9298 30.705 84.3173 31.811C85.7048 32.917 86.4842 34.417 86.4842 35.9811V117H53.9685" stroke="url(#paint1_linear_380_76)" stroke-width="4" stroke-linecap="round" stroke-linejoin="round"/>
</g>
<defs>
<filter id="filter0_d_380_76" x="0" y="0" width="123" height="125" filterUnits="userSpaceOnUse" color-interpolation-filters="sRGB">
<feFlood flood-opacity="0" result="BackgroundImageFix"/>
<feColorMatrix in="SourceAlpha" type="matrix" values="0 0 0 0 0 0 0 0 0 0 0 0 0 0 0 0 0 0 127 0" result="hardAlpha"/>
<feOffset dy="4"/>
<feGaussianBlur stdDeviation="1"/>
<feComposite in2="hardAlpha" operator="out"/>
<feColorMatrix type="matrix" values="0 0 0 0 0.0118343 0 0 0 0 0.0891274 0 0 0 0 0.096154 0 0 0 0.3 0"/>
<feBlend mode="normal" in2="BackgroundImageFix" result="effect1_dropShadow_380_76"/>
<feBlend mode="normal" in="SourceGraphic" in2="effect1_dropShadow_380_76" result="shape"/>
</filter>
<linearGradient id="paint0_linear_380_76" x1="61.5" y1="2" x2="61.5" y2="117" gradientUnits="userSpaceOnUse">
<stop/>
<stop offset="1" stop-color="#7C1B00"/>
</linearGradient>
<linearGradient id="paint1_linear_380_76" x1="61.5" y1="30.0837" x2="61.5" y2="117" gradientUnits="userSpaceOnUse">
<stop/>
<stop offset="1" stop-color="#7C1B00"/>
</linearGradient>
</defs>
</svg>
