<svg width="124" height="136" viewBox="0 0 124 136" fill="none" xmlns="http://www.w3.org/2000/svg">
<g filter="url(#filter0_d_394_77)">
<path d="M112 0H32C29.3478 0 26.8043 1.05357 24.9289 2.92893C23.0536 4.8043 22 7.34784 22 10V25H12C9.34784 25 6.8043 26.0536 4.92893 27.9289C3.05357 29.8043 2 32.3478 2 35V95C2 97.6522 3.05357 100.196 4.92893 102.071C6.8043 103.946 9.34784 105 12 105H22V120C22 122.652 23.0536 125.196 24.9289 127.071C26.8043 128.946 29.3478 130 32 130H112C114.652 130 117.196 128.946 119.071 127.071C120.946 125.196 122 122.652 122 120V10C122 7.34784 120.946 4.8043 119.071 2.92893C117.196 1.05357 114.652 0 112 0ZM87 50H112V80H87V50ZM112 40H87V35C87 32.3478 85.9464 29.8043 84.0711 27.9289C82.1957 26.0536 79.6522 25 77 25V10H112V40ZM32 10H67V25H32V10ZM12 35H77V95H12V35ZM32 105H67V120H32V105ZM77 120V105C79.6522 105 82.1957 103.946 84.0711 102.071C85.9464 100.196 87 97.6522 87 95V90H112V120H77ZM28.1562 76.8L37.9937 65L28.1562 53.2C27.3076 52.1806 26.8986 50.8658 27.0193 49.5448C27.14 48.2238 27.7806 47.0049 28.8 46.1562C29.8194 45.3076 31.1342 44.8986 32.4552 45.0193C33.7762 45.14 34.9951 45.7806 35.8438 46.8L44.5 57.1875L53.1562 46.8C53.5765 46.2952 54.092 45.8782 54.6734 45.5726C55.2548 45.2671 55.8907 45.0791 56.5448 45.0193C57.1989 44.9595 57.8583 45.0292 58.4855 45.2243C59.1126 45.4193 59.6952 45.736 60.2 46.1562C60.7048 46.5765 61.1218 47.092 61.4274 47.6734C61.7329 48.2548 61.9209 48.8907 61.9807 49.5448C62.0405 50.1989 61.9708 50.8583 61.7757 51.4855C61.5807 52.1126 61.264 52.6952 60.8438 53.2L51.0063 65L60.8438 76.8C61.6924 77.8194 62.1014 79.1342 61.9807 80.4552C61.86 81.7762 61.2194 82.9951 60.2 83.8438C59.1806 84.6924 57.8658 85.1014 56.5448 84.9807C55.2238 84.86 54.0049 84.2194 53.1562 83.2L44.5 72.8125L35.8438 83.2C34.9951 84.2194 33.7762 84.86 32.4552 84.9807C31.1342 85.1014 29.8194 84.6924 28.8 83.8438C27.7806 82.9951 27.14 81.7762 27.0193 80.4552C26.8986 79.1342 27.3076 77.8194 28.1562 76.8Z" fill="url(#paint0_linear_394_77)"/>
</g>
<defs>
<filter id="filter0_d_394_77" x="0" y="0" width="124" height="136" filterUnits="userSpaceOnUse" color-interpolation-filters="sRGB">
<feFlood flood-opacity="0" result="BackgroundImageFix"/>
<feColorMatrix in="SourceAlpha" type="matrix" values="0 0 0 0 0 0 0 0 0 0 0 0 0 0 0 0 0 0 127 0" result="hardAlpha"/>
<feOffset dy="4"/>
<feGaussianBlur stdDeviation="1"/>
<feComposite in2="hardAlpha" operator="out"/>
<feColorMatrix type="matrix" values="0 0 0 0 0 0 0 0 0 0 0 0 0 0 0 0 0 0 0.25 0"/>
<feBlend mode="normal" in2="BackgroundImageFix" result="effect1_dropShadow_394_77"/>
<feBlend mode="normal" in="SourceGraphic" in2="effect1_dropShadow_394_77" result="shape"/>
</filter>
<linearGradient id="paint0_linear_394_77" x1="62" y1="0" x2="62" y2="130" gradientUnits="userSpaceOnUse">
<stop/>
<stop offset="1" stop-color="#7C1B00"/>
</linearGradient>
</defs>
</svg>
