<svg width="120" height="126" viewBox="0 0 120 126" fill="none" xmlns="http://www.w3.org/2000/svg">
<g filter="url(#filter0_d_379_52)">
<mask id="mask0_379_52" style="mask-type:luminance" maskUnits="userSpaceOnUse" x="0" y="0" width="120" height="120">
<path d="M0 0H120V120H0V0Z" fill="white"/>
</mask>
<g mask="url(#mask0_379_52)">
<path fill-rule="evenodd" clip-rule="evenodd" d="M42.075 0C29.84 0 20 10.265 20 22.84C20 30.485 23.64 37.275 29.235 41.42C26.3505 43.5796 24.0125 46.3854 22.4087 49.6121C20.8049 52.8389 19.9799 56.3967 20 60C20 67.65 23.64 74.435 29.235 78.58C26.3505 80.7396 24.0125 83.5454 22.4087 86.7721C20.8049 89.9989 19.9799 93.5567 20 97.16C20 109.735 29.84 120 42.075 120C54.31 120 64.15 109.735 64.15 97.16V77.85C68.0151 81.0766 72.8901 82.8443 77.925 82.845C90.16 82.84 100 72.575 100 60C100.02 56.3967 99.1951 52.8389 97.5913 49.6121C95.9875 46.3854 93.6495 43.5796 90.765 41.42C93.6495 39.2604 95.9875 36.4546 97.5913 33.2279C99.1951 30.0011 100.02 26.4433 100 22.84C100 10.265 90.16 0 77.925 0H42.075ZM28.295 22.84C28.295 14.885 34.505 8.515 42.075 8.515H55.85V37.165H42.075C34.505 37.165 28.295 30.79 28.295 22.84ZM77.925 37.16H64.15V8.51H77.925C85.5 8.51 91.705 14.885 91.705 22.84C91.705 30.79 85.5 37.16 77.925 37.16ZM28.3 60C28.3 52.05 34.51 45.675 42.08 45.675H55.855V74.325H42.075C34.5 74.325 28.3 67.95 28.3 60ZM64.145 60C64.145 52.05 70.355 45.675 77.925 45.675C85.5 45.675 91.705 52.045 91.705 60C91.705 67.95 85.5 74.325 77.925 74.325C70.35 74.325 64.145 67.95 64.145 60ZM28.3 97.16C28.3 89.21 34.51 82.84 42.08 82.84H55.855V97.16C55.855 105.115 49.655 111.485 42.08 111.485C34.505 111.485 28.3 105.115 28.3 97.16Z" fill="url(#paint0_linear_379_52)"/>
</g>
</g>
<defs>
<filter id="filter0_d_379_52" x="-2" y="0" width="124" height="126" filterUnits="userSpaceOnUse" color-interpolation-filters="sRGB">
<feFlood flood-opacity="0" result="BackgroundImageFix"/>
<feColorMatrix in="SourceAlpha" type="matrix" values="0 0 0 0 0 0 0 0 0 0 0 0 0 0 0 0 0 0 127 0" result="hardAlpha"/>
<feOffset dy="4"/>
<feGaussianBlur stdDeviation="1"/>
<feComposite in2="hardAlpha" operator="out"/>
<feColorMatrix type="matrix" values="0 0 0 0 0.0118343 0 0 0 0 0.0891274 0 0 0 0 0.096154 0 0 0 0.3 0"/>
<feBlend mode="normal" in2="BackgroundImageFix" result="effect1_dropShadow_379_52"/>
<feBlend mode="normal" in="SourceGraphic" in2="effect1_dropShadow_379_52" result="shape"/>
</filter>
<linearGradient id="paint0_linear_379_52" x1="60" y1="0" x2="60" y2="120" gradientUnits="userSpaceOnUse">
<stop/>
<stop offset="1" stop-color="#7C1B00"/>
</linearGradient>
</defs>
</svg>
