<svg width="124" height="126" viewBox="0 0 124 126" fill="none" xmlns="http://www.w3.org/2000/svg">
<g filter="url(#filter0_d_380_80)">
<path d="M119.736 54.6552L67.3428 2.26294C64.3275 -0.754313 59.4338 -0.754313 56.4137 2.26294L45.535 13.1437L59.3359 26.9447C62.5441 25.862 66.2211 26.5882 68.7772 29.1444C71.3467 31.7168 72.0673 35.4252 70.9579 38.6439L84.2588 51.9459C87.4766 50.8365 91.1906 51.5533 93.7591 54.1276C97.3524 57.7181 97.3524 63.5387 93.7591 67.131C92.9052 67.9854 91.8913 68.6631 90.7754 69.1255C89.6595 69.5879 88.4635 69.8259 87.2556 69.8259C86.0477 69.8259 84.8516 69.5879 83.7357 69.1255C82.6198 68.6631 81.6059 67.9854 80.752 67.131C79.4694 65.8471 78.5951 64.2125 78.239 62.4329C77.883 60.6534 78.0611 58.8082 78.751 57.1296L66.3475 44.726L66.3456 77.3711C67.2456 77.8141 68.0673 78.4011 68.7782 79.1088C72.3696 82.6993 72.3696 88.518 68.7782 92.1161C65.1859 95.7065 59.3634 95.7065 55.7749 92.1161C52.1835 88.5189 52.1835 82.7002 55.7749 79.1088C56.6361 78.248 57.6593 77.5663 58.7855 77.103V44.1556C57.6581 43.6943 56.6344 43.012 55.7749 42.1489C53.0543 39.4301 52.3993 35.4375 53.7948 32.0952L40.1888 18.489L4.26358 54.4128C2.81421 55.8626 2 57.8287 2 59.8788C2 61.9289 2.81421 63.895 4.26358 65.3448L56.658 117.737C59.6752 120.754 64.567 120.754 67.589 117.737L119.737 65.5882C121.186 64.1379 122 62.1716 122 60.1215C122 58.0713 121.186 56.1052 119.736 54.6552Z" fill="url(#paint0_linear_380_80)"/>
</g>
<defs>
<filter id="filter0_d_380_80" x="0" y="0" width="124" height="126" filterUnits="userSpaceOnUse" color-interpolation-filters="sRGB">
<feFlood flood-opacity="0" result="BackgroundImageFix"/>
<feColorMatrix in="SourceAlpha" type="matrix" values="0 0 0 0 0 0 0 0 0 0 0 0 0 0 0 0 0 0 127 0" result="hardAlpha"/>
<feOffset dy="4"/>
<feGaussianBlur stdDeviation="1"/>
<feComposite in2="hardAlpha" operator="out"/>
<feColorMatrix type="matrix" values="0 0 0 0 0.0118343 0 0 0 0 0.0891274 0 0 0 0 0.096154 0 0 0 0.3 0"/>
<feBlend mode="normal" in2="BackgroundImageFix" result="effect1_dropShadow_380_80"/>
<feBlend mode="normal" in="SourceGraphic" in2="effect1_dropShadow_380_80" result="shape"/>
</filter>
<linearGradient id="paint0_linear_380_80" x1="62" y1="0" x2="62" y2="120" gradientUnits="userSpaceOnUse">
<stop/>
<stop offset="1" stop-color="#7C1B00"/>
</linearGradient>
</defs>
</svg>
