<svg width="124" height="127" viewBox="0 0 124 127" fill="none" xmlns="http://www.w3.org/2000/svg">
<g filter="url(#filter0_d_394_78)">
<path opacity="0.5" d="M43.3884 116.95C55.6332 121.055 68.8822 121.057 81.1283 116.956C80.6819 117.1 80.2077 117.135 79.7448 117.059C79.282 116.984 78.8438 116.799 78.4663 116.521C78.0889 116.242 77.7831 115.878 77.5741 115.458C77.3651 115.038 77.2589 114.575 77.2644 114.106C77.2644 112.078 77.3424 105.628 77.3424 97.6059C77.5024 95.5735 77.2236 93.5305 76.5248 91.6154C75.8261 89.7002 74.7237 87.9577 73.2924 86.5059C86.6424 85.0059 100.664 79.9059 100.664 56.8779C100.761 50.9134 98.5591 45.1404 94.5144 40.7559C96.3448 35.5727 96.1303 29.8865 93.9144 24.8559C93.9144 24.8559 88.8863 23.2059 77.4143 31.0059C67.5965 28.3065 57.2322 28.3065 47.4144 31.0059C35.9363 23.2779 30.9144 24.8499 30.9144 24.8499C28.6984 29.8805 28.4839 35.5667 30.3144 40.7499C26.2855 45.1443 24.0858 50.9107 24.1644 56.8719C24.1644 79.8219 38.1143 84.9999 51.4643 86.4999C49.2562 88.6201 47.8955 91.4717 47.6364 94.5219C46.167 95.346 44.5497 95.8724 42.8768 96.0711C41.204 96.2698 39.5083 96.1369 37.8868 95.68C36.2654 95.223 34.7498 94.4511 33.4268 93.4082C32.1038 92.3653 30.9993 91.0719 30.1764 89.6019L30.1644 89.5719C29.2343 87.8801 27.9099 86.4377 26.3034 85.367C24.6969 84.2963 22.8558 83.6291 20.9364 83.4219C15.9144 83.4999 18.9144 86.2719 21.0144 87.3999C23.7204 89.6799 25.8324 92.5899 27.1644 95.8719C28.3644 99.2499 32.2644 105.7 47.3364 102.922C47.3364 107.95 47.4144 112.672 47.4144 114.1C47.4144 115.654 46.2984 117.406 43.3884 116.95Z" fill="#D9D9D9"/>
<path d="M62 0C28.862 0 2 26.862 2 60C2 86.538 19.25 109.014 43.13 116.928C46.04 117.378 47.15 115.632 47.15 114.078C47.15 112.65 47.078 107.928 47.078 102.9C32 105.678 28.1 99.228 26.9 95.85C25.5672 92.5692 23.4565 89.6616 20.75 87.378C18.65 86.25 15.65 83.478 20.672 83.4C22.5914 83.6072 24.4325 84.2744 26.039 85.3451C27.6455 86.4157 28.97 87.8582 29.9 89.55L29.918 89.586C30.7409 91.056 31.8454 92.3494 33.1684 93.3923C34.4915 94.4352 36.007 95.2071 37.6285 95.664C39.25 96.1209 40.9456 96.2539 42.6185 96.0551C44.2913 95.8564 45.9087 95.33 47.378 94.506C47.636 91.446 48.998 88.602 51.2 86.478C37.85 84.978 23.9 79.8 23.9 56.85C23.8214 50.8888 26.0211 45.1224 30.05 40.728C28.2195 35.5447 28.4341 29.8586 30.65 24.828C30.65 24.828 35.672 23.25 47.15 30.978C56.9678 28.2786 67.3322 28.2786 77.15 30.978C88.622 23.178 93.65 24.828 93.65 24.828C95.87 29.856 96.086 35.544 94.25 40.728C98.2948 45.1125 100.497 50.8855 100.4 56.85C100.4 79.878 86.372 84.978 73.028 86.478C75.92 89.418 77.402 93.462 77.078 97.578C77.078 105.6 77 112.05 77 114.078C76.9939 114.547 77.0994 115.01 77.3076 115.43C77.5159 115.85 77.821 116.215 78.1978 116.494C78.5746 116.773 79.0123 116.958 79.4748 117.035C79.9373 117.111 80.4114 117.077 80.858 116.934C104.744 109.02 122 86.544 122 60C122 26.862 95.138 0 62 0Z" fill="url(#paint0_linear_394_78)"/>
</g>
<defs>
<filter id="filter0_d_394_78" x="0" y="0" width="124" height="126.03" filterUnits="userSpaceOnUse" color-interpolation-filters="sRGB">
<feFlood flood-opacity="0" result="BackgroundImageFix"/>
<feColorMatrix in="SourceAlpha" type="matrix" values="0 0 0 0 0 0 0 0 0 0 0 0 0 0 0 0 0 0 127 0" result="hardAlpha"/>
<feOffset dy="4"/>
<feGaussianBlur stdDeviation="1"/>
<feComposite in2="hardAlpha" operator="out"/>
<feColorMatrix type="matrix" values="0 0 0 0 0 0 0 0 0 0 0 0 0 0 0 0 0 0 0.25 0"/>
<feBlend mode="normal" in2="BackgroundImageFix" result="effect1_dropShadow_394_78"/>
<feBlend mode="normal" in="SourceGraphic" in2="effect1_dropShadow_394_78" result="shape"/>
</filter>
<linearGradient id="paint0_linear_394_78" x1="62" y1="0" x2="62" y2="117.074" gradientUnits="userSpaceOnUse">
<stop/>
<stop offset="1" stop-color="#7C1B00"/>
</linearGradient>
</defs>
</svg>
