<svg width="124" height="128" viewBox="0 0 124 128" fill="none" xmlns="http://www.w3.org/2000/svg">
<g filter="url(#filter0_d_380_79)">
<path d="M62.0375 1.00007C28.8858 0.98101 2.01868 28.4954 1.99915 62.4847C1.98086 75.3994 5.93122 87.9917 13.2893 98.4737C20.6475 108.956 31.0394 116.795 42.9896 120.878C45.9895 121.415 47.1186 119.57 47.1195 117.952C47.1204 116.494 47.0451 111.652 47.0481 106.497C31.9737 109.336 28.0773 102.721 26.8793 99.2567C26.2022 97.4845 23.2832 92.0261 20.7339 90.5605C18.6345 89.4089 15.636 86.5588 20.6583 86.4879C25.3866 86.4106 28.7561 90.9527 29.8831 92.7989C35.278 102.104 43.902 99.4941 47.3531 97.8843C47.8834 93.8858 49.457 91.1984 51.186 89.6614C37.8362 88.1157 23.8886 82.7986 23.9021 59.2675C23.9059 52.5743 26.2312 47.045 30.0619 42.7409C29.4628 41.2026 27.3663 34.8956 30.6713 26.4387C30.6713 26.4387 35.6945 24.8236 47.1685 32.7477C52.0545 31.3641 57.1016 30.6696 62.1704 30.6831C67.2707 30.6861 72.3705 31.378 77.17 32.7649C88.6532 24.7741 93.6744 26.4749 93.6744 26.4749C96.9697 34.9356 94.866 41.2401 94.2651 42.7778C98.0848 47.0863 100.41 52.5444 100.406 59.3115C100.392 82.9225 86.3666 88.1436 73.0151 89.6739C75.1861 91.5946 77.062 95.2868 77.0587 101.057C77.054 109.282 76.9722 115.896 76.971 117.975C76.9701 119.587 78.097 121.507 81.0975 120.893C93.0076 116.773 103.359 108.929 110.695 98.4644C118.032 87.9998 121.985 75.441 121.999 62.5537C122.019 28.5644 95.1831 1.01912 62.0315 1.00006" fill="url(#paint0_linear_380_79)"/>
</g>
<defs>
<filter id="filter0_d_380_79" x="-0.0344849" y="0.965576" width="124.069" height="126.069" filterUnits="userSpaceOnUse" color-interpolation-filters="sRGB">
<feFlood flood-opacity="0" result="BackgroundImageFix"/>
<feColorMatrix in="SourceAlpha" type="matrix" values="0 0 0 0 0 0 0 0 0 0 0 0 0 0 0 0 0 0 127 0" result="hardAlpha"/>
<feOffset dy="4"/>
<feGaussianBlur stdDeviation="1"/>
<feComposite in2="hardAlpha" operator="out"/>
<feColorMatrix type="matrix" values="0 0 0 0 0.0118343 0 0 0 0 0.0891274 0 0 0 0 0.096154 0 0 0 0.3 0"/>
<feBlend mode="normal" in2="BackgroundImageFix" result="effect1_dropShadow_380_79"/>
<feBlend mode="normal" in="SourceGraphic" in2="effect1_dropShadow_380_79" result="shape"/>
</filter>
<linearGradient id="paint0_linear_380_79" x1="2.02596" y1="15.7976" x2="121.974" y2="106.203" gradientUnits="userSpaceOnUse">
<stop/>
<stop offset="1" stop-color="#7C1B00"/>
</linearGradient>
</defs>
</svg>
