<svg width="124" height="126" viewBox="0 0 124 126" fill="none" xmlns="http://www.w3.org/2000/svg">
<g filter="url(#filter0_d_394_13)">
<path d="M93.875 0H30.125C14.592 0 2 12.592 2 28.125V91.875C2 107.408 14.592 120 30.125 120H93.875C109.408 120 122 107.408 122 91.875V28.125C122 12.592 109.408 0 93.875 0Z" fill="url(#paint0_linear_394_13)"/>
<path d="M24.5 17.8125L28.5359 63.0905H80.4313L78.6898 82.5108L61.9808 87.0286L45.3031 82.5173L44.188 70.0477H29.1594L31.3086 94.0856L61.9775 102.604L92.6853 94.0856L96.8023 48.1195H42.23L40.8598 32.7867H98.1589L99.5 17.8125H24.5Z" fill="#EAEAEA"/>
<path d="M62 17.8125H24.5L28.5359 63.0905H62V48.1195H42.23L40.8598 32.7867H62V17.8125ZM62 87.022L61.9808 87.0286L45.3031 82.5173L44.188 70.0477H29.1594L31.3086 94.0856L61.9775 102.604L62.0005 102.597L62 87.022Z" fill="#D9D9D9"/>
</g>
<defs>
<filter id="filter0_d_394_13" x="0" y="0" width="124" height="126" filterUnits="userSpaceOnUse" color-interpolation-filters="sRGB">
<feFlood flood-opacity="0" result="BackgroundImageFix"/>
<feColorMatrix in="SourceAlpha" type="matrix" values="0 0 0 0 0 0 0 0 0 0 0 0 0 0 0 0 0 0 127 0" result="hardAlpha"/>
<feOffset dy="4"/>
<feGaussianBlur stdDeviation="1"/>
<feComposite in2="hardAlpha" operator="out"/>
<feColorMatrix type="matrix" values="0 0 0 0 0 0 0 0 0 0 0 0 0 0 0 0 0 0 0.25 0"/>
<feBlend mode="normal" in2="BackgroundImageFix" result="effect1_dropShadow_394_13"/>
<feBlend mode="normal" in="SourceGraphic" in2="effect1_dropShadow_394_13" result="shape"/>
</filter>
<linearGradient id="paint0_linear_394_13" x1="62" y1="0" x2="62" y2="120" gradientUnits="userSpaceOnUse">
<stop/>
<stop offset="1" stop-color="#7C1B00"/>
</linearGradient>
</defs>
</svg>
