<svg width="132" height="125" viewBox="0 0 132 125" fill="none" xmlns="http://www.w3.org/2000/svg">
<g filter="url(#filter0_d_380_75)">
<path d="M65.7562 10.3405L61.2114 5.78959C60.6165 5.19491 59.9053 4.7294 59.1222 4.42221C58.3391 4.11502 57.5011 3.97275 56.6605 4.0043C55.82 4.03586 54.9949 4.24057 54.2371 4.60561C53.4793 4.97065 52.805 5.48817 52.2563 6.12579L7.47795 58.1569C6.47237 59.3263 5.946 60.8325 6.00439 62.3737C6.06277 63.9149 6.70158 65.3771 7.79275 66.467L53.4605 112.132C54.0554 112.726 54.7667 113.192 55.5497 113.499C56.3328 113.806 57.1708 113.949 58.0114 113.917C58.852 113.885 59.677 113.681 60.4348 113.316C61.1926 112.951 61.867 112.433 62.4156 111.796L66.0404 107.581" stroke="url(#paint0_linear_380_75)" stroke-width="8" stroke-linecap="round" stroke-linejoin="round"/>
<path d="M54.2797 32.7863L73.1525 51.6561C74.2441 52.7466 74.8829 54.2096 74.9408 55.7515C74.9986 57.2934 74.4711 58.8001 73.4643 59.9693L51.7093 85.2513C50.7042 86.4202 50.1778 87.9256 50.2356 89.4661C50.2934 91.0065 50.9312 92.4683 52.021 93.5585L70.793 112.334C71.3879 112.928 72.0992 113.394 72.8822 113.701C73.6653 114.008 74.5033 114.15 75.3439 114.119C76.1845 114.087 77.0095 113.883 77.7673 113.518C78.5251 113.152 79.1995 112.635 79.7481 111.997L124.523 59.9663C125.528 58.7971 126.054 57.2914 125.996 55.751C125.937 54.2105 125.299 52.749 124.209 51.6591L78.5409 5.99137C77.946 5.39669 77.2347 4.93118 76.4517 4.62399C75.6686 4.3168 74.8306 4.17453 73.99 4.20609C73.1494 4.23764 72.3244 4.44235 71.5666 4.80739C70.8087 5.17243 70.1344 5.68995 69.5858 6.32757L53.9679 24.4761C52.9628 25.6449 52.4365 27.1503 52.4943 28.6908C52.5521 30.2313 53.1898 31.6961 54.2797 32.7863Z" stroke="url(#paint1_linear_380_75)" stroke-width="8" stroke-linecap="round" stroke-linejoin="round"/>
<path d="M112.579 73.8419L108.893 78.1177C108.344 78.754 107.67 79.2702 106.912 79.6341C106.155 79.998 105.331 80.2018 104.491 80.2328C103.651 80.2638 102.814 80.1212 102.032 79.8141C101.249 79.507 100.539 79.0419 99.9443 78.4478L81.1754 59.6788C80.0846 58.5885 79.4464 57.1261 79.3886 55.5849C79.3308 54.0438 79.8577 52.5377 80.8636 51.3687L96.4815 33.2201C97.0301 32.5825 97.7045 32.065 98.4623 31.7C99.2201 31.3349 100.045 31.1302 100.886 31.0987C101.726 31.0671 102.564 31.2094 103.347 31.5166C104.13 31.8238 104.842 32.2893 105.437 32.884L109.563 37.0131" stroke="url(#paint2_linear_380_75)" stroke-width="8" stroke-linecap="round" stroke-linejoin="round"/>
</g>
<defs>
<filter id="filter0_d_380_75" x="0" y="0" width="132" height="124.123" filterUnits="userSpaceOnUse" color-interpolation-filters="sRGB">
<feFlood flood-opacity="0" result="BackgroundImageFix"/>
<feColorMatrix in="SourceAlpha" type="matrix" values="0 0 0 0 0 0 0 0 0 0 0 0 0 0 0 0 0 0 127 0" result="hardAlpha"/>
<feOffset dy="4"/>
<feGaussianBlur stdDeviation="1"/>
<feComposite in2="hardAlpha" operator="out"/>
<feColorMatrix type="matrix" values="0 0 0 0 0 0 0 0 0 0 0 0 0 0 0 0 0 0 0.25 0"/>
<feBlend mode="normal" in2="BackgroundImageFix" result="effect1_dropShadow_380_75"/>
<feBlend mode="normal" in="SourceGraphic" in2="effect1_dropShadow_380_75" result="shape"/>
</filter>
<linearGradient id="paint0_linear_380_75" x1="36.0202" y1="4" x2="36.0202" y2="113.921" gradientUnits="userSpaceOnUse">
<stop/>
<stop offset="1" stop-color="#7C1B00"/>
</linearGradient>
<linearGradient id="paint1_linear_380_75" x1="88.1156" y1="4.20178" x2="88.1156" y2="114.123" gradientUnits="userSpaceOnUse">
<stop/>
<stop offset="1" stop-color="#7C1B00"/>
</linearGradient>
<linearGradient id="paint2_linear_380_75" x1="95.9818" y1="31.0944" x2="95.9818" y2="80.2369" gradientUnits="userSpaceOnUse">
<stop/>
<stop offset="1" stop-color="#7C1B00"/>
</linearGradient>
</defs>
</svg>
