<svg width="128" height="121" viewBox="0 0 128 121" fill="none" xmlns="http://www.w3.org/2000/svg">
<g filter="url(#filter0_d_380_75)">
<path d="M63.7562 8.34048L59.2114 3.78959C58.6165 3.19491 57.9053 2.7294 57.1222 2.42221C56.3391 2.11502 55.5011 1.97275 54.6605 2.0043C53.82 2.03586 52.9949 2.24057 52.2371 2.60561C51.4793 2.97065 50.805 3.48817 50.2563 4.12579L5.47795 56.1569C4.47237 57.3263 3.946 58.8325 4.00439 60.3737C4.06277 61.9149 4.70158 63.3771 5.79275 64.467L51.4605 110.132C52.0554 110.726 52.7667 111.192 53.5497 111.499C54.3328 111.806 55.1708 111.949 56.0114 111.917C56.852 111.885 57.677 111.681 58.4348 111.316C59.1926 110.951 59.867 110.433 60.4156 109.796L64.0404 105.581" stroke="url(#paint0_linear_380_75)" stroke-width="4" stroke-linecap="round" stroke-linejoin="round"/>
<path d="M52.2797 30.7863L71.1525 49.6561C72.2441 50.7466 72.8829 52.2096 72.9408 53.7515C72.9986 55.2934 72.4711 56.8001 71.4643 57.9693L49.7093 83.2513C48.7042 84.4202 48.1778 85.9256 48.2356 87.4661C48.2934 89.0065 48.9312 90.4683 50.021 91.5585L68.793 110.334C69.3879 110.928 70.0992 111.394 70.8822 111.701C71.6653 112.008 72.5033 112.15 73.3439 112.119C74.1845 112.087 75.0095 111.883 75.7673 111.518C76.5251 111.152 77.1995 110.635 77.7481 109.997L122.523 57.9663C123.528 56.7971 124.054 55.2914 123.996 53.751C123.937 52.2105 123.299 50.749 122.209 49.6591L76.5409 3.99137C75.946 3.39669 75.2347 2.93118 74.4517 2.62399C73.6686 2.3168 72.8306 2.17453 71.99 2.20609C71.1494 2.23764 70.3244 2.44235 69.5666 2.80739C68.8087 3.17243 68.1344 3.68995 67.5858 4.32757L51.9679 22.4761C50.9628 23.6449 50.4365 25.1503 50.4943 26.6908C50.5521 28.2313 51.1898 29.6961 52.2797 30.7863Z" stroke="url(#paint1_linear_380_75)" stroke-width="4" stroke-linecap="round" stroke-linejoin="round"/>
<path d="M110.579 71.8419L106.893 76.1177C106.344 76.754 105.67 77.2702 104.912 77.6341C104.155 77.998 103.331 78.2018 102.491 78.2328C101.651 78.2638 100.814 78.1212 100.032 77.8141C99.2493 77.507 98.5387 77.0419 97.9443 76.4478L79.1754 57.6788C78.0846 56.5885 77.4464 55.1261 77.3886 53.5849C77.3308 52.0438 77.8577 50.5377 78.8636 49.3687L94.4815 31.2201C95.0301 30.5825 95.7045 30.065 96.4623 29.7C97.2201 29.3349 98.0451 29.1302 98.8857 29.0987C99.7263 29.0671 100.564 29.2094 101.347 29.5166C102.13 29.8238 102.842 30.2893 103.437 30.884L107.563 35.0131" stroke="url(#paint2_linear_380_75)" stroke-width="4" stroke-linecap="round" stroke-linejoin="round"/>
</g>
<defs>
<filter id="filter0_d_380_75" x="0" y="0" width="128" height="120.123" filterUnits="userSpaceOnUse" color-interpolation-filters="sRGB">
<feFlood flood-opacity="0" result="BackgroundImageFix"/>
<feColorMatrix in="SourceAlpha" type="matrix" values="0 0 0 0 0 0 0 0 0 0 0 0 0 0 0 0 0 0 127 0" result="hardAlpha"/>
<feOffset dy="4"/>
<feGaussianBlur stdDeviation="1"/>
<feComposite in2="hardAlpha" operator="out"/>
<feColorMatrix type="matrix" values="0 0 0 0 0.0118343 0 0 0 0 0.0891274 0 0 0 0 0.096154 0 0 0 0.3 0"/>
<feBlend mode="normal" in2="BackgroundImageFix" result="effect1_dropShadow_380_75"/>
<feBlend mode="normal" in="SourceGraphic" in2="effect1_dropShadow_380_75" result="shape"/>
</filter>
<linearGradient id="paint0_linear_380_75" x1="34.0202" y1="2" x2="34.0202" y2="111.921" gradientUnits="userSpaceOnUse">
<stop/>
<stop offset="1" stop-color="#7C1B00"/>
</linearGradient>
<linearGradient id="paint1_linear_380_75" x1="86.1156" y1="2.20178" x2="86.1156" y2="112.123" gradientUnits="userSpaceOnUse">
<stop/>
<stop offset="1" stop-color="#7C1B00"/>
</linearGradient>
<linearGradient id="paint2_linear_380_75" x1="93.9818" y1="29.0944" x2="93.9818" y2="78.2369" gradientUnits="userSpaceOnUse">
<stop/>
<stop offset="1" stop-color="#7C1B00"/>
</linearGradient>
</defs>
</svg>
