<svg width="120" height="120" viewBox="0 0 120 120" fill="none" xmlns="http://www.w3.org/2000/svg">
<rect x="4" y="4" width="112" height="112" rx="16" stroke="url(#paint0_linear_397_33)" stroke-width="8"/>
<path d="M78 40C80.2091 40 82 41.7909 82 44V75C82 77.2091 80.2091 79 78 79V79C75.7909 79 74 77.2091 74 75V44C74 41.7909 75.7909 40 78 40V40Z" fill="url(#paint1_linear_397_33)"/>
<path d="M59.4484 44.2758C59.4484 41.9144 61.3627 40 63.7242 40V40C66.0857 40 68 41.9144 68 44.2758V64.8404C68 67.7112 67.371 70.2122 66.1131 72.3433C64.8552 74.4619 63.101 76.1041 60.8505 77.27C58.6001 78.4233 55.9862 79 53.0087 79C49.9965 79 47.3653 78.4233 45.1148 77.27C42.8644 76.1041 41.116 74.4619 39.8696 72.3433C38.6232 70.2122 38 67.7112 38 64.8404V44.2845C38 41.9182 39.9182 40 42.2845 40V40C44.6507 40 46.569 41.9182 46.569 44.2845V64.0318C46.569 65.3607 46.8344 66.5453 47.3653 67.5858C47.9077 68.6263 48.6636 69.4412 49.633 70.0304C50.6024 70.6196 51.7276 70.9142 53.0087 70.9142C54.2897 70.9142 55.4091 70.6196 56.367 70.0304C57.3364 69.4412 58.0923 68.6263 58.6347 67.5858C59.1772 66.5453 59.4484 65.3607 59.4484 64.0318V44.2758Z" fill="url(#paint2_linear_397_33)"/>
<defs>
<linearGradient id="paint0_linear_397_33" x1="60" y1="0" x2="60" y2="120" gradientUnits="userSpaceOnUse">
<stop stop-color="#7C1B00"/>
<stop offset="1"/>
</linearGradient>
<linearGradient id="paint1_linear_397_33" x1="78" y1="40" x2="78" y2="79" gradientUnits="userSpaceOnUse">
<stop/>
<stop offset="1" stop-color="#7C1B00"/>
</linearGradient>
<linearGradient id="paint2_linear_397_33" x1="53" y1="40" x2="53" y2="79" gradientUnits="userSpaceOnUse">
<stop/>
<stop offset="1" stop-color="#7C1B00"/>
</linearGradient>
</defs>
</svg>
