<svg width="124" height="126" viewBox="0 0 124 126" fill="none" xmlns="http://www.w3.org/2000/svg">
<g filter="url(#filter0_d_380_78)">
<rect x="2" width="120" height="120" rx="30" fill="url(#paint0_linear_380_78)"/>
<path d="M30.8409 50.7273H36.4545V65.7386C36.4545 67.4735 36.0417 68.9848 35.2159 70.2727C34.3902 71.553 33.2386 72.5455 31.7614 73.25C30.2841 73.947 28.5682 74.2955 26.6136 74.2955C24.6364 74.2955 22.9091 73.947 21.4318 73.25C19.9545 72.5455 18.8068 71.553 17.9886 70.2727C17.1705 68.9848 16.7614 67.4735 16.7614 65.7386V50.7273H22.3864V65.25C22.3864 66.053 22.5606 66.7689 22.9091 67.3977C23.2652 68.0265 23.7614 68.5189 24.3977 68.875C25.0341 69.2311 25.7727 69.4091 26.6136 69.4091C27.4545 69.4091 28.1894 69.2311 28.8182 68.875C29.4545 68.5189 29.9508 68.0265 30.3068 67.3977C30.6629 66.7689 30.8409 66.053 30.8409 65.25V50.7273ZM45.6733 50.7273L49.9233 58.0795H50.1051L54.4006 50.7273H60.696L53.6733 62.3636L60.9233 74H54.4688L50.1051 66.5682H49.9233L45.5597 74H39.1506L46.3665 62.3636L39.3324 50.7273H45.6733ZM74.3778 49.6364L66.8778 77.5H62.1392L69.6392 49.6364H74.3778ZM90.5284 50.7273H96.142V65.7386C96.142 67.4735 95.7292 68.9848 94.9034 70.2727C94.0777 71.553 92.9261 72.5455 91.4489 73.25C89.9716 73.947 88.2557 74.2955 86.3011 74.2955C84.3239 74.2955 82.5966 73.947 81.1193 73.25C79.642 72.5455 78.4943 71.553 77.6761 70.2727C76.858 68.9848 76.4489 67.4735 76.4489 65.7386V50.7273H82.0739V65.25C82.0739 66.053 82.2481 66.7689 82.5966 67.3977C82.9527 68.0265 83.4489 68.5189 84.0852 68.875C84.7216 69.2311 85.4602 69.4091 86.3011 69.4091C87.142 69.4091 87.8769 69.2311 88.5057 68.875C89.142 68.5189 89.6383 68.0265 89.9943 67.3977C90.3504 66.7689 90.5284 66.053 90.5284 65.25V50.7273ZM105.293 50.7273V74H99.6676V50.7273H105.293Z" fill="#D9D9D9"/>
</g>
<defs>
<filter id="filter0_d_380_78" x="0" y="0" width="124" height="126" filterUnits="userSpaceOnUse" color-interpolation-filters="sRGB">
<feFlood flood-opacity="0" result="BackgroundImageFix"/>
<feColorMatrix in="SourceAlpha" type="matrix" values="0 0 0 0 0 0 0 0 0 0 0 0 0 0 0 0 0 0 127 0" result="hardAlpha"/>
<feOffset dy="4"/>
<feGaussianBlur stdDeviation="1"/>
<feComposite in2="hardAlpha" operator="out"/>
<feColorMatrix type="matrix" values="0 0 0 0 0.0118343 0 0 0 0 0.0891274 0 0 0 0 0.096154 0 0 0 0.3 0"/>
<feBlend mode="normal" in2="BackgroundImageFix" result="effect1_dropShadow_380_78"/>
<feBlend mode="normal" in="SourceGraphic" in2="effect1_dropShadow_380_78" result="shape"/>
</filter>
<linearGradient id="paint0_linear_380_78" x1="54.2077" y1="92.7652" x2="16.2923" y2="20.2348" gradientUnits="userSpaceOnUse">
<stop/>
<stop offset="1" stop-color="#7C1B00"/>
</linearGradient>
</defs>
</svg>
