<svg width="124" height="126" viewBox="0 0 124 126" fill="none" xmlns="http://www.w3.org/2000/svg">
<g filter="url(#filter0_d_380_78)">
<rect x="6" y="4" width="112" height="112" rx="16" stroke="url(#paint0_linear_380_78)" stroke-width="8" shape-rendering="crispEdges"/>
<path d="M69.7565 40C71.2612 40 72.6387 40.8445 73.3212 42.1855L78.4987 52.3569C78.5366 52.4314 78.6131 52.4783 78.6966 52.4783V52.4783C78.7799 52.4783 78.8561 52.4318 78.8942 52.3578L84.1353 42.1701C84.8208 40.8376 86.1937 40 87.6922 40H88.0048C91.0219 40 92.9528 43.2129 91.537 45.8771L85.1785 57.8419C84.5459 59.0322 84.5554 60.4612 85.2038 61.643L91.7498 73.5746C93.2124 76.2403 91.2835 79.4986 88.243 79.4986H87.7885C86.2929 79.4986 84.9222 78.6642 84.2353 77.3357L78.8946 67.0059C78.8562 66.9318 78.7798 66.8852 78.6963 66.8852V66.8852C78.6128 66.8852 78.5364 66.9318 78.498 67.0059L73.1573 77.3357C72.4704 78.6642 71.0997 79.4986 69.6041 79.4986H69.2023C66.1652 79.4986 64.2361 76.2471 65.6916 73.5815L72.2112 61.6421C72.8563 60.4606 72.8639 59.0338 72.2314 57.8456L65.8619 45.8795C64.4437 43.2152 66.3746 40 69.3929 40H69.7565Z" fill="url(#paint1_linear_380_78)"/>
<path d="M50.0419 44C50.0419 41.7909 51.8328 40 54.0419 40H54.4315C56.6406 40 58.4315 41.7909 58.4315 44V65.4773C58.4315 68.4217 57.8145 70.9868 56.5804 73.1726C55.3463 75.3456 53.6253 77.0299 51.4175 78.2257C49.2097 79.4086 46.6453 80 43.7242 80C40.7692 80 38.1878 79.4086 35.98 78.2257C33.7722 77.0299 32.0569 75.3456 30.8342 73.1726C29.6114 70.9868 29 68.4217 29 65.4773V44C29 41.7909 30.7909 40 33 40H33.4066C35.6157 40 37.4066 41.7909 37.4066 44V64.648C37.4066 66.0109 37.667 67.226 38.1878 68.2932C38.7199 69.3603 39.4615 70.1961 40.4126 70.8004C41.3636 71.4047 42.4675 71.7069 43.7242 71.7069C44.981 71.7069 46.0792 71.4047 47.0189 70.8004C47.97 70.1961 48.7116 69.3603 49.2437 68.2932C49.7758 67.226 50.0419 66.0109 50.0419 64.648V44Z" fill="url(#paint2_linear_380_78)"/>
</g>
<defs>
<filter id="filter0_d_380_78" x="0" y="0" width="124" height="126" filterUnits="userSpaceOnUse" color-interpolation-filters="sRGB">
<feFlood flood-opacity="0" result="BackgroundImageFix"/>
<feColorMatrix in="SourceAlpha" type="matrix" values="0 0 0 0 0 0 0 0 0 0 0 0 0 0 0 0 0 0 127 0" result="hardAlpha"/>
<feOffset dy="4"/>
<feGaussianBlur stdDeviation="1"/>
<feComposite in2="hardAlpha" operator="out"/>
<feColorMatrix type="matrix" values="0 0 0 0 0 0 0 0 0 0 0 0 0 0 0 0 0 0 0.25 0"/>
<feBlend mode="normal" in2="BackgroundImageFix" result="effect1_dropShadow_380_78"/>
<feBlend mode="normal" in="SourceGraphic" in2="effect1_dropShadow_380_78" result="shape"/>
</filter>
<linearGradient id="paint0_linear_380_78" x1="62" y1="0" x2="62" y2="120" gradientUnits="userSpaceOnUse">
<stop/>
<stop offset="1" stop-color="#7C1B00"/>
</linearGradient>
<linearGradient id="paint1_linear_380_78" x1="78.7303" y1="40" x2="78.7303" y2="79.4986" gradientUnits="userSpaceOnUse">
<stop stop-color="#7C1B00"/>
<stop offset="1"/>
</linearGradient>
<linearGradient id="paint2_linear_380_78" x1="43.7158" y1="40" x2="43.7158" y2="80" gradientUnits="userSpaceOnUse">
<stop stop-color="#7C1B00"/>
<stop offset="1"/>
</linearGradient>
</defs>
</svg>
