<svg width="124" height="136" viewBox="0 0 124 136" fill="none" xmlns="http://www.w3.org/2000/svg">
<g filter="url(#filter0_d_394_76)">
<path d="M112 0H32C29.3478 0 26.8043 1.05357 24.9289 2.92893C23.0536 4.8043 22 7.34784 22 10V25H12C9.34784 25 6.8043 26.0536 4.92893 27.9289C3.05357 29.8043 2 32.3478 2 35V95C2 97.6522 3.05357 100.196 4.92893 102.071C6.8043 103.946 9.34784 105 12 105H22V120C22 122.652 23.0536 125.196 24.9289 127.071C26.8043 128.946 29.3478 130 32 130H112C114.652 130 117.196 128.946 119.071 127.071C120.946 125.196 122 122.652 122 120V10C122 7.34784 120.946 4.8043 119.071 2.92893C117.196 1.05357 114.652 0 112 0ZM87 50H112V80H87V50ZM32 10H112V40H87V35C87 32.3478 85.9464 29.8043 84.0711 27.9289C82.1957 26.0536 79.6522 25 77 25H32V10ZM12 35H77V95H12V35ZM32 120V105H77C79.6522 105 82.1957 103.946 84.0711 102.071C85.9464 100.196 87 97.6522 87 95V90H112V120H32ZM29.65 81.2125L22.15 51.2125C21.978 50.5714 21.9354 49.9024 22.0246 49.2446C22.1139 48.5868 22.3332 47.9533 22.6699 47.3812C23.0065 46.8091 23.4537 46.3097 23.9854 45.9123C24.517 45.5148 25.1225 45.2271 25.7665 45.0662C26.4105 44.9052 27.0802 44.874 27.7363 44.9745C28.3925 45.075 29.0221 45.3052 29.5883 45.6516C30.1546 45.998 30.6462 46.4537 31.0345 46.9921C31.4229 47.5305 31.7001 48.1408 31.85 48.7875L36.075 65.6625L40.025 57.75C40.4397 56.918 41.0781 56.218 41.8686 55.7288C42.6591 55.2395 43.5704 54.9803 44.5 54.9803C45.4296 54.9803 46.3409 55.2395 47.1314 55.7288C47.9219 56.218 48.5603 56.918 48.975 57.75L52.925 65.6625L57.15 48.7875C57.4898 47.521 58.3135 46.4387 59.4436 45.7738C60.5737 45.1088 61.9198 44.9144 63.1919 45.2324C64.464 45.5504 65.5602 46.3554 66.2445 47.474C66.9287 48.5926 67.1462 49.9351 66.85 51.2125L59.35 81.2125C59.1008 82.2024 58.5546 83.0923 57.7848 83.7627C57.015 84.433 56.0585 84.8517 55.0438 84.9625C54.8631 84.9817 54.6816 84.9921 54.5 84.9938C53.5711 84.9944 52.6604 84.7363 51.87 84.2484C51.0795 83.7604 50.4407 83.062 50.025 82.2313L44.5 71.1813L38.975 82.2375C38.5183 83.152 37.7924 83.9046 36.8949 84.3938C35.9974 84.8831 34.9715 85.0855 33.9554 84.9738C32.9393 84.8621 31.9819 84.4417 31.2121 83.7692C30.4423 83.0967 29.8971 82.2044 29.65 81.2125Z" fill="url(#paint0_linear_394_76)"/>
</g>
<defs>
<filter id="filter0_d_394_76" x="0" y="0" width="124" height="136" filterUnits="userSpaceOnUse" color-interpolation-filters="sRGB">
<feFlood flood-opacity="0" result="BackgroundImageFix"/>
<feColorMatrix in="SourceAlpha" type="matrix" values="0 0 0 0 0 0 0 0 0 0 0 0 0 0 0 0 0 0 127 0" result="hardAlpha"/>
<feOffset dy="4"/>
<feGaussianBlur stdDeviation="1"/>
<feComposite in2="hardAlpha" operator="out"/>
<feColorMatrix type="matrix" values="0 0 0 0 0 0 0 0 0 0 0 0 0 0 0 0 0 0 0.25 0"/>
<feBlend mode="normal" in2="BackgroundImageFix" result="effect1_dropShadow_394_76"/>
<feBlend mode="normal" in="SourceGraphic" in2="effect1_dropShadow_394_76" result="shape"/>
</filter>
<linearGradient id="paint0_linear_394_76" x1="62" y1="0" x2="62" y2="130" gradientUnits="userSpaceOnUse">
<stop/>
<stop offset="1" stop-color="#7C1B00"/>
</linearGradient>
</defs>
</svg>
