<svg width="42" height="42" viewBox="0 0 42 42" fill="none" xmlns="http://www.w3.org/2000/svg">
<path d="M1.81201 40.1191L15.6358 26.236M33.0436 20.0624L28.9056 32.5319C28.8393 32.7313 28.7261 32.9117 28.5756 33.0579C28.4251 33.2041 28.2418 33.3118 28.0411 33.3717L2.67436 40.9459C2.44583 41.0141 2.20306 41.018 1.97247 40.9572C1.74188 40.8964 1.5323 40.7733 1.36655 40.6012C1.2008 40.4291 1.08522 40.2147 1.0324 39.9812C0.979573 39.7477 0.991524 39.5042 1.06695 39.2771L9.30386 14.4647C9.36289 14.2865 9.4594 14.1232 9.58683 13.9858C9.71426 13.8484 9.86963 13.7402 10.0424 13.6684L21.7439 8.82983C21.9818 8.73116 22.2435 8.70544 22.4959 8.75591C22.7483 8.80637 22.9802 8.93078 23.1624 9.11343L32.7286 18.7229C32.8998 18.8948 33.0199 19.1112 33.0756 19.3477C33.1312 19.5843 33.1201 19.8318 33.0436 20.0624Z" stroke="url(#paint0_linear_441_257)" stroke-width="2" stroke-linecap="round" stroke-linejoin="round"/>
<path d="M34.6272 2.11723L39.7622 7.2743C40.1481 7.64507 40.4563 8.08951 40.6688 8.58155C40.8814 9.07359 40.9939 9.6033 40.9998 10.1396C41.0057 10.6759 40.9049 11.208 40.7032 11.7046C40.5016 12.2013 40.2032 12.6524 39.8256 13.0317C39.448 13.4109 38.9987 13.7106 38.5042 13.9131C38.0097 14.1156 37.4799 14.2169 36.9459 14.2109C36.4118 14.205 35.8844 14.092 35.3945 13.8786C34.9045 13.6651 34.462 13.3556 34.0928 12.968L28.9556 7.81095C28.231 7.05036 27.8318 6.03508 27.8434 4.98253C27.855 3.92997 28.2765 2.92381 29.0176 2.1795C29.7587 1.43518 30.7606 1.01188 31.8086 1.00025C32.8567 0.988609 33.8698 1.38956 34.6272 2.11723Z" fill="#4D2256" stroke="#4D2256" stroke-width="2" stroke-linecap="round" stroke-linejoin="round"/>
<path d="M20.2429 21.6066C19.9423 21.2941 19.5828 21.0448 19.1853 20.8733C18.7878 20.7018 18.3602 20.6116 17.9276 20.6078C17.4949 20.604 17.0659 20.6868 16.6655 20.8513C16.265 21.0159 15.9012 21.2588 15.5953 21.5661C15.2894 21.8733 15.0475 22.2387 14.8836 22.6408C14.7198 23.043 14.6374 23.4739 14.6411 23.9084C14.6449 24.3428 14.7348 24.7722 14.9055 25.1715C15.0763 25.5707 15.3245 25.9318 15.6357 26.2336C16.2502 26.8297 17.0733 27.1595 17.9276 27.152C18.7819 27.1446 19.5991 26.8005 20.2032 26.1938C20.8073 25.587 21.15 24.7663 21.1574 23.9084C21.1648 23.0504 20.8364 22.2238 20.2429 21.6066Z" stroke="#9E6CA0" stroke-width="2" stroke-linecap="round" stroke-linejoin="round"/>
<defs>
<linearGradient id="paint0_linear_441_257" x1="17.0552" y1="8.73071" x2="17.0552" y2="41.0001" gradientUnits="userSpaceOnUse">
<stop stop-color="#551A52"/>
<stop offset="1" stop-color="#E9ADE9"/>
</linearGradient>
</defs>
</svg>
