<svg width="66" height="66" viewBox="0 0 66 66" fill="none" xmlns="http://www.w3.org/2000/svg">
<path d="M33.0028 5.5C17.809 5.5 5.50275 17.8062 5.50275 33C5.49777 38.7731 7.31158 44.401 10.6866 49.0847C14.0617 53.7685 18.8265 57.2699 24.3045 59.092C25.6795 59.3313 26.1965 58.5062 26.1965 57.783C26.1965 57.1312 26.1607 54.967 26.1607 52.6625C19.2527 53.9357 17.4653 50.9795 16.9152 49.4313C16.6045 48.6393 15.2652 46.2 14.0965 45.5455C13.134 45.0312 11.759 43.758 14.0607 43.725C16.2277 43.6892 17.7732 45.7187 18.2902 46.5437C20.7652 50.7017 24.717 49.533 26.2982 48.8125C26.5402 47.025 27.2607 45.8232 28.0527 45.1357C21.934 44.4482 15.5402 42.075 15.5402 31.5563C15.5402 28.5643 16.6045 26.092 18.359 24.167C18.084 23.4795 17.1215 20.6608 18.634 16.8795C18.634 16.8795 20.9358 16.1563 26.1965 19.6955C28.4354 19.0758 30.7484 18.764 33.0715 18.7687C35.409 18.7687 37.7465 19.0768 39.9465 19.6955C45.2072 16.1205 47.509 16.8795 47.509 16.8795C49.0215 20.6608 48.059 23.4795 47.784 24.167C49.5357 26.092 50.6027 28.5313 50.6027 31.5563C50.6027 42.1108 44.176 44.4482 38.0572 45.1357C39.0527 45.9938 39.9135 47.6438 39.9135 50.2233C39.9135 53.9 39.8778 56.8563 39.8778 57.7858C39.8778 58.5063 40.3947 59.3643 41.7697 59.0892C47.2272 57.2443 51.9691 53.7353 55.3288 49.0556C58.6885 44.3759 60.497 38.7608 60.5 33C60.5 17.8062 48.1937 5.5 33 5.5" fill="url(#paint0_linear_441_207)"/>
<defs>
<linearGradient id="paint0_linear_441_207" x1="33.0014" y1="5.5" x2="33.0014" y2="59.1418" gradientUnits="userSpaceOnUse">
<stop stop-color="#4D2256"/>
<stop offset="1" stop-color="#E9ADE9"/>
</linearGradient>
</defs>
</svg>
