<svg width="66" height="66" viewBox="0 0 66 66" fill="none" xmlns="http://www.w3.org/2000/svg">
<path d="M47.5832 6.1875H18.4168C15.1734 6.1875 12.0628 7.47594 9.76936 9.76936C7.47594 12.0628 6.1875 15.1734 6.1875 18.4168V47.5832C6.1875 50.8266 7.47594 53.9372 9.76936 56.2306C12.0628 58.5241 15.1734 59.8125 18.4168 59.8125H47.5832C50.8266 59.8125 53.9372 58.5241 56.2306 56.2306C58.5241 53.9372 59.8125 50.8266 59.8125 47.5832V18.4168C59.8125 15.1734 58.5241 12.0628 56.2306 9.76936C53.9372 7.47594 50.8266 6.1875 47.5832 6.1875ZM24.3183 49.478C24.3269 49.6277 24.3048 49.7776 24.2534 49.9184C24.202 50.0592 24.1223 50.1881 24.0193 50.297C23.9163 50.406 23.7921 50.4927 23.6543 50.5519C23.5166 50.6111 23.3682 50.6415 23.2182 50.6413H18.3233C18.0281 50.6341 17.7475 50.5113 17.5418 50.2995C17.3361 50.0876 17.2217 49.8035 17.2233 49.5083V29.15C17.2192 29.003 17.2447 28.8567 17.2981 28.7198C17.3516 28.5828 17.432 28.4579 17.5345 28.3526C17.6371 28.2472 17.7597 28.1634 17.8952 28.1063C18.0307 28.0491 18.1762 28.0197 18.3233 28.0198H23.2182C23.3653 28.0197 23.5108 28.0491 23.6463 28.1063C23.7818 28.1634 23.9044 28.2472 24.007 28.3526C24.1095 28.4579 24.1899 28.5828 24.2434 28.7198C24.2968 28.8567 24.3223 29.003 24.3183 29.15V49.478ZM20.68 23.738C20.15 23.734 19.626 23.6257 19.1379 23.4192C18.6498 23.2128 18.2072 22.9122 17.8352 22.5346C17.4633 22.1571 17.1694 21.7099 16.9702 21.2188C16.7711 20.7276 16.6707 20.2021 16.6746 19.6721C16.6786 19.1422 16.7869 18.6182 16.9934 18.1301C17.1999 17.642 17.5005 17.1993 17.878 16.8274C18.2556 16.4554 18.7027 16.1615 19.1938 15.9624C19.685 15.7632 20.2105 15.6628 20.7405 15.6668C21.7924 15.701 22.7893 16.1449 23.5185 16.9039C24.2477 17.6628 24.6514 18.6767 24.6435 19.7291C24.6356 20.7816 24.2167 21.7893 23.4763 22.5372C22.7358 23.2851 21.7323 23.7141 20.68 23.7325M50.4267 49.445C50.4255 49.7229 50.3164 49.9894 50.1225 50.1884C49.9286 50.3874 49.665 50.5035 49.3872 50.512H44.22C43.9418 50.5034 43.6778 50.387 43.4838 50.1874C43.2899 49.9878 43.1811 49.7206 43.1805 49.4423V40.0263C43.1805 38.621 43.6095 33.913 39.4515 33.913C36.2092 33.913 35.5685 37.213 35.4447 38.6815V49.6567C35.4449 49.9356 35.3364 50.2035 35.1424 50.4037C34.9483 50.6039 34.6839 50.7207 34.4052 50.7293H29.392C29.108 50.7285 28.8359 50.6152 28.6354 50.4142C28.4349 50.2131 28.3222 49.9407 28.3222 49.6567V29.051C28.3308 28.7723 28.4476 28.5079 28.6478 28.3139C28.848 28.1198 29.1159 28.0114 29.3948 28.0115H34.4052C34.6841 28.0114 34.952 28.1198 35.1522 28.3139C35.3524 28.5079 35.4692 28.7723 35.4778 29.051V30.8247C36.2093 29.754 37.2194 28.9032 38.399 28.3643C39.5785 27.8254 40.8829 27.6188 42.1713 27.7668C50.5175 27.7668 50.4872 35.563 50.4872 39.996L50.4267 49.445Z" fill="url(#paint0_linear_441_206)"/>
<defs>
<linearGradient id="paint0_linear_441_206" x1="33" y1="6.1875" x2="33" y2="59.8125" gradientUnits="userSpaceOnUse">
<stop stop-color="#4D2256"/>
<stop offset="1" stop-color="#E9ADE9"/>
</linearGradient>
</defs>
</svg>
