<svg width="216" height="72" viewBox="0 0 216 72" fill="none" xmlns="http://www.w3.org/2000/svg">
<path d="M7.68 56.096C6.61333 56.096 5.80267 55.8613 5.248 55.392C4.736 54.9227 4.48 54.2827 4.48 53.472C4.48 52.704 4.71467 51.872 5.184 50.976C5.65333 50.08 6.31467 49.248 7.168 48.48C7.424 48.2667 7.63733 48.1387 7.808 48.096C7.936 48.096 8.04267 48.1387 8.128 48.224C8.17067 48.2667 8.192 48.352 8.192 48.48C8.192 48.7787 8 49.12 7.616 49.504C6.42133 50.7413 5.824 51.7867 5.824 52.64C5.824 53.1093 6.03733 53.536 6.464 53.92C6.89067 54.304 7.38133 54.4747 7.936 54.432C10.0693 54.3467 12.2667 53.8773 14.528 53.024C16.7893 52.1707 18.9013 50.9973 20.864 49.504C22.8267 47.968 24.448 46.2187 25.728 44.256C26.6667 42.8907 27.136 41.696 27.136 40.672C27.136 39.3493 26.2827 38.688 24.576 38.688C24.2773 38.688 23.936 38.7307 23.552 38.816C23.168 38.8587 22.7413 38.9227 22.272 39.008L19.072 39.712C16.4693 40.2667 14.1653 40.7573 12.16 41.184C10.1547 41.568 8.36267 41.76 6.784 41.76C4.94933 41.76 3.52 41.4827 2.496 40.928C1.51467 40.3307 1.024 39.328 1.024 37.92C1.024 37.28 1.152 36.512 1.408 35.616C2.26133 32.8 4.544 29.8133 8.256 26.656C10.7733 24.5227 13.5893 22.624 16.704 20.96C19.8187 19.2533 22.9547 17.9093 26.112 16.928C29.312 15.904 32.2987 15.392 35.072 15.392C37.2053 15.392 38.8907 15.8613 40.128 16.8C41.408 17.7387 42.048 19.0187 42.048 20.64C42.048 22.1333 41.5147 23.7333 40.448 25.44C40.1493 25.8667 39.8933 26.08 39.68 26.08C39.5947 26.08 39.5093 26.016 39.424 25.888C39.3387 25.7173 39.296 25.5467 39.296 25.376C39.296 25.3333 39.296 25.2693 39.296 25.184C39.3387 25.056 39.3813 24.9067 39.424 24.736C39.7653 23.712 39.936 22.7307 39.936 21.792C39.936 20.3413 39.424 19.2533 38.4 18.528C37.4187 17.8027 35.9893 17.5253 34.112 17.696C30.8267 18.0373 27.072 19.0827 22.848 20.832C19.9893 22.0267 17.28 23.4347 14.72 25.056C12.2027 26.6773 10.0267 28.4053 8.192 30.24C6.4 32.032 5.16267 33.8453 4.48 35.68C4.30933 36.0213 4.224 36.4267 4.224 36.896C4.224 38.6027 5.90933 39.456 9.28 39.456C10.9013 39.456 12.672 39.2853 14.592 38.944C16.5547 38.6027 18.816 38.176 21.376 37.664L23.616 37.216C24.384 37.088 25.1307 37.024 25.856 37.024C27.2213 37.024 28.3093 37.3013 29.12 37.856C29.9307 38.4107 30.336 39.1787 30.336 40.16C30.336 41.056 29.952 42.1227 29.184 43.36C28.4587 44.512 27.6053 45.6213 26.624 46.688C25.6427 47.712 24.5547 48.7147 23.36 49.696C20.928 51.6587 18.3253 53.216 15.552 54.368C12.7787 55.52 10.1547 56.096 7.68 56.096ZM41.764 53.728C41.6787 53.728 41.5933 53.7067 41.508 53.664C41.4227 53.664 41.3373 53.6427 41.252 53.6C40.6547 53.3013 40.2707 52.8747 40.1 52.32C39.9293 51.7653 39.8867 51.0613 39.972 50.208C40.0573 49.8667 40.1427 49.2693 40.228 48.416C40.356 47.5627 40.5053 46.88 40.676 46.368L37.412 49.504L35.62 51.232C34.3827 52.4693 33.3587 53.088 32.548 53.088C32.2067 53.088 31.9293 52.96 31.716 52.704C31.332 52.2347 31.14 51.6587 31.14 50.976C31.14 50.08 31.3747 49.12 31.844 48.096C32.3133 47.072 32.868 46.0907 33.508 45.152C34.148 44.1707 34.724 43.36 35.236 42.72C36.516 41.1413 37.7533 39.904 38.948 39.008C40.1853 38.112 41.4653 37.664 42.788 37.664C43.5133 37.664 44.2173 37.792 44.9 38.048C45.6253 38.304 46.2867 38.7307 46.884 39.328L46.948 39.392C46.948 39.52 46.8413 39.648 46.628 39.776C46.5427 39.8613 46.4573 39.9253 46.372 39.968C46.3293 40.0107 46.2867 40.0533 46.244 40.096C45.732 40.608 45.156 41.4613 44.516 42.656C43.876 43.8507 43.3213 45.1093 42.852 46.432C42.3827 47.712 42.148 48.8213 42.148 49.76C42.148 50.6133 42.3613 51.1893 42.788 51.488C43.0013 51.616 43.236 51.68 43.492 51.68C44.0467 51.68 44.8147 51.3387 45.796 50.656C45.8387 50.6133 45.924 50.5493 46.052 50.464C46.2227 50.336 46.4573 50.1653 46.756 49.952C47.0973 49.696 47.3747 49.568 47.588 49.568C47.8013 49.568 47.908 49.6533 47.908 49.824C47.908 50.08 47.7373 50.3787 47.396 50.72C47.14 50.9333 46.8413 51.168 46.5 51.424C46.2013 51.68 45.8387 51.936 45.412 52.192C44.772 52.6613 44.1107 53.024 43.428 53.28C42.7453 53.5787 42.1907 53.728 41.764 53.728ZM34.532 49.632C35.428 49.632 37.092 48.3093 39.524 45.664C40.164 44.9387 40.74 44.256 41.252 43.616C41.764 42.9333 42.2333 42.272 42.66 41.632C43.428 40.3947 43.684 39.5413 43.428 39.072C43.3 38.816 43.044 38.688 42.66 38.688C42.1907 38.688 41.5507 38.944 40.74 39.456C39.9293 39.9253 39.0973 40.544 38.244 41.312C37.4333 42.08 36.6867 42.848 36.004 43.616C35.5347 44.2133 35.0653 45.0453 34.596 46.112C34.1267 47.1787 33.892 48.0533 33.892 48.736C33.892 49.3333 34.1053 49.632 34.532 49.632ZM50.3395 53.344C49.7848 53.344 49.5075 52.8533 49.5075 51.872C49.5075 51.0613 49.6995 50.272 50.0835 49.504C51.0648 47.6267 51.9608 45.7707 52.7715 43.936C53.3262 42.8267 53.8382 41.76 54.3075 40.736C54.8195 39.712 55.2888 38.7733 55.7155 37.92C55.9715 37.664 56.2275 37.536 56.4835 37.536C57.0382 37.536 57.2088 37.792 56.9955 38.304C56.9102 38.6027 56.7822 38.9653 56.6115 39.392C56.4835 39.776 56.3128 40.2453 56.0995 40.8C55.4168 42.592 55.0115 43.8507 54.8835 44.576C56.0782 43.5093 57.2942 42.528 58.5315 41.632C59.8115 40.6933 61.0062 39.9253 62.1155 39.328C63.2248 38.7307 64.1635 38.432 64.9315 38.432C65.6142 38.432 65.9555 38.7093 65.9555 39.264C65.9555 39.7333 65.7422 40.2453 65.3155 40.8C64.8888 41.312 64.4622 41.568 64.0355 41.568C63.8222 41.568 63.6515 41.504 63.5235 41.376C63.3955 41.3333 63.1395 41.312 62.7555 41.312C61.3902 41.312 59.9608 41.9733 58.4675 43.296C56.8888 44.6187 55.4595 46.2187 54.1795 48.096C52.8995 49.9307 51.9608 51.5307 51.3635 52.896C51.0648 53.1947 50.7235 53.344 50.3395 53.344ZM73.0765 53.728C72.9912 53.728 72.9058 53.7067 72.8205 53.664C72.7352 53.664 72.6498 53.6427 72.5645 53.6C71.9672 53.3013 71.5832 52.8747 71.4125 52.32C71.2418 51.7653 71.1992 51.0613 71.2845 50.208C71.3698 49.8667 71.4552 49.2693 71.5405 48.416C71.6685 47.5627 71.8178 46.88 71.9885 46.368L68.7245 49.504L66.9325 51.232C65.6952 52.4693 64.6712 53.088 63.8605 53.088C63.5192 53.088 63.2418 52.96 63.0285 52.704C62.6445 52.2347 62.4525 51.6587 62.4525 50.976C62.4525 50.08 62.6872 49.12 63.1565 48.096C63.6258 47.072 64.1805 46.0907 64.8205 45.152C65.4605 44.1707 66.0365 43.36 66.5485 42.72C67.8285 41.1413 69.0658 39.904 70.2605 39.008C71.4978 38.112 72.7778 37.664 74.1005 37.664C74.8258 37.664 75.5298 37.792 76.2125 38.048C76.9378 38.304 77.5992 38.7307 78.1965 39.328L78.2605 39.392C78.2605 39.52 78.1538 39.648 77.9405 39.776C77.8552 39.8613 77.7698 39.9253 77.6845 39.968C77.6418 40.0107 77.5992 40.0533 77.5565 40.096C77.0445 40.608 76.4685 41.4613 75.8285 42.656C75.1885 43.8507 74.6338 45.1093 74.1645 46.432C73.6952 47.712 73.4605 48.8213 73.4605 49.76C73.4605 50.6133 73.6738 51.1893 74.1005 51.488C74.3138 51.616 74.5485 51.68 74.8045 51.68C75.3592 51.68 76.1272 51.3387 77.1085 50.656C77.1512 50.6133 77.2365 50.5493 77.3645 50.464C77.5352 50.336 77.7698 50.1653 78.0685 49.952C78.4098 49.696 78.6872 49.568 78.9005 49.568C79.1138 49.568 79.2205 49.6533 79.2205 49.824C79.2205 50.08 79.0498 50.3787 78.7085 50.72C78.4525 50.9333 78.1538 51.168 77.8125 51.424C77.5138 51.68 77.1512 51.936 76.7245 52.192C76.0845 52.6613 75.4232 53.024 74.7405 53.28C74.0578 53.5787 73.5032 53.728 73.0765 53.728ZM65.8445 49.632C66.7405 49.632 68.4045 48.3093 70.8365 45.664C71.4765 44.9387 72.0525 44.256 72.5645 43.616C73.0765 42.9333 73.5458 42.272 73.9725 41.632C74.7405 40.3947 74.9965 39.5413 74.7405 39.072C74.6125 38.816 74.3565 38.688 73.9725 38.688C73.5032 38.688 72.8632 38.944 72.0525 39.456C71.2418 39.9253 70.4098 40.544 69.5565 41.312C68.7458 42.08 67.9992 42.848 67.3165 43.616C66.8472 44.2133 66.3778 45.0453 65.9085 46.112C65.4392 47.1787 65.2045 48.0533 65.2045 48.736C65.2045 49.3333 65.4178 49.632 65.8445 49.632ZM81.204 55.776C80.308 55.776 79.924 55.328 80.052 54.432C80.308 52.8107 80.756 51.1893 81.396 49.568C81.7373 48.7147 82.164 47.7333 82.676 46.624C83.2307 45.5147 83.8707 44.2773 84.596 42.912C84.98 42.1867 85.3 41.5467 85.556 40.992C85.8547 40.4373 86.0893 39.9893 86.26 39.648C86.5587 39.0507 86.8573 38.4107 87.156 37.728C87.4973 37.0453 87.8387 36.2987 88.18 35.488C89.8013 31.9467 91.188 29.1733 92.34 27.168C93.5347 25.12 94.8147 23.6693 96.18 22.816C96.2653 22.7307 96.5 22.7307 96.884 22.816C97.268 22.8587 97.6307 22.944 97.972 23.072C98.356 23.2 98.5907 23.3493 98.676 23.52C98.804 23.8187 98.868 24.2453 98.868 24.8C98.868 26.5067 98.0787 28.5547 96.5 30.944C95.6467 32.224 94.5587 33.632 93.236 35.168C91.956 36.6613 90.4413 38.2827 88.692 40.032L87.54 41.888C86.26 43.936 85.2573 45.6853 84.532 47.136C83.8493 48.5867 83.5933 49.8667 83.764 50.976C83.8493 51.232 83.956 51.36 84.084 51.36C84.212 51.36 84.4253 51.2533 84.724 51.04C85.0227 50.8267 85.3213 50.5707 85.62 50.272C85.9613 49.9733 86.2813 49.6107 86.58 49.184C86.7933 48.9707 86.964 48.736 87.092 48.48C87.2627 48.224 87.4333 47.9893 87.604 47.776C87.86 47.3067 88.116 46.9227 88.372 46.624C89.1827 45.2587 89.8653 44.2987 90.42 43.744C91.3587 42.8053 92.1907 42.336 92.916 42.336C93.7693 42.336 94.516 42.8053 95.156 43.744C95.8387 44.64 96.564 45.9413 97.332 47.648C97.8867 48.928 98.3987 49.9093 98.868 50.592C99.3373 51.232 99.7853 51.552 100.212 51.552C100.639 51.552 101.129 51.296 101.684 50.784C102.196 50.3147 102.644 50.0587 103.028 50.016C103.284 50.3147 103.263 50.6987 102.964 51.168C102.665 51.5947 102.217 52 101.62 52.384C101.065 52.8107 100.511 53.152 99.956 53.408C99.4013 53.664 98.9747 53.7493 98.676 53.664C97.4813 53.3227 96.5427 52.7253 95.86 51.872C95.22 50.976 94.58 49.824 93.94 48.416C93.7267 47.9467 93.5347 47.5413 93.364 47.2C93.1933 46.816 93.0227 46.5173 92.852 46.304C92.5533 45.8773 92.148 45.664 91.636 45.664C91.252 45.664 90.804 45.856 90.292 46.24C89.78 46.6667 89.268 47.1787 88.756 47.776C88.244 48.3307 87.7533 49.0133 87.284 49.824C86.9853 50.2507 86.7507 50.592 86.58 50.848C86.452 51.0613 86.3453 51.2107 86.26 51.296C86.0467 51.5947 85.7053 52.0213 85.236 52.576C84.8093 53.1733 84.2973 53.8987 83.7 54.752C83.4867 55.008 83.1453 55.2427 82.676 55.456C82.2493 55.6693 81.8227 55.776 81.396 55.776H81.204ZM89.012 37.408C89.14 37.4933 89.46 37.3013 89.972 36.832C90.484 36.32 91.06 35.68 91.7 34.912C92.3827 34.1013 93.044 33.2693 93.684 32.416C94.3667 31.52 94.9 30.7307 95.284 30.048C96.6067 27.7867 97.268 26.2933 97.268 25.568C97.268 25.2693 97.1613 25.056 96.948 24.928C96.5213 24.5867 95.9453 24.7787 95.22 25.504C94.4947 26.1867 93.7693 27.104 93.044 28.256C92.3187 29.3653 91.7 30.4747 91.188 31.584C90.8893 32.2667 90.5693 33.0347 90.228 33.888C89.9293 34.7413 89.6733 35.5093 89.46 36.192C89.2467 36.832 89.0973 37.2373 89.012 37.408ZM116.742 61.6C114.48 61.6 112.731 60.9387 111.493 59.616C110.213 58.2933 109.573 56.5013 109.573 54.24C109.573 53.6853 109.616 53.152 109.701 52.64C109.744 52.128 109.808 51.6587 109.893 51.232C110.661 47.6053 112.603 43.4453 115.718 38.752C117.766 35.5947 120.048 32.736 122.566 30.176C125.126 27.616 127.75 25.568 130.438 24.032C133.168 22.496 135.792 21.728 138.31 21.728C139.76 21.728 140.827 22.1333 141.51 22.944C142.192 23.712 142.534 24.7573 142.534 26.08C142.534 27.616 142.15 29.3867 141.382 31.392C140.571 33.3973 139.568 35.296 138.374 37.088C137.222 38.8373 136.091 40.1173 134.982 40.928C134.811 41.0987 134.619 41.184 134.406 41.184C134.235 41.184 134.15 41.0773 134.15 40.864C134.15 40.3947 134.448 39.9253 135.046 39.456C135.6 39.072 136.198 38.4107 136.838 37.472C137.52 36.4907 138.16 35.4027 138.758 34.208C139.398 33.0133 139.91 31.8187 140.294 30.624C140.72 29.4293 140.934 28.4053 140.934 27.552C140.934 25.504 139.91 24.48 137.862 24.48C133.979 24.48 130.224 25.9733 126.598 28.96C124.166 30.9227 121.947 33.2267 119.942 35.872C117.979 38.4747 116.294 41.1413 114.886 43.872C113.52 46.6027 112.517 49.184 111.877 51.616C111.621 52.5547 111.493 53.4933 111.493 54.432C111.493 56.2667 112.027 57.7173 113.093 58.784C114.117 59.8507 115.526 60.2987 117.318 60.128C120.603 59.8293 124.23 58.528 128.198 56.224C130.8 54.688 133.318 52.96 135.75 51.04C138.182 49.12 140.443 47.1147 142.534 45.024C144.624 42.8907 146.438 40.8427 147.974 38.88L144.902 39.328C143.963 39.456 143.174 39.6053 142.534 39.776C141.936 39.904 141.531 40.0107 141.318 40.096C141.232 40.1387 141.126 40.16 140.998 40.16C140.742 40.16 140.614 39.968 140.614 39.584C140.614 39.2 140.742 38.752 140.998 38.24C141.296 37.728 141.616 37.3867 141.958 37.216C143.11 36.6187 145.862 36.1707 150.214 35.872C152.091 33.7387 154.032 31.6053 156.038 29.472C158.171 27.168 159.963 25.2053 161.414 23.584C162.864 21.9627 164.144 20.4693 165.254 19.104C166.406 17.696 167.515 16.2453 168.582 14.752C168.923 14.2827 169.264 14.048 169.606 14.048C169.862 14.048 169.99 14.176 169.99 14.432C169.99 14.688 169.904 14.9013 169.734 15.072C168.283 17.12 166.768 19.1253 165.19 21.088C163.611 23.0507 161.862 25.1413 159.942 27.36C158.064 29.536 155.931 32.0107 153.542 34.784L152.71 35.744L155.654 35.616L161.286 35.424C161.243 35.5093 161.435 35.1253 161.862 34.272C162.288 33.376 162.928 32.0107 163.782 30.176C164.976 27.7013 166.022 25.504 166.918 23.584C167.856 21.6213 168.624 19.936 169.222 18.528C170.459 15.7547 171.099 13.8347 171.142 12.768C171.184 12.2133 171.462 11.7867 171.974 11.488C172.486 11.1893 173.062 11.04 173.702 11.04C174.171 11.04 174.598 11.1253 174.982 11.296C175.408 11.424 175.664 11.5947 175.75 11.808C175.963 12.192 175.643 13.216 174.79 14.88C174.235 16.032 173.552 17.3547 172.742 18.848C171.931 20.3413 171.014 22.0053 169.99 23.84C168.582 26.3573 167.366 28.576 166.342 30.496C165.36 32.416 164.571 34.0373 163.974 35.36L168.902 35.104H169.094C169.478 35.104 169.67 35.232 169.67 35.488C169.67 35.6587 169.563 35.8293 169.35 36C169.136 36.1707 168.859 36.2773 168.518 36.32L163.334 36.704C163.291 36.7893 163.056 37.3013 162.63 38.24C162.203 39.1787 161.584 40.5227 160.774 42.272C159.152 45.856 158.342 48.9067 158.342 51.424C158.342 53.1307 158.982 53.984 160.262 53.984C160.603 53.984 161.051 53.8133 161.606 53.472C162.203 53.1733 162.758 52.8107 163.27 52.384C163.824 51.9573 164.23 51.5733 164.486 51.232C164.784 50.8053 165.083 50.592 165.382 50.592C165.552 50.592 165.638 50.6773 165.638 50.848C165.638 51.0613 165.467 51.3387 165.126 51.68C164.699 52.1493 164.144 52.6827 163.462 53.28C162.779 53.8773 162.096 54.3893 161.414 54.816C160.731 55.2427 160.155 55.4773 159.686 55.52C156.955 55.6907 155.59 54.4533 155.59 51.808C155.59 50.2293 155.974 48.416 156.742 46.368C157.552 44.32 158.555 41.9307 159.75 39.2L160.774 36.896C159.323 37.024 157.339 37.344 154.822 37.856C153.926 38.0267 153.115 38.176 152.39 38.304C151.707 38.3893 151.131 38.4747 150.662 38.56C148.144 41.4187 145.435 44.2133 142.534 46.944C139.632 49.6747 136.667 52.1493 133.638 54.368C130.651 56.5867 127.707 58.336 124.806 59.616C121.947 60.9387 119.259 61.6 116.742 61.6ZM166.782 56.224C166.312 56.224 165.907 56.0747 165.566 55.776C165.267 55.4773 165.139 55.1147 165.181 54.688C165.267 52.9387 165.587 51.2533 166.142 49.632C166.739 48.0107 167.592 46.0693 168.702 43.808C168.83 43.5093 168.936 43.2533 169.022 43.04C169.15 42.784 169.256 42.5707 169.342 42.4C170.28 40.3947 171.24 38.4747 172.222 36.64C173.203 34.8053 174.184 33.0133 175.166 31.264L176.062 29.664C177.086 27.8293 177.982 26.3573 178.75 25.248C179.518 24.096 180.286 23.264 181.054 22.752C182.035 22.1547 182.632 21.856 182.846 21.856C183.187 21.856 183.528 22.1547 183.87 22.752C184.083 23.1787 183.656 24.224 182.59 25.888C182.035 26.7413 181.331 27.808 180.478 29.088C179.667 30.368 178.686 31.8187 177.534 33.44C177.32 33.7387 176.958 34.272 176.446 35.04C175.976 35.7653 175.336 36.7253 174.526 37.92C173.715 39.1147 173.011 40.2027 172.414 41.184C171.816 42.1227 171.326 42.9547 170.942 43.68C170.174 45.088 169.448 46.6027 168.766 48.224C168.083 49.8027 167.742 51.04 167.742 51.936C167.742 52.7467 168.062 53.152 168.702 53.152C169.726 53.152 171.368 52.2773 173.63 50.528C173.886 50.5707 174.014 50.6987 174.014 50.912C174.014 51.0827 173.8 51.3813 173.374 51.808C172.99 52.192 172.499 52.5973 171.902 53.024C171.347 53.4933 170.686 54.0267 169.918 54.624L168.894 55.392C168.211 55.9467 167.507 56.224 166.782 56.224ZM177.809 54.304C176.87 54.304 176.486 53.152 176.657 50.848C176.742 50.336 176.913 49.5253 177.169 48.416C177.467 47.3067 177.83 46.0907 178.257 44.768C178.683 43.4027 179.089 42.1867 179.473 41.12C179.729 40.3947 180.177 39.712 180.817 39.072C181.499 38.432 182.054 38.112 182.481 38.112C182.737 38.112 182.865 38.2827 182.865 38.624C182.865 39.0933 182.609 39.8187 182.097 40.8C181.457 41.9947 180.945 43.0187 180.561 43.872C180.177 44.6827 179.857 45.5147 179.601 46.368C179.387 47.1787 179.153 48.1813 178.897 49.376V49.952C178.897 51.3173 179.195 51.744 179.793 51.232C180.902 50.336 182.054 49.2907 183.249 48.096C184.443 46.8587 185.574 45.6213 186.641 44.384C187.707 43.1467 188.561 42.0587 189.201 41.12C189.627 40.4373 190.118 39.9253 190.673 39.584C191.27 39.2 191.526 39.136 191.441 39.392C191.398 39.776 191.035 40.48 190.353 41.504C189.713 42.528 188.902 43.68 187.921 44.96C186.982 46.1973 186.001 47.392 184.977 48.544C183.995 49.696 183.121 50.592 182.353 51.232C182.054 51.5307 181.606 51.9147 181.009 52.384C180.454 52.896 179.878 53.344 179.281 53.728C178.683 54.112 178.193 54.304 177.809 54.304ZM193.8 52.704C192.904 52.704 192.115 52.4693 191.432 52C190.323 51.1467 189.768 49.8667 189.768 48.16C189.768 46.4533 190.365 44.64 191.56 42.72C192.755 40.8 194.568 39.0293 197 37.408C197.427 37.1093 198.003 36.96 198.728 36.96C199.667 36.96 200.499 37.216 201.224 37.728C201.992 38.24 202.291 38.9013 202.12 39.712C201.821 41.0347 201.16 42.208 200.136 43.232C199.155 44.256 197.981 45.1733 196.616 45.984C195.293 46.752 193.928 47.4987 192.52 48.224C192.477 48.352 192.435 48.48 192.392 48.608C192.392 48.736 192.392 48.864 192.392 48.992C192.392 49.5893 192.584 50.1227 192.968 50.592C193.395 51.0187 193.971 51.232 194.696 51.232C195.251 51.232 195.72 51.1467 196.104 50.976C196.787 50.72 197.341 50.4853 197.768 50.272C198.237 50.0587 198.771 49.7387 199.368 49.312C199.965 48.8853 200.776 48.2453 201.8 47.392C202.269 47.0507 202.547 46.88 202.632 46.88C202.888 46.88 202.973 47.072 202.888 47.456C202.461 48.1387 201.715 48.8853 200.648 49.696C199.624 50.5067 198.472 51.2107 197.192 51.808C195.955 52.4053 194.824 52.704 193.8 52.704ZM192.904 46.496C193.245 46.496 193.949 46.1547 195.016 45.472C196.083 44.7893 197.085 44.0427 198.024 43.232C199.645 41.7387 200.456 40.5867 200.456 39.776C200.456 39.5627 200.392 39.3707 200.264 39.2C200.136 38.9867 199.944 38.88 199.688 38.88C198.877 38.88 197.512 39.84 195.592 41.76C194.269 43.04 193.373 44.6187 192.904 46.496ZM201.175 54.688C200.493 54.688 199.895 54.624 199.383 54.496C198.914 54.368 198.679 54.1973 198.679 53.984C198.679 53.6427 199.021 53.4507 199.703 53.408C200.343 53.3653 200.77 53.3013 200.983 53.216C201.367 53.1307 201.816 53.0667 202.328 53.024C202.797 52.9387 203.181 52.8747 203.48 52.832C205.528 52.2347 206.552 51.3173 206.552 50.08C206.552 49.2267 206.104 48.1387 205.208 46.816C204.653 46.0053 204.376 45.1093 204.376 44.128C204.376 42.9333 204.738 41.76 205.464 40.608C206.232 39.456 207.17 38.4533 208.28 37.6C209.432 36.704 210.584 36.1067 211.736 35.808C212.248 35.68 212.781 35.616 213.336 35.616C214.232 35.616 214.872 35.8293 215.256 36.256C215.512 36.512 215.64 37.0667 215.64 37.92C215.64 38.56 215.533 39.2213 215.32 39.904C215.106 40.544 214.808 41.0773 214.424 41.504C214.21 41.7173 214.04 41.824 213.912 41.824C213.698 41.824 213.592 41.5253 213.592 40.928L213.656 39.648C213.698 39.3067 213.72 39.008 213.72 38.752C213.762 38.496 213.784 38.2827 213.784 38.112C213.784 37.3867 213.634 36.96 213.336 36.832C212.994 36.7467 212.76 36.704 212.632 36.704C211.736 36.704 210.776 37.1093 209.752 37.92C208.728 38.7307 207.896 39.6693 207.256 40.736C207 41.12 206.872 41.5893 206.872 42.144C206.872 42.8267 207.042 43.6373 207.384 44.576C207.768 45.472 208.045 46.1333 208.216 46.56C208.642 47.4987 208.962 48.3093 209.176 48.992C209.432 49.6747 209.56 50.272 209.56 50.784C209.56 51.04 209.538 51.232 209.496 51.36C209.709 51.2747 210.221 51.1467 211.032 50.976C211.757 50.8053 212.376 50.72 212.888 50.72C213.186 50.72 213.336 50.784 213.336 50.912C213.336 50.9547 213.208 51.104 212.952 51.36C212.824 51.488 212.418 51.7013 211.736 52C211.096 52.256 210.328 52.5333 209.432 52.832C208.578 53.1307 207.725 53.408 206.872 53.664C206.018 53.92 205.293 54.112 204.696 54.24C203.672 54.5387 202.498 54.688 201.175 54.688Z" fill="white"/>
</svg>
