<svg width="93" height="93" viewBox="0 0 93 93" fill="none" xmlns="http://www.w3.org/2000/svg">
<path d="M69.685 69.4001C82.4087 56.519 82.2812 35.7622 69.4001 23.0384C56.519 10.3147 35.7621 10.4422 23.0384 23.3233C10.3146 36.2044 10.4422 56.9612 23.3233 69.685C36.2044 82.4088 56.9612 82.2812 69.685 69.4001Z" stroke="url(#paint0_linear_370_54)" stroke-width="5" stroke-linecap="round" stroke-linejoin="round"/>
<path d="M46.4432 23.2692C47.2611 23.2692 47.9506 23.6304 48.5116 24.3531L63.3505 43.4723C63.9116 44.2344 64.1932 45.1237 64.1932 46.1403C64.1932 47.1373 63.9117 48.0167 63.3505 48.7789L61.6415 50.9821C61.0652 51.7244 60.3757 52.0944 59.5731 52.0944C58.7554 52.0943 58.074 51.7242 57.5282 50.9821L50.826 42.3766L50.8124 42.358V63.0573C50.8124 64.0739 50.5272 64.8992 49.9589 65.5338C49.3904 66.1685 48.7052 66.4859 47.9022 66.486H44.9843C44.1812 66.486 43.4951 66.1686 42.9266 65.5338C42.3585 64.8992 42.0741 64.0737 42.0741 63.0573V42.358L42.0604 42.3766L35.3583 50.9821C34.8126 51.7242 34.1309 52.0942 33.3134 52.0944C32.4956 52.0944 31.8133 51.7244 31.2675 50.9821L29.5575 48.7789C28.9813 48.0364 28.6932 47.1567 28.6932 46.1403C28.6933 45.1042 28.9812 44.2148 29.5575 43.4723L44.3973 24.3531C44.9279 23.6305 45.6101 23.2692 46.4432 23.2692Z" fill="url(#paint1_linear_370_54)" stroke="url(#paint2_linear_370_54)" stroke-width="0.015625"/>
<defs>
<linearGradient id="paint0_linear_370_54" x1="69.4001" y1="23.0384" x2="23.3233" y2="69.685" gradientUnits="userSpaceOnUse">
<stop stop-color="#4D2256"/>
<stop offset="1" stop-color="#E9ADE9"/>
</linearGradient>
<linearGradient id="paint1_linear_370_54" x1="46.443" y1="23.2614" x2="46.443" y2="66.4938" gradientUnits="userSpaceOnUse">
<stop stop-color="#543364"/>
<stop offset="1" stop-color="#A966CA"/>
</linearGradient>
<linearGradient id="paint2_linear_370_54" x1="64.2006" y1="44.8776" x2="28.6854" y2="44.8776" gradientUnits="userSpaceOnUse">
<stop stop-color="#4D2256"/>
<stop offset="1" stop-color="#E9ADE9"/>
</linearGradient>
</defs>
</svg>
