<svg width="42" height="42" viewBox="0 0 42 42" fill="none" xmlns="http://www.w3.org/2000/svg">
<path d="M1 21C1 26.3043 3.10714 31.3914 6.85786 35.1421C10.6086 38.8929 15.6957 41 21 41C26.3043 41 31.3914 38.8929 35.1421 35.1421C38.8929 31.3914 41 26.3043 41 21C41 15.6957 38.8929 10.6086 35.1421 6.85786C31.3914 3.10714 26.3043 1 21 1C15.6957 1 10.6086 3.10714 6.85786 6.85786C3.10714 10.6086 1 15.6957 1 21Z" stroke="url(#paint0_linear_441_253)" stroke-width="2" stroke-linejoin="round"/>
<path d="M12.4286 21C12.4286 15.6957 13.3316 10.6086 14.9391 6.85786C16.5466 3.10714 18.7267 1 21 1C23.2733 1 25.4535 3.10714 27.0609 6.85786C28.6684 10.6086 29.5714 15.6957 29.5714 21C29.5714 26.3043 28.6684 31.3914 27.0609 35.1421C25.4535 38.8929 23.2733 41 21 41C18.7267 41 16.5466 38.8929 14.9391 35.1421C13.3316 31.3914 12.4286 26.3043 12.4286 21Z" stroke="url(#paint1_linear_441_253)" stroke-width="2" stroke-linejoin="round"/>
<path d="M2.42859 27.6666H39.5714M2.42859 14.3333H39.5714" stroke="url(#paint2_linear_441_253)" stroke-width="2" stroke-linecap="round"/>
<defs>
<linearGradient id="paint0_linear_441_253" x1="21" y1="1" x2="21" y2="41" gradientUnits="userSpaceOnUse">
<stop stop-color="#572B60"/>
<stop offset="1" stop-color="#CE95D0"/>
</linearGradient>
<linearGradient id="paint1_linear_441_253" x1="21" y1="1" x2="21" y2="41" gradientUnits="userSpaceOnUse">
<stop stop-color="#572B60"/>
<stop offset="1" stop-color="#CE95D0"/>
</linearGradient>
<linearGradient id="paint2_linear_441_253" x1="21" y1="14.3333" x2="21" y2="27.6666" gradientUnits="userSpaceOnUse">
<stop stop-color="#572B60"/>
<stop offset="1" stop-color="#CE95D0"/>
</linearGradient>
</defs>
</svg>
