<svg width="200" height="60" viewBox="0 0 200 60" fill="none" xmlns="http://www.w3.org/2000/svg">
<rect x="1" y="1" width="198" height="58" rx="24" stroke="url(#paint0_linear_74_12)" stroke-width="2"/>
<circle cx="27" cy="30" r="4.75" fill="url(#paint1_linear_74_12)" stroke="#1FDA38" stroke-width="0.5"/>
<path d="M58.92 22.98C60.08 22.98 61.0933 23.26 61.96 23.82C62.84 24.3667 63.52 25.1733 64 26.24C64.4933 27.3067 64.74 28.6 64.74 30.12C64.74 31.6133 64.4933 32.8933 64 33.96C63.52 35.0267 62.84 35.84 61.96 36.4C61.0933 36.96 60.08 37.24 58.92 37.24C57.76 37.24 56.74 36.9667 55.86 36.42C54.9933 35.8733 54.3133 35.0667 53.82 34C53.34 32.9333 53.1 31.6467 53.1 30.14C53.1 28.66 53.34 27.38 53.82 26.3C54.3133 25.22 55 24.4 55.88 23.84C56.76 23.2667 57.7733 22.98 58.92 22.98ZM58.92 24.54C57.72 24.54 56.7867 24.9933 56.12 25.9C55.4533 26.8067 55.12 28.22 55.12 30.14C55.12 32.0467 55.4533 33.4467 56.12 34.34C56.8 35.2333 57.7333 35.68 58.92 35.68C61.4533 35.68 62.72 33.8267 62.72 30.12C62.72 26.4 61.4533 24.54 58.92 24.54ZM72.5877 26.22C73.9343 26.22 74.921 26.7 75.5477 27.66C76.1743 28.62 76.4877 29.9733 76.4877 31.72C76.4877 33.3733 76.1277 34.7067 75.4077 35.72C74.6877 36.7333 73.6677 37.24 72.3477 37.24C71.1743 37.24 70.2543 36.84 69.5877 36.04V41.04L67.7477 41.26V26.46H69.3277L69.4677 27.88C69.8543 27.3467 70.321 26.94 70.8677 26.66C71.4143 26.3667 71.9877 26.22 72.5877 26.22ZM71.9077 35.74C73.641 35.74 74.5077 34.4 74.5077 31.72C74.5077 29.0267 73.7143 27.68 72.1277 27.68C71.6077 27.68 71.1343 27.8333 70.7077 28.14C70.281 28.4467 69.9077 28.84 69.5877 29.32V34.46C69.8543 34.8733 70.1877 35.1933 70.5877 35.42C70.9877 35.6333 71.4277 35.74 71.9077 35.74ZM87.5827 31.42C87.5827 31.7267 87.5693 32.04 87.5427 32.36H80.8227C80.9027 33.52 81.196 34.3733 81.7027 34.92C82.2093 35.4667 82.8627 35.74 83.6627 35.74C84.1693 35.74 84.636 35.6667 85.0627 35.52C85.4893 35.3733 85.936 35.14 86.4027 34.82L87.2027 35.92C86.0827 36.8 84.856 37.24 83.5227 37.24C82.056 37.24 80.9093 36.76 80.0827 35.8C79.2693 34.84 78.8627 33.52 78.8627 31.84C78.8627 30.7467 79.036 29.78 79.3827 28.94C79.7427 28.0867 80.2493 27.42 80.9027 26.94C81.5693 26.46 82.3493 26.22 83.2427 26.22C84.6427 26.22 85.716 26.68 86.4627 27.6C87.2093 28.52 87.5827 29.7933 87.5827 31.42ZM85.7627 30.88C85.7627 29.84 85.556 29.0467 85.1427 28.5C84.7293 27.9533 84.1093 27.68 83.2827 27.68C81.776 27.68 80.956 28.7867 80.8227 31H85.7627V30.88ZM95.4811 26.22C96.4411 26.22 97.1878 26.5067 97.7211 27.08C98.2678 27.6533 98.5411 28.44 98.5411 29.44V37H96.7011V29.7C96.7011 28.9533 96.5611 28.4267 96.2811 28.12C96.0011 27.8133 95.5878 27.66 95.0411 27.66C94.4811 27.66 93.9878 27.82 93.5611 28.14C93.1344 28.46 92.7344 28.92 92.3611 29.52V37H90.5211V26.46H92.1011L92.2611 28.02C92.6344 27.46 93.0944 27.02 93.6411 26.7C94.2011 26.38 94.8144 26.22 95.4811 26.22ZM115.773 23.22L115.573 24.84H111.753V37H109.853V24.84H105.933V23.22H115.773ZM120.731 26.22C122.211 26.22 123.358 26.7133 124.171 27.7C124.998 28.6867 125.411 30.0267 125.411 31.72C125.411 32.8133 125.224 33.78 124.851 34.62C124.478 35.4467 123.938 36.0933 123.231 36.56C122.524 37.0133 121.684 37.24 120.711 37.24C119.231 37.24 118.078 36.7467 117.251 35.76C116.424 34.7733 116.011 33.4333 116.011 31.74C116.011 30.6467 116.198 29.6867 116.571 28.86C116.944 28.02 117.484 27.3733 118.191 26.92C118.898 26.4533 119.744 26.22 120.731 26.22ZM120.731 27.7C118.904 27.7 117.991 29.0467 117.991 31.74C117.991 34.42 118.898 35.76 120.711 35.76C122.524 35.76 123.431 34.4133 123.431 31.72C123.431 29.04 122.531 27.7 120.731 27.7ZM147.864 23.22L145.064 37H142.624L140.084 25.46L137.524 37H135.144L132.344 23.22H134.204L136.424 35.34L139.084 23.22H141.104L143.824 35.34L146.124 23.22H147.864ZM154.032 26.22C155.512 26.22 156.659 26.7133 157.472 27.7C158.299 28.6867 158.712 30.0267 158.712 31.72C158.712 32.8133 158.525 33.78 158.152 34.62C157.779 35.4467 157.239 36.0933 156.532 36.56C155.825 37.0133 154.985 37.24 154.012 37.24C152.532 37.24 151.379 36.7467 150.552 35.76C149.725 34.7733 149.312 33.4333 149.312 31.74C149.312 30.6467 149.499 29.6867 149.872 28.86C150.245 28.02 150.785 27.3733 151.492 26.92C152.199 26.4533 153.045 26.22 154.032 26.22ZM154.032 27.7C152.205 27.7 151.292 29.0467 151.292 31.74C151.292 34.42 152.199 35.76 154.012 35.76C155.825 35.76 156.732 34.4133 156.732 31.72C156.732 29.04 155.832 27.7 154.032 27.7ZM166.332 26.22C166.705 26.22 167.052 26.26 167.372 26.34L167.032 28.14C166.712 28.06 166.405 28.02 166.112 28.02C165.458 28.02 164.932 28.26 164.532 28.74C164.132 29.22 163.818 29.9667 163.592 30.98V37H161.752V26.46H163.332L163.512 28.6C163.792 27.8133 164.172 27.22 164.652 26.82C165.132 26.42 165.692 26.22 166.332 26.22ZM171.306 22V37H169.466V22.22L171.306 22ZM177.366 26.46L173.486 31.12L177.806 37H175.606L171.426 31.24L175.306 26.46H177.366Z" fill="#DBE6E7"/>
<defs>
<linearGradient id="paint0_linear_74_12" x1="0" y1="30" x2="200" y2="30" gradientUnits="userSpaceOnUse">
<stop stop-color="#00520B"/>
<stop offset="1" stop-color="#1FDA38"/>
</linearGradient>
<linearGradient id="paint1_linear_74_12" x1="23.5117" y1="25" x2="30.4883" y2="35" gradientUnits="userSpaceOnUse">
<stop offset="0.225308" stop-color="#00520B"/>
<stop offset="1" stop-color="#1FDA38"/>
</linearGradient>
</defs>
</svg>
