<svg width="251" height="31" viewBox="0 0 251 31" fill="none" xmlns="http://www.w3.org/2000/svg">
<path d="M11.7767 30.28C9.72339 30.28 7.88339 29.9467 6.25672 29.28C4.63005 28.6133 3.32339 27.6267 2.33672 26.32C1.37672 25.0133 0.870052 23.44 0.816719 21.6H8.09672C8.20339 22.64 8.56339 23.44 9.17672 24C9.79005 24.5333 10.5901 24.8 11.5767 24.8C12.5901 24.8 13.3901 24.5733 13.9767 24.12C14.5634 23.64 14.8567 22.9867 14.8567 22.16C14.8567 21.4667 14.6167 20.8933 14.1367 20.44C13.6834 19.9867 13.1101 19.6133 12.4167 19.32C11.7501 19.0267 10.7901 18.6933 9.53672 18.32C7.72339 17.76 6.24339 17.2 5.09672 16.64C3.95005 16.08 2.96339 15.2533 2.13672 14.16C1.31005 13.0667 0.896719 11.64 0.896719 9.88C0.896719 7.26667 1.84339 5.22667 3.73672 3.76C5.63005 2.26667 8.09672 1.52 11.1367 1.52C14.2301 1.52 16.7234 2.26667 18.6167 3.76C20.5101 5.22667 21.5234 7.28 21.6567 9.92H14.2567C14.2034 9.01333 13.8701 8.30667 13.2567 7.8C12.6434 7.26667 11.8567 7 10.8967 7C10.0701 7 9.40339 7.22667 8.89672 7.68C8.39005 8.10666 8.13672 8.73333 8.13672 9.56C8.13672 10.4667 8.56339 11.1733 9.41672 11.68C10.2701 12.1867 11.6034 12.7333 13.4167 13.32C15.2301 13.9333 16.6967 14.52 17.8167 15.08C18.9634 15.64 19.9501 16.4533 20.7767 17.52C21.6034 18.5867 22.0167 19.96 22.0167 21.64C22.0167 23.24 21.6034 24.6933 20.7767 26C19.9767 27.3067 18.8034 28.3467 17.2567 29.12C15.7101 29.8933 13.8834 30.28 11.7767 30.28ZM25.6661 18.8C25.6661 16.5067 26.0928 14.4933 26.9461 12.76C27.8261 11.0267 29.0128 9.69333 30.5061 8.76C31.9994 7.82667 33.6661 7.36 35.5061 7.36C37.0794 7.36 38.4528 7.68 39.6261 8.32C40.8261 8.96 41.7461 9.8 42.3861 10.84V7.68H49.2261V30H42.3861V26.84C41.7194 27.88 40.7861 28.72 39.5861 29.36C38.4128 30 37.0394 30.32 35.4661 30.32C33.6528 30.32 31.9994 29.8533 30.5061 28.92C29.0128 27.96 27.8261 26.6133 26.9461 24.88C26.0928 23.12 25.6661 21.0933 25.6661 18.8ZM42.3861 18.84C42.3861 17.1333 41.9061 15.7867 40.9461 14.8C40.0128 13.8133 38.8661 13.32 37.5061 13.32C36.1461 13.32 34.9861 13.8133 34.0261 14.8C33.0928 15.76 32.6261 17.0933 32.6261 18.8C32.6261 20.5067 33.0928 21.8667 34.0261 22.88C34.9861 23.8667 36.1461 24.36 37.5061 24.36C38.8661 24.36 40.0128 23.8667 40.9461 22.88C41.9061 21.8933 42.3861 20.5467 42.3861 18.84ZM61.8145 11.4C62.6145 10.1733 63.6145 9.21333 64.8145 8.52C66.0145 7.8 67.3479 7.44 68.8145 7.44V14.68H66.9345C65.2279 14.68 63.9479 15.0533 63.0945 15.8C62.2412 16.52 61.8145 17.8 61.8145 19.64V30H54.9745V7.68H61.8145V11.4ZM71.5239 18.8C71.5239 16.5067 71.9506 14.4933 72.8039 12.76C73.6839 11.0267 74.8706 9.69333 76.3639 8.76C77.8572 7.82667 79.5239 7.36 81.3639 7.36C82.9372 7.36 84.3106 7.68 85.4839 8.32C86.6839 8.96 87.6039 9.8 88.2439 10.84V7.68H95.0839V30H88.2439V26.84C87.5772 27.88 86.6439 28.72 85.4439 29.36C84.2706 30 82.8972 30.32 81.3239 30.32C79.5106 30.32 77.8572 29.8533 76.3639 28.92C74.8706 27.96 73.6839 26.6133 72.8039 24.88C71.9506 23.12 71.5239 21.0933 71.5239 18.8ZM88.2439 18.84C88.2439 17.1333 87.7639 15.7867 86.8039 14.8C85.8706 13.8133 84.7239 13.32 83.3639 13.32C82.0039 13.32 80.8439 13.8133 79.8839 14.8C78.9506 15.76 78.4839 17.0933 78.4839 18.8C78.4839 20.5067 78.9506 21.8667 79.8839 22.88C80.8439 23.8667 82.0039 24.36 83.3639 24.36C84.7239 24.36 85.8706 23.8667 86.8039 22.88C87.7639 21.8933 88.2439 20.5467 88.2439 18.84ZM114.552 7.44C117.112 7.44 119.166 8.29333 120.712 10C122.259 11.68 123.032 14 123.032 16.96V30H116.232V17.88C116.232 16.3867 115.846 15.2267 115.072 14.4C114.299 13.5733 113.259 13.16 111.952 13.16C110.646 13.16 109.606 13.5733 108.832 14.4C108.059 15.2267 107.672 16.3867 107.672 17.88V30H100.832V0.4H107.672V10.68C108.366 9.69333 109.312 8.90666 110.512 8.32C111.712 7.73333 113.059 7.44 114.552 7.44ZM155.342 25.04H144.862L143.182 30H136.022L146.182 1.92H154.102L164.262 30H157.022L155.342 25.04ZM153.582 19.76L150.102 9.48L146.662 19.76H153.582ZM174.994 0.4V30H168.154V0.4H174.994ZM190.791 23.6L195.631 7.68H202.911L194.991 30H186.551L178.631 7.68H185.951L190.791 23.6ZM227.63 18.48C227.63 19.12 227.59 19.7867 227.51 20.48H212.03C212.137 21.8667 212.577 22.9333 213.35 23.68C214.15 24.4 215.123 24.76 216.27 24.76C217.977 24.76 219.163 24.04 219.83 22.6H227.11C226.737 24.0667 226.057 25.3867 225.07 26.56C224.11 27.7333 222.897 28.6533 221.43 29.32C219.963 29.9867 218.323 30.32 216.51 30.32C214.323 30.32 212.377 29.8533 210.67 28.92C208.963 27.9867 207.63 26.6533 206.67 24.92C205.71 23.1867 205.23 21.16 205.23 18.84C205.23 16.52 205.697 14.4933 206.63 12.76C207.59 11.0267 208.923 9.69333 210.63 8.76C212.337 7.82667 214.297 7.36 216.51 7.36C218.67 7.36 220.59 7.81333 222.27 8.72C223.95 9.62667 225.257 10.92 226.19 12.6C227.15 14.28 227.63 16.24 227.63 18.48ZM220.63 16.68C220.63 15.5067 220.23 14.5733 219.43 13.88C218.63 13.1867 217.63 12.84 216.43 12.84C215.283 12.84 214.31 13.1733 213.51 13.84C212.737 14.5067 212.257 15.4533 212.07 16.68H220.63ZM241.119 30.32C239.172 30.32 237.439 29.9867 235.919 29.32C234.399 28.6533 233.199 27.7467 232.319 26.6C231.439 25.4267 230.945 24.12 230.839 22.68H237.599C237.679 23.4533 238.039 24.08 238.679 24.56C239.319 25.04 240.105 25.28 241.039 25.28C241.892 25.28 242.545 25.12 242.999 24.8C243.479 24.4533 243.719 24.0133 243.719 23.48C243.719 22.84 243.385 22.3733 242.719 22.08C242.052 21.76 240.972 21.4133 239.479 21.04C237.879 20.6667 236.545 20.28 235.479 19.88C234.412 19.4533 233.492 18.8 232.719 17.92C231.945 17.0133 231.559 15.8 231.559 14.28C231.559 13 231.905 11.84 232.599 10.8C233.319 9.73333 234.359 8.89333 235.719 8.28C237.105 7.66666 238.745 7.36 240.639 7.36C243.439 7.36 245.639 8.05333 247.239 9.44C248.865 10.8267 249.799 12.6667 250.039 14.96H243.719C243.612 14.1867 243.265 13.5733 242.679 13.12C242.119 12.6667 241.372 12.44 240.439 12.44C239.639 12.44 239.025 12.6 238.599 12.92C238.172 13.2133 237.959 13.6267 237.959 14.16C237.959 14.8 238.292 15.28 238.959 15.6C239.652 15.92 240.719 16.24 242.159 16.56C243.812 16.9867 245.159 17.4133 246.199 17.84C247.239 18.24 248.145 18.9067 248.919 19.84C249.719 20.7467 250.132 21.9733 250.159 23.52C250.159 24.8267 249.785 26 249.039 27.04C248.319 28.0533 247.265 28.8533 245.879 29.44C244.519 30.0267 242.932 30.32 241.119 30.32Z" fill="#DBE6E7"/>
</svg>
