<svg width="24" height="24" viewBox="0 0 24 24" fill="none" xmlns="http://www.w3.org/2000/svg">
<path d="M18 12.75L19.434 15.5272L22.5 15.9728L20.25 18L20.8282 21L18 19.3125L15.1718 21L15.75 18L13.5 15.9728L16.65 15.5272L18 12.75ZM4.5 12H9V13.5H4.5V12ZM4.5 9H12V10.5H4.5V9ZM4.5 6H12V7.5H4.5V6Z" fill="url(#paint0_linear_163_18)"/>
<path d="M12 19.5H3V4.5H21V12H22.5V4.5C22.5 4.10218 22.342 3.72064 22.0607 3.43934C21.7794 3.15804 21.3978 3 21 3H3C2.60218 3 2.22064 3.15804 1.93934 3.43934C1.65804 3.72064 1.5 4.10218 1.5 4.5V19.5C1.5 19.8978 1.65804 20.2794 1.93934 20.5607C2.22064 20.842 2.60218 21 3 21H12V19.5Z" fill="url(#paint1_linear_163_18)"/>
<defs>
<linearGradient id="paint0_linear_163_18" x1="13.5" y1="6" x2="13.5" y2="21" gradientUnits="userSpaceOnUse">
<stop stop-color="#7C1B00"/>
<stop offset="1" stop-color="#FF8259"/>
</linearGradient>
<linearGradient id="paint1_linear_163_18" x1="12" y1="3" x2="12" y2="21" gradientUnits="userSpaceOnUse">
<stop stop-color="#7C1B00"/>
<stop offset="1" stop-color="#FF8259"/>
</linearGradient>
</defs>
</svg>
