<svg width="66" height="66" viewBox="0 0 66 66" fill="none" xmlns="http://www.w3.org/2000/svg">
<mask id="mask0_365_9" style="mask-type:luminance" maskUnits="userSpaceOnUse" x="0" y="0" width="66" height="66">
<path d="M0 0H66V66H0V0Z" fill="white"/>
</mask>
<g mask="url(#mask0_365_9)">
<path fill-rule="evenodd" clip-rule="evenodd" d="M23.1412 0C16.412 0 11 5.64575 11 12.562C11 16.7667 13.002 20.5013 16.0792 22.781C14.4927 23.9688 13.2068 25.512 12.3247 27.2867C11.4426 29.0614 10.9889 31.0182 11 33C11 37.2075 13.002 40.9392 16.0792 43.219C14.4927 44.4068 13.2068 45.95 12.3247 47.7247C11.4426 49.4994 10.9889 51.4562 11 53.438C11 60.3542 16.412 66 23.1412 66C29.8705 66 35.2825 60.3542 35.2825 53.438V42.8175C37.4083 44.5921 40.0895 45.5644 42.8587 45.5648C49.588 45.562 55 39.9163 55 33C55.011 31.0182 54.5573 29.0614 53.6752 27.2867C52.7931 25.512 51.5072 23.9688 49.9207 22.781C51.5072 21.5932 52.7931 20.05 53.6752 18.2753C54.5573 16.5006 55.011 14.5438 55 12.562C55 5.64575 49.588 0 42.8587 0H23.1412ZM15.5622 12.562C15.5622 8.18675 18.9777 4.68325 23.1412 4.68325H30.7175V20.4408H23.1412C18.9777 20.4408 15.5622 16.9345 15.5622 12.562ZM42.8587 20.438H35.2825V4.6805H42.8587C47.025 4.6805 50.4377 8.18675 50.4377 12.562C50.4377 16.9345 47.025 20.438 42.8587 20.438ZM15.565 33C15.565 28.6275 18.9805 25.1213 23.144 25.1213H30.7202V40.8787H23.1412C18.975 40.8787 15.565 37.3725 15.565 33ZM35.2797 33C35.2797 28.6275 38.6952 25.1213 42.8587 25.1213C47.025 25.1213 50.4377 28.6248 50.4377 33C50.4377 37.3725 47.025 40.8787 42.8587 40.8787C38.6925 40.8787 35.2797 37.3725 35.2797 33ZM15.565 53.438C15.565 49.0655 18.9805 45.562 23.144 45.562H30.7202V53.438C30.7202 57.8132 27.3102 61.3168 23.144 61.3168C18.9777 61.3168 15.565 57.8132 15.565 53.438Z" fill="url(#paint0_linear_365_9)"/>
</g>
<defs>
<linearGradient id="paint0_linear_365_9" x1="33" y1="0" x2="33" y2="66" gradientUnits="userSpaceOnUse">
<stop stop-color="#7C1B00"/>
<stop offset="1" stop-color="#E35C36"/>
</linearGradient>
</defs>
</svg>
