<svg width="670" height="24" viewBox="0 0 670 24" fill="none" xmlns="http://www.w3.org/2000/svg">
<circle cx="12" cy="12" r="11" transform="rotate(-90 12 12)" fill="#FFD5C8" stroke="#DBE6E7" stroke-width="2"/>
<circle cx="46" cy="12" r="11" transform="rotate(-90 46 12)" fill="#FFC1AC" stroke="#DBE6E7" stroke-width="2"/>
<circle cx="80" cy="12" r="11" transform="rotate(-90 80 12)" fill="#FF9C7B" stroke="#DBE6E7" stroke-width="2"/>
<circle cx="114" cy="12" r="11" transform="rotate(-90 114 12)" fill="#FF8259" stroke="#DBE6E7" stroke-width="2"/>
<circle cx="148" cy="12" r="11" transform="rotate(-90 148 12)" fill="#F26E43" stroke="#DBE6E7" stroke-width="2"/>
<circle cx="182" cy="12" r="11" transform="rotate(-90 182 12)" fill="#CE4620" stroke="#DBE6E7" stroke-width="2"/>
<circle cx="216" cy="12" r="11" transform="rotate(-90 216 12)" fill="#952506" stroke="#DBE6E7" stroke-width="2"/>
<circle cx="250" cy="12" r="11" transform="rotate(-90 250 12)" fill="#7C1B00" stroke="#DBE6E7" stroke-width="2"/>
<circle cx="284" cy="12" r="11" transform="rotate(-90 284 12)" fill="#7C1B00" stroke="#DBE6E7" stroke-width="2"/>
<circle cx="318" cy="12" r="11" transform="rotate(-90 318 12)" fill="#D9D9D9" stroke="#DBE6E7" stroke-width="2"/>
<circle cx="352" cy="12" r="11" transform="rotate(-90 352 12)" fill="#D9D9D9" stroke="#DBE6E7" stroke-width="2"/>
<circle cx="386" cy="12" r="11" transform="rotate(-90 386 12)" fill="#D9D9D9" stroke="#DBE6E7" stroke-width="2"/>
<circle cx="420" cy="12" r="11" transform="rotate(-90 420 12)" fill="#D9D9D9" stroke="#DBE6E7" stroke-width="2"/>
<circle cx="454" cy="12" r="11" transform="rotate(-90 454 12)" fill="#D9D9D9" stroke="#DBE6E7" stroke-width="2"/>
<circle cx="488" cy="12" r="11" transform="rotate(-90 488 12)" fill="#D9D9D9" stroke="#DBE6E7" stroke-width="2"/>
<circle cx="522" cy="12" r="11" transform="rotate(-90 522 12)" fill="#D9D9D9" stroke="#DBE6E7" stroke-width="2"/>
<circle cx="556" cy="12" r="11" transform="rotate(-90 556 12)" fill="#D9D9D9" stroke="#DBE6E7" stroke-width="2"/>
<circle cx="590" cy="12" r="11" transform="rotate(-90 590 12)" fill="#D9D9D9" stroke="#DBE6E7" stroke-width="2"/>
<circle cx="624" cy="12" r="11" transform="rotate(-90 624 12)" fill="#D9D9D9" stroke="#DBE6E7" stroke-width="2"/>
<circle cx="658" cy="12" r="11" transform="rotate(-90 658 12)" fill="#D9D9D9" stroke="#DBE6E7" stroke-width="2"/>
</svg>
