<svg width="1250" height="1250" viewBox="0 0 1250 1250" fill="none" xmlns="http://www.w3.org/2000/svg">
<circle cx="625" cy="625" r="620" fill="#144448" stroke="#031718" stroke-width="10"/>
<g filter="url(#filter0_d_281_47)">
<mask id="path-2-inside-1_281_47" fill="white">
<path d="M443.106 378.24L446.866 349.1C446.866 320.273 435.586 301.787 413.026 293.64C395.48 288 382.006 285.18 372.606 285.18H371.666C352.866 285.18 336.573 288.313 322.786 294.58C309 300.22 298.973 307.427 292.706 316.2C279.546 334.373 272.026 353.487 270.146 373.54C270.146 397.353 280.8 418.033 302.106 435.58C323.413 452.5 349.106 467.54 379.186 480.7C409.893 493.233 440.286 507.02 470.366 522.06C501.073 537.1 527.08 558.72 548.386 586.92C569.693 615.12 580.346 648.96 580.346 688.44C580.346 765.52 555.906 823.173 507.026 861.4C458.773 899.627 403.626 918.74 341.586 918.74C280.173 918.74 229.1 904.953 188.366 877.38C148.26 849.18 128.206 811.58 128.206 764.58V763.64C128.206 740.453 131.653 720.4 138.546 703.48C146.066 685.933 154.84 673.087 164.866 664.94C185.546 648.02 204.346 638.933 221.266 637.68L232.546 636.74C250.093 636.74 266.073 641.127 280.486 649.9C294.9 658.047 302.106 669.64 302.106 684.68C302.106 692.2 298.033 698.467 289.886 703.48C281.74 708.493 274.533 716.013 268.266 726.04C262.626 736.067 259.493 744.527 258.866 751.42L256.986 761.76C256.986 799.987 274.533 825.367 309.626 837.9C322.16 842.287 332.186 844.48 339.706 844.48C374.173 844.48 401.746 834.14 422.426 813.46C443.733 792.78 454.386 766.46 454.386 734.5C454.386 696.273 438.093 665.253 405.506 641.44C381.066 623.893 354.433 609.167 325.606 597.26C297.406 585.353 278.293 576.893 268.266 571.88C258.24 566.867 247.586 560.913 236.306 554.02C225.026 547.127 212.493 537.413 198.706 524.88C168.626 498.56 153.586 463.153 153.586 418.66C153.586 373.54 165.806 335.627 190.246 304.92C234.113 249.147 299.913 221.26 387.646 221.26C434.02 221.26 473.186 230.347 505.146 248.52C537.106 266.067 553.086 290.507 553.086 321.84C553.086 344.4 546.506 363.2 533.346 378.24C520.813 393.28 504.52 400.8 484.466 400.8C475.066 400.8 465.666 398.92 456.266 395.16C447.493 391.4 443.106 385.76 443.106 378.24ZM867.766 360.38C818.259 422.42 782.539 484.46 760.606 546.5H761.546C848.653 546.5 898.473 546.813 911.006 547.44C924.166 547.44 931.373 546.813 932.626 545.56C933.879 544.307 934.819 542.74 935.446 540.86C924.793 463.78 916.333 411.453 910.066 383.88C903.799 355.68 897.533 341.58 891.266 341.58C884.999 341.58 877.166 347.847 867.766 360.38ZM784.106 803.12L804.786 799.36C811.053 799.36 814.186 802.807 814.186 809.7C814.186 831.633 809.799 850.12 801.026 865.16C792.253 880.2 781.286 890.853 768.126 897.12C746.819 907.773 728.646 913.1 713.606 913.1C684.779 913.1 663.159 902.447 648.746 881.14C634.333 859.207 627.126 826.62 627.126 783.38C627.126 739.513 639.033 682.8 662.846 613.24H608.326C601.433 613.24 597.986 609.793 597.986 602.9C597.986 596.007 603.313 585.04 613.966 570C624.619 554.333 635.899 546.5 647.806 546.5H690.106C734.599 447.487 786.926 361.947 847.086 289.88C862.753 271.08 881.866 253.533 904.426 237.24C927.613 220.947 945.473 212.8 958.006 212.8C970.539 212.8 979.939 218.44 986.206 229.72C1002.5 256.04 1021.61 352.233 1043.55 518.3C1051.07 589.74 1063.91 663.687 1082.09 740.14C1100.89 815.967 1118.12 860.147 1133.79 872.68C1137.55 875.187 1139.43 878.32 1139.43 882.08C1139.43 891.48 1125.95 900.253 1099.01 908.4C1072.69 916.547 1052.32 920.62 1037.91 920.62C1024.12 920.62 1013.47 918.74 1005.95 914.98C998.426 911.847 993.726 908.4 991.846 904.64C980.566 880.2 969.286 821.92 958.006 729.8L952.366 685.62C949.859 656.167 947.353 633.92 944.846 618.88L938.266 614.18L741.806 613.24C734.286 645.2 730.526 673.087 730.526 696.9C730.526 720.713 731.153 738.26 732.406 749.54C734.286 760.193 739.613 771.787 748.386 784.32C757.159 796.853 769.066 803.12 784.106 803.12Z"/>
</mask>
<path d="M443.106 378.24L446.866 349.1C446.866 320.273 435.586 301.787 413.026 293.64C395.48 288 382.006 285.18 372.606 285.18H371.666C352.866 285.18 336.573 288.313 322.786 294.58C309 300.22 298.973 307.427 292.706 316.2C279.546 334.373 272.026 353.487 270.146 373.54C270.146 397.353 280.8 418.033 302.106 435.58C323.413 452.5 349.106 467.54 379.186 480.7C409.893 493.233 440.286 507.02 470.366 522.06C501.073 537.1 527.08 558.72 548.386 586.92C569.693 615.12 580.346 648.96 580.346 688.44C580.346 765.52 555.906 823.173 507.026 861.4C458.773 899.627 403.626 918.74 341.586 918.74C280.173 918.74 229.1 904.953 188.366 877.38C148.26 849.18 128.206 811.58 128.206 764.58V763.64C128.206 740.453 131.653 720.4 138.546 703.48C146.066 685.933 154.84 673.087 164.866 664.94C185.546 648.02 204.346 638.933 221.266 637.68L232.546 636.74C250.093 636.74 266.073 641.127 280.486 649.9C294.9 658.047 302.106 669.64 302.106 684.68C302.106 692.2 298.033 698.467 289.886 703.48C281.74 708.493 274.533 716.013 268.266 726.04C262.626 736.067 259.493 744.527 258.866 751.42L256.986 761.76C256.986 799.987 274.533 825.367 309.626 837.9C322.16 842.287 332.186 844.48 339.706 844.48C374.173 844.48 401.746 834.14 422.426 813.46C443.733 792.78 454.386 766.46 454.386 734.5C454.386 696.273 438.093 665.253 405.506 641.44C381.066 623.893 354.433 609.167 325.606 597.26C297.406 585.353 278.293 576.893 268.266 571.88C258.24 566.867 247.586 560.913 236.306 554.02C225.026 547.127 212.493 537.413 198.706 524.88C168.626 498.56 153.586 463.153 153.586 418.66C153.586 373.54 165.806 335.627 190.246 304.92C234.113 249.147 299.913 221.26 387.646 221.26C434.02 221.26 473.186 230.347 505.146 248.52C537.106 266.067 553.086 290.507 553.086 321.84C553.086 344.4 546.506 363.2 533.346 378.24C520.813 393.28 504.52 400.8 484.466 400.8C475.066 400.8 465.666 398.92 456.266 395.16C447.493 391.4 443.106 385.76 443.106 378.24ZM867.766 360.38C818.259 422.42 782.539 484.46 760.606 546.5H761.546C848.653 546.5 898.473 546.813 911.006 547.44C924.166 547.44 931.373 546.813 932.626 545.56C933.879 544.307 934.819 542.74 935.446 540.86C924.793 463.78 916.333 411.453 910.066 383.88C903.799 355.68 897.533 341.58 891.266 341.58C884.999 341.58 877.166 347.847 867.766 360.38ZM784.106 803.12L804.786 799.36C811.053 799.36 814.186 802.807 814.186 809.7C814.186 831.633 809.799 850.12 801.026 865.16C792.253 880.2 781.286 890.853 768.126 897.12C746.819 907.773 728.646 913.1 713.606 913.1C684.779 913.1 663.159 902.447 648.746 881.14C634.333 859.207 627.126 826.62 627.126 783.38C627.126 739.513 639.033 682.8 662.846 613.24H608.326C601.433 613.24 597.986 609.793 597.986 602.9C597.986 596.007 603.313 585.04 613.966 570C624.619 554.333 635.899 546.5 647.806 546.5H690.106C734.599 447.487 786.926 361.947 847.086 289.88C862.753 271.08 881.866 253.533 904.426 237.24C927.613 220.947 945.473 212.8 958.006 212.8C970.539 212.8 979.939 218.44 986.206 229.72C1002.5 256.04 1021.61 352.233 1043.55 518.3C1051.07 589.74 1063.91 663.687 1082.09 740.14C1100.89 815.967 1118.12 860.147 1133.79 872.68C1137.55 875.187 1139.43 878.32 1139.43 882.08C1139.43 891.48 1125.95 900.253 1099.01 908.4C1072.69 916.547 1052.32 920.62 1037.91 920.62C1024.12 920.62 1013.47 918.74 1005.95 914.98C998.426 911.847 993.726 908.4 991.846 904.64C980.566 880.2 969.286 821.92 958.006 729.8L952.366 685.62C949.859 656.167 947.353 633.92 944.846 618.88L938.266 614.18L741.806 613.24C734.286 645.2 730.526 673.087 730.526 696.9C730.526 720.713 731.153 738.26 732.406 749.54C734.286 760.193 739.613 771.787 748.386 784.32C757.159 796.853 769.066 803.12 784.106 803.12Z" fill="url(#paint0_linear_281_47)"/>
<path d="M443.106 378.24L440.131 377.856L440.106 378.047V378.24H443.106ZM446.866 349.1L449.842 349.484L449.866 349.293V349.1H446.866ZM413.026 293.64L414.045 290.818L413.995 290.8L413.944 290.784L413.026 293.64ZM322.786 294.58L323.922 297.357L323.975 297.335L324.028 297.311L322.786 294.58ZM292.706 316.2L295.136 317.96L295.142 317.952L295.148 317.944L292.706 316.2ZM270.146 373.54L267.159 373.26L267.146 373.4V373.54H270.146ZM302.106 435.58L300.199 437.896L300.22 437.913L300.241 437.929L302.106 435.58ZM379.186 480.7L377.984 483.448L378.018 483.463L378.053 483.478L379.186 480.7ZM470.366 522.06L469.025 524.743L469.036 524.749L469.047 524.754L470.366 522.06ZM548.386 586.92L545.993 588.728L545.993 588.728L548.386 586.92ZM507.026 861.4L505.178 859.037L505.171 859.043L505.163 859.048L507.026 861.4ZM188.366 877.38L186.641 879.834L186.663 879.849L186.685 879.864L188.366 877.38ZM138.546 703.48L135.789 702.298L135.778 702.323L135.768 702.348L138.546 703.48ZM164.866 664.94L166.758 667.268L166.766 667.262L164.866 664.94ZM221.266 637.68L221.488 640.672L221.502 640.671L221.515 640.67L221.266 637.68ZM232.546 636.74V633.74H232.422L232.297 633.75L232.546 636.74ZM280.486 649.9L278.926 652.463L278.968 652.488L279.01 652.512L280.486 649.9ZM289.886 703.48L288.314 700.925L288.314 700.925L289.886 703.48ZM268.266 726.04L265.722 724.45L265.686 724.509L265.652 724.569L268.266 726.04ZM258.866 751.42L261.818 751.957L261.842 751.825L261.854 751.692L258.866 751.42ZM256.986 761.76L254.035 761.223L253.986 761.489V761.76H256.986ZM309.626 837.9L308.617 840.725L308.626 840.728L308.635 840.732L309.626 837.9ZM422.426 813.46L420.337 811.307L420.321 811.323L420.305 811.339L422.426 813.46ZM405.506 641.44L407.276 639.018L407.266 639.01L407.256 639.003L405.506 641.44ZM325.606 597.26L324.439 600.024L324.45 600.028L324.461 600.033L325.606 597.26ZM268.266 571.88L269.608 569.197L269.608 569.197L268.266 571.88ZM236.306 554.02L234.742 556.58L234.742 556.58L236.306 554.02ZM198.706 524.88L200.724 522.66L200.703 522.641L200.682 522.622L198.706 524.88ZM190.246 304.92L192.594 306.788L192.599 306.781L192.604 306.775L190.246 304.92ZM505.146 248.52L503.663 251.128L503.683 251.139L503.703 251.15L505.146 248.52ZM533.346 378.24L531.089 376.264L531.065 376.292L531.042 376.319L533.346 378.24ZM456.266 395.16L455.085 397.917L455.118 397.932L455.152 397.945L456.266 395.16ZM443.106 378.24L446.082 378.624L449.842 349.484L446.866 349.1L443.891 348.716L440.131 377.856L443.106 378.24ZM446.866 349.1H449.866C449.866 334.313 446.975 321.898 440.967 312.052C434.933 302.163 425.894 295.097 414.045 290.818L413.026 293.64L412.007 296.462C422.719 300.33 430.6 306.58 435.845 315.178C441.118 323.819 443.866 335.06 443.866 349.1H446.866ZM413.026 293.64L413.944 290.784C396.329 285.122 382.49 282.18 372.606 282.18V285.18V288.18C381.522 288.18 394.631 290.878 412.108 296.496L413.026 293.64ZM372.606 285.18V282.18H371.666V285.18V288.18H372.606V285.18ZM371.666 285.18V282.18C352.539 282.18 335.804 285.368 321.545 291.849L322.786 294.58L324.028 297.311C337.342 291.259 353.194 288.18 371.666 288.18V285.18ZM322.786 294.58L321.65 291.803C307.532 297.579 296.964 305.078 290.265 314.456L292.706 316.2L295.148 317.944C300.982 309.775 310.467 302.861 323.922 297.357L322.786 294.58ZM292.706 316.2L290.277 314.44C276.839 332.997 269.095 352.613 267.159 373.26L270.146 373.54L273.133 373.82C274.958 354.36 282.254 335.749 295.136 317.96L292.706 316.2ZM270.146 373.54H267.146C267.146 398.398 278.324 419.881 300.199 437.896L302.106 435.58L304.013 433.264C283.276 416.186 273.146 396.309 273.146 373.54H270.146ZM302.106 435.58L300.241 437.929C321.787 455.04 347.714 470.205 377.984 483.448L379.186 480.7L380.389 477.952C350.499 464.875 325.039 449.96 303.972 433.231L302.106 435.58ZM379.186 480.7L378.053 483.478C408.688 495.982 439.012 509.737 469.025 524.743L470.366 522.06L471.708 519.377C441.561 504.303 411.098 490.485 380.32 477.922L379.186 480.7ZM470.366 522.06L469.047 524.754C499.316 539.58 524.96 560.891 545.993 588.728L548.386 586.92L550.78 585.111C529.2 556.549 502.83 534.62 471.686 519.366L470.366 522.06ZM548.386 586.92L545.993 588.728C566.86 616.347 577.346 649.532 577.346 688.44H580.346H583.346C583.346 648.388 572.526 613.893 550.78 585.111L548.386 586.92ZM580.346 688.44H577.346C577.346 764.844 553.157 821.515 505.178 859.037L507.026 861.4L508.874 863.763C558.656 824.832 583.346 766.196 583.346 688.44H580.346ZM507.026 861.4L505.163 859.048C457.445 896.852 402.956 915.74 341.586 915.74V918.74V921.74C404.297 921.74 460.101 902.402 508.889 863.752L507.026 861.4ZM341.586 918.74V915.74C280.623 915.74 230.174 902.058 190.048 874.896L188.366 877.38L186.685 879.864C228.025 907.849 279.723 921.74 341.586 921.74V918.74ZM188.366 877.38L190.092 874.926C150.743 847.259 131.206 810.554 131.206 764.58H128.206H125.206C125.206 812.606 145.776 851.101 186.641 879.834L188.366 877.38ZM128.206 764.58H131.206V763.64H128.206H125.206V764.58H128.206ZM128.206 763.64H131.206C131.206 740.741 134.611 721.09 141.325 704.612L138.546 703.48L135.768 702.348C128.695 719.71 125.206 740.166 125.206 763.64H128.206ZM138.546 703.48L141.304 704.662C148.717 687.365 157.246 674.997 166.758 667.268L164.866 664.94L162.975 662.612C152.434 671.176 143.416 684.502 135.789 702.298L138.546 703.48ZM164.866 664.94L166.766 667.262C187.223 650.525 205.444 641.86 221.488 640.672L221.266 637.68L221.045 634.688C203.248 636.006 183.87 645.515 162.967 662.618L164.866 664.94ZM221.266 637.68L221.515 640.67L232.795 639.73L232.546 636.74L232.297 633.75L221.017 634.69L221.266 637.68ZM232.546 636.74V639.74C249.566 639.74 265.002 643.987 278.926 652.463L280.486 649.9L282.046 647.337C267.144 638.266 250.62 633.74 232.546 633.74V636.74ZM280.486 649.9L279.01 652.512C292.597 660.191 299.106 670.848 299.106 684.68H302.106H305.106C305.106 668.432 297.202 655.902 281.963 647.288L280.486 649.9ZM302.106 684.68H299.106C299.106 690.871 295.85 696.288 288.314 700.925L289.886 703.48L291.459 706.035C300.216 700.646 305.106 693.529 305.106 684.68H302.106ZM289.886 703.48L288.314 700.925C279.691 706.231 272.177 714.122 265.722 724.45L268.266 726.04L270.81 727.63C276.889 717.905 283.788 710.755 291.459 706.035L289.886 703.48ZM268.266 726.04L265.652 724.569C259.924 734.752 256.561 743.644 255.879 751.148L258.866 751.42L261.854 751.692C262.425 745.409 265.329 737.382 270.881 727.511L268.266 726.04ZM258.866 751.42L255.915 750.883L254.035 761.223L256.986 761.76L259.938 762.297L261.818 751.957L258.866 751.42ZM256.986 761.76H253.986C253.986 781.336 258.484 797.871 267.679 811.171C276.878 824.477 290.605 834.292 308.617 840.725L309.626 837.9L310.635 835.075C293.555 828.975 280.961 819.833 272.614 807.759C264.262 795.679 259.986 780.411 259.986 761.76H256.986ZM309.626 837.9L308.635 840.732C321.282 845.158 331.685 847.48 339.706 847.48V844.48V841.48C332.688 841.48 323.037 839.415 310.617 835.068L309.626 837.9ZM339.706 844.48V847.48C374.816 847.48 403.205 836.924 424.548 815.581L422.426 813.46L420.305 811.339C400.287 831.356 373.53 841.48 339.706 841.48V844.48ZM422.426 813.46L424.516 815.613C446.452 794.322 457.386 767.202 457.386 734.5H454.386H451.386C451.386 765.718 441.014 791.238 420.337 811.307L422.426 813.46ZM454.386 734.5H457.386C457.386 695.255 440.585 663.359 407.276 639.018L405.506 641.44L403.736 643.862C435.601 667.148 451.386 697.292 451.386 734.5H454.386ZM405.506 641.44L407.256 639.003C382.621 621.317 355.784 606.479 326.752 594.487L325.606 597.26L324.461 600.033C353.082 611.854 379.511 626.47 403.757 643.877L405.506 641.44ZM325.606 597.26L326.773 594.496C298.565 582.586 279.536 574.161 269.608 569.197L268.266 571.88L266.925 574.563C277.05 579.626 296.248 588.121 324.439 600.024L325.606 597.26ZM268.266 571.88L269.608 569.197C259.669 564.227 249.091 558.317 237.871 551.46L236.306 554.02L234.742 556.58C246.082 563.51 256.81 569.506 266.925 574.563L268.266 571.88ZM236.306 554.02L237.871 551.46C226.803 544.696 214.423 535.113 200.724 522.66L198.706 524.88L196.688 527.1C210.563 539.713 223.25 549.557 234.742 556.58L236.306 554.02ZM198.706 524.88L200.682 522.622C171.331 496.94 156.586 462.398 156.586 418.66H153.586H150.586C150.586 463.909 165.922 500.18 196.731 527.138L198.706 524.88ZM153.586 418.66H156.586C156.586 374.112 168.638 336.886 192.594 306.788L190.246 304.92L187.899 303.052C162.974 334.367 150.586 372.968 150.586 418.66H153.586ZM190.246 304.92L192.604 306.775C235.769 251.894 300.593 224.26 387.646 224.26V221.26V218.26C299.233 218.26 232.457 246.399 187.888 303.065L190.246 304.92ZM387.646 221.26V224.26C433.633 224.26 472.259 233.27 503.663 251.128L505.146 248.52L506.629 245.912C474.114 227.423 434.406 218.26 387.646 218.26V221.26ZM505.146 248.52L503.703 251.15C534.892 268.273 550.086 291.801 550.086 321.84H553.086H556.086C556.086 289.212 539.321 263.86 506.59 245.89L505.146 248.52ZM553.086 321.84H550.086C550.086 343.773 543.708 361.842 531.089 376.264L533.346 378.24L535.604 380.215C549.305 364.558 556.086 345.027 556.086 321.84H553.086ZM533.346 378.24L531.042 376.319C519.094 390.656 503.654 397.8 484.466 397.8V400.8V403.8C505.385 403.8 522.532 395.903 535.651 380.161L533.346 378.24ZM484.466 400.8V397.8C475.477 397.8 466.454 396.004 457.381 392.375L456.266 395.16L455.152 397.945C464.879 401.836 474.656 403.8 484.466 403.8V400.8ZM456.266 395.16L457.448 392.403C453.377 390.658 450.559 388.575 448.764 386.268C447.003 384.004 446.106 381.37 446.106 378.24H443.106H440.106C440.106 382.63 441.403 386.576 444.028 389.952C446.62 393.285 450.382 395.902 455.085 397.917L456.266 395.16ZM867.766 360.38L870.111 362.251L870.139 362.216L870.166 362.18L867.766 360.38ZM760.606 546.5L757.778 545.5L756.363 549.5H760.606V546.5ZM911.006 547.44L910.856 550.436L910.931 550.44H911.006V547.44ZM935.446 540.86L938.292 541.809L938.514 541.144L938.418 540.449L935.446 540.86ZM910.066 383.88L907.137 384.531L907.139 384.538L907.141 384.545L910.066 383.88ZM784.106 803.12V806.12H784.377L784.643 806.072L784.106 803.12ZM804.786 799.36V796.36H804.516L804.249 796.408L804.786 799.36ZM801.026 865.16L798.435 863.648L798.435 863.648L801.026 865.16ZM768.126 897.12L766.836 894.411L766.81 894.424L766.784 894.437L768.126 897.12ZM648.746 881.14L646.239 882.788L646.25 882.804L646.261 882.821L648.746 881.14ZM662.846 613.24L665.684 614.212L667.044 610.24H662.846V613.24ZM613.966 570L616.414 571.734L616.431 571.711L616.447 571.687L613.966 570ZM690.106 546.5V549.5H692.047L692.842 547.73L690.106 546.5ZM847.086 289.88L849.389 291.803L849.391 291.801L847.086 289.88ZM904.426 237.24L902.701 234.785L902.685 234.797L902.67 234.808L904.426 237.24ZM986.206 229.72L983.584 231.177L983.618 231.239L983.655 231.299L986.206 229.72ZM1043.55 518.3L1046.53 517.986L1046.53 517.946L1046.52 517.907L1043.55 518.3ZM1082.09 740.14L1079.17 740.834L1079.17 740.848L1079.17 740.862L1082.09 740.14ZM1133.79 872.68L1131.91 875.023L1132.01 875.104L1132.12 875.176L1133.79 872.68ZM1099.01 908.4L1098.14 905.528L1098.13 905.531L1098.12 905.534L1099.01 908.4ZM1005.95 914.98L1007.29 912.297L1007.2 912.251L1007.1 912.211L1005.95 914.98ZM991.846 904.64L989.122 905.897L989.142 905.94L989.163 905.982L991.846 904.64ZM958.006 729.8L960.984 729.435L960.983 729.428L960.982 729.42L958.006 729.8ZM952.366 685.62L949.377 685.874L949.382 685.937L949.39 686L952.366 685.62ZM944.846 618.88L947.805 618.387L947.601 617.161L946.59 616.439L944.846 618.88ZM938.266 614.18L940.01 611.739L939.234 611.185L938.28 611.18L938.266 614.18ZM741.806 613.24L741.82 610.24L739.433 610.229L738.886 612.553L741.806 613.24ZM732.406 749.54L729.424 749.871L729.435 749.967L729.452 750.061L732.406 749.54ZM748.386 784.32L750.844 782.6L750.844 782.6L748.386 784.32ZM867.766 360.38L865.421 358.509C815.748 420.758 779.843 483.087 757.778 545.5L760.606 546.5L763.434 547.5C785.236 485.833 820.771 424.082 870.111 362.251L867.766 360.38ZM760.606 546.5V549.5H761.546V546.5V543.5H760.606V546.5ZM761.546 546.5V549.5C848.705 549.5 898.42 549.814 910.856 550.436L911.006 547.44L911.156 544.444C898.526 543.812 848.6 543.5 761.546 543.5V546.5ZM911.006 547.44V550.44C917.615 550.44 922.808 550.283 926.541 549.959C928.4 549.797 929.978 549.587 931.221 549.311C931.842 549.173 932.446 549.004 932.991 548.786C933.493 548.585 934.174 548.255 934.747 547.681L932.626 545.56L930.505 543.439C930.765 543.179 930.947 543.142 930.763 543.215C930.622 543.271 930.356 543.357 929.919 543.454C929.047 543.648 927.766 543.83 926.021 543.981C922.547 544.283 917.557 544.44 911.006 544.44V547.44ZM932.626 545.56L934.747 547.681C936.367 546.061 937.536 544.078 938.292 541.809L935.446 540.86L932.6 539.911C932.103 541.402 931.392 542.552 930.505 543.439L932.626 545.56ZM935.446 540.86L938.418 540.449C927.766 463.382 919.291 410.933 912.991 383.215L910.066 383.88L907.141 384.545C913.375 411.974 921.819 464.178 932.474 541.271L935.446 540.86ZM910.066 383.88L912.995 383.229C909.848 369.072 906.664 358.264 903.407 350.937C901.784 347.284 900.069 344.324 898.208 342.231C896.361 340.153 894.045 338.58 891.266 338.58V341.58V344.58C891.62 344.58 892.437 344.769 893.724 346.217C894.997 347.649 896.414 349.975 897.925 353.373C900.935 360.146 904.017 370.488 907.137 384.531L910.066 383.88ZM891.266 341.58V338.58C887.149 338.58 882.967 340.617 878.817 343.937C874.625 347.291 870.143 352.211 865.366 358.58L867.766 360.38L870.166 362.18C874.789 356.016 878.924 351.536 882.565 348.623C886.248 345.676 889.117 344.58 891.266 344.58V341.58ZM784.106 803.12L784.643 806.072L805.323 802.312L804.786 799.36L804.249 796.408L783.569 800.168L784.106 803.12ZM804.786 799.36V802.36C807.379 802.36 808.795 803.06 809.616 803.963C810.486 804.92 811.186 806.649 811.186 809.7H814.186H817.186C817.186 805.858 816.319 802.416 814.056 799.927C811.743 797.383 808.459 796.36 804.786 796.36V799.36ZM814.186 809.7H811.186C811.186 831.238 806.879 849.172 798.435 863.648L801.026 865.16L803.617 866.672C812.719 851.068 817.186 832.028 817.186 809.7H814.186ZM801.026 865.16L798.435 863.648C789.905 878.271 779.353 888.451 766.836 894.411L768.126 897.12L769.416 899.829C783.219 893.256 794.6 882.129 803.617 866.672L801.026 865.16ZM768.126 897.12L766.784 894.437C745.676 904.991 727.986 910.1 713.606 910.1V913.1V916.1C729.306 916.1 747.962 910.556 769.468 899.803L768.126 897.12ZM713.606 913.1V910.1C685.635 910.1 665.012 899.831 651.231 879.459L648.746 881.14L646.261 882.821C661.307 905.062 683.924 916.1 713.606 916.1V913.1ZM648.746 881.14L651.253 879.492C637.308 858.272 630.126 826.376 630.126 783.38H627.126H624.126C624.126 826.864 631.357 860.141 646.239 882.788L648.746 881.14ZM627.126 783.38H630.126C630.126 739.993 641.916 683.64 665.684 614.212L662.846 613.24L660.008 612.268C636.149 681.96 624.126 739.034 624.126 783.38H627.126ZM662.846 613.24V610.24H608.326V613.24V616.24H662.846V613.24ZM608.326 613.24V610.24C605.342 610.24 603.655 609.496 602.692 608.534C601.73 607.571 600.986 605.884 600.986 602.9H597.986H594.986C594.986 606.809 595.965 610.292 598.45 612.776C600.934 615.261 604.417 616.24 608.326 616.24V613.24ZM597.986 602.9H600.986C600.986 600.133 602.084 596.158 604.68 590.816C607.245 585.534 611.14 579.18 616.414 571.734L613.966 570L611.518 568.266C606.139 575.859 602.044 582.509 599.282 588.194C596.551 593.818 594.986 598.774 594.986 602.9H597.986ZM613.966 570L616.447 571.687C626.881 556.342 637.374 549.5 647.806 549.5V546.5V543.5C634.425 543.5 622.357 552.325 611.485 568.313L613.966 570ZM647.806 546.5V549.5H690.106V546.5V543.5H647.806V546.5ZM690.106 546.5L692.842 547.73C737.241 448.928 789.429 363.629 849.389 291.803L847.086 289.88L844.783 287.957C784.423 360.264 731.958 446.045 687.37 545.27L690.106 546.5ZM847.086 289.88L849.391 291.801C864.877 273.218 883.799 255.838 906.183 239.672L904.426 237.24L902.67 234.808C879.933 251.228 860.629 268.942 844.781 287.959L847.086 289.88ZM904.426 237.24L906.151 239.695C917.653 231.612 927.75 225.611 936.456 221.639C945.193 217.654 952.343 215.8 958.006 215.8V212.8V209.8C951.135 209.8 943.089 212.019 933.966 216.181C924.812 220.356 914.385 226.575 902.701 234.785L904.426 237.24ZM958.006 212.8V215.8C963.808 215.8 968.742 217.1 972.913 219.602C977.087 222.107 980.66 225.915 983.584 231.177L986.206 229.72L988.828 228.263C985.485 222.245 981.225 217.593 976 214.458C970.77 211.32 964.737 209.8 958.006 209.8V212.8ZM986.206 229.72L983.655 231.299C987.501 237.512 991.66 248.126 996.073 263.394C1000.47 278.595 1005.05 298.186 1009.82 322.19C1019.36 370.194 1029.61 435.686 1040.57 518.693L1043.55 518.3L1046.52 517.907C1035.55 434.848 1025.28 369.209 1015.7 321.02C1010.92 296.928 1006.3 277.155 1001.84 261.728C997.398 246.368 993.058 235.088 988.757 228.141L986.206 229.72ZM1043.55 518.3L1040.56 518.614C1048.1 590.193 1060.97 664.267 1079.17 740.834L1082.09 740.14L1085 739.446C1066.86 663.106 1054.03 589.287 1046.53 517.986L1043.55 518.3ZM1082.09 740.14L1079.17 740.862C1088.59 778.832 1097.63 808.973 1106.32 831.235C1110.66 842.366 1114.93 851.585 1119.15 858.852C1123.34 866.084 1127.58 871.556 1131.91 875.023L1133.79 872.68L1135.66 870.337C1132.16 867.537 1128.37 862.786 1124.34 855.841C1120.33 848.929 1116.18 840.014 1111.91 829.055C1103.36 807.137 1094.38 777.275 1085 739.418L1082.09 740.14ZM1133.79 872.68L1132.12 875.176C1135.24 877.255 1136.43 879.535 1136.43 882.08H1139.43H1142.43C1142.43 877.105 1139.85 873.118 1135.45 870.184L1133.79 872.68ZM1139.43 882.08H1136.43C1136.43 885.209 1134.18 888.968 1127.68 893.196C1121.3 897.354 1111.51 901.485 1098.14 905.528L1099.01 908.4L1099.87 911.272C1113.45 907.168 1123.87 902.84 1130.96 898.224C1137.94 893.679 1142.43 888.351 1142.43 882.08H1139.43ZM1099.01 908.4L1098.12 905.534C1071.87 913.657 1051.86 917.62 1037.91 917.62V920.62V923.62C1052.78 923.62 1073.5 919.436 1099.89 911.266L1099.01 908.4ZM1037.91 920.62V917.62C1024.32 917.62 1014.21 915.756 1007.29 912.297L1005.95 914.98L1004.6 917.663C1012.73 921.724 1023.92 923.62 1037.91 923.62V920.62ZM1005.95 914.98L1007.1 912.211C999.706 909.13 995.898 906.036 994.529 903.298L991.846 904.64L989.163 905.982C991.554 910.764 997.146 914.563 1004.79 917.749L1005.95 914.98ZM991.846 904.64L994.57 903.383C989.094 891.517 983.507 871.147 977.871 842.03C972.25 812.985 966.619 775.46 960.984 729.435L958.006 729.8L955.028 730.165C960.673 776.26 966.322 813.935 971.981 843.17C977.625 872.333 983.319 893.323 989.122 905.897L991.846 904.64ZM958.006 729.8L960.982 729.42L955.342 685.24L952.366 685.62L949.39 686L955.03 730.18L958.006 729.8ZM952.366 685.62L955.355 685.366C952.847 655.892 950.332 633.548 947.805 618.387L944.846 618.88L941.887 619.373C944.373 634.291 946.872 656.442 949.377 685.874L952.366 685.62ZM944.846 618.88L946.59 616.439L940.01 611.739L938.266 614.18L936.522 616.621L943.102 621.321L944.846 618.88ZM938.266 614.18L938.28 611.18L741.82 610.24L741.806 613.24L741.792 616.24L938.252 617.18L938.266 614.18ZM741.806 613.24L738.886 612.553C731.331 644.66 727.526 672.787 727.526 696.9H730.526H733.526C733.526 673.386 737.241 645.74 744.726 613.927L741.806 613.24ZM730.526 696.9H727.526C727.526 720.731 728.152 738.417 729.424 749.871L732.406 749.54L735.388 749.209C734.154 738.103 733.526 720.695 733.526 696.9H730.526ZM732.406 749.54L729.452 750.061C731.432 761.286 737.001 773.287 745.928 786.04L748.386 784.32L750.844 782.6C742.225 770.287 737.14 759.101 735.36 749.019L732.406 749.54ZM748.386 784.32L745.928 786.04C755.252 799.359 768.067 806.12 784.106 806.12V803.12V800.12C770.065 800.12 759.067 794.347 750.844 782.6L748.386 784.32Z" fill="black" mask="url(#path-2-inside-1_281_47)"/>
</g>
<defs>
<filter id="filter0_d_281_47" x="118.207" y="212.8" width="1031.22" height="752.82" filterUnits="userSpaceOnUse" color-interpolation-filters="sRGB">
<feFlood flood-opacity="0" result="BackgroundImageFix"/>
<feColorMatrix in="SourceAlpha" type="matrix" values="0 0 0 0 0 0 0 0 0 0 0 0 0 0 0 0 0 0 127 0" result="hardAlpha"/>
<feOffset dy="35"/>
<feGaussianBlur stdDeviation="5"/>
<feComposite in2="hardAlpha" operator="out"/>
<feColorMatrix type="matrix" values="0 0 0 0 0 0 0 0 0 0 0 0 0 0 0 0 0 0 1 0"/>
<feBlend mode="normal" in2="BackgroundImageFix" result="effect1_dropShadow_281_47"/>
<feBlend mode="normal" in="SourceGraphic" in2="effect1_dropShadow_281_47" result="shape"/>
</filter>
<linearGradient id="paint0_linear_281_47" x1="400.996" y1="113" x2="849.004" y2="1137" gradientUnits="userSpaceOnUse">
<stop offset="0.182692" stop-color="#E35C36"/>
<stop offset="1" stop-color="#FF9C7B"/>
</linearGradient>
</defs>
</svg>
