<svg width="120" height="120" viewBox="0 0 120 120" fill="none" xmlns="http://www.w3.org/2000/svg">
<path d="M9.64258 5.28577H110.357C115.128 5.28592 119 9.15799 119 13.9283V84.6432C119 89.4135 115.128 93.2856 110.357 93.2858H73.4287L73.9775 94.6569L78.6914 106.443L78.9434 107.072H85.7139C86.8693 107.072 87.9778 107.53 88.7949 108.347C89.612 109.164 90.0712 110.273 90.0713 111.428C90.0713 112.584 89.612 113.692 88.7949 114.509C87.9778 115.326 86.8694 115.786 85.7139 115.786H34.2861C33.1306 115.786 32.0222 115.326 31.2051 114.509C30.388 113.692 29.9287 112.584 29.9287 111.428C29.9288 110.273 30.388 109.164 31.2051 108.347C32.0222 107.53 33.1307 107.072 34.2861 107.072H41.0566L41.3086 106.443L46.0225 94.6569L46.5713 93.2858H9.64258C4.87223 93.2856 1.00015 89.4135 1 84.6432V13.9283C1.00015 9.30702 4.6341 5.52918 9.19824 5.29749L9.64258 5.28577ZM9.71387 84.5719H110.286V13.9996H9.71387V84.5719ZM64.4814 26.1002C65.5155 25.5839 66.7123 25.4999 67.8086 25.8658C68.905 26.2319 69.8116 27.0183 70.3281 28.0524C70.8123 29.0219 70.9164 30.1347 70.626 31.1735L70.5625 31.3805L57.7061 69.9518C57.3399 71.0483 56.5528 71.9549 55.5186 72.4713C54.4845 72.9876 53.2877 73.0716 52.1914 72.7057C51.095 72.3396 50.1884 71.5532 49.6719 70.5192C49.1877 69.5497 49.0836 68.4368 49.374 67.3981L49.4375 67.191L62.2939 28.6198C62.6601 27.5233 63.4472 26.6167 64.4814 26.1002ZM83.1768 33.1627C84.3269 33.0582 85.4718 33.415 86.3594 34.1539L99.2168 44.8678L99.2178 44.8688C99.705 45.2742 100.098 45.7812 100.369 46.3541C100.64 46.9271 100.783 47.5523 100.788 48.1862C100.793 48.82 100.658 49.4472 100.396 50.024C100.133 50.601 99.7479 51.1144 99.2666 51.527L84.2666 64.3834C83.3883 65.136 82.2469 65.5093 81.0938 65.4205C79.9404 65.3316 78.8689 64.7882 78.1162 63.9098C77.3636 63.0314 76.9912 61.8893 77.0801 60.736C77.1691 59.5827 77.7125 58.512 78.5908 57.7594L88.7822 49.0338L89.6807 48.2643L88.7715 47.5065L80.7832 40.8463C79.896 40.1065 79.339 39.0446 79.2344 37.8942C79.1364 36.8156 79.4437 35.7419 80.0918 34.8805L80.2256 34.7115C80.9653 33.8247 82.0267 33.2674 83.1768 33.1627ZM35.7334 34.1881C36.6117 33.4356 37.7531 33.0622 38.9062 33.151C39.4772 33.195 40.0342 33.3518 40.5449 33.611C41.0556 33.8702 41.5111 34.2268 41.8838 34.6617C42.2565 35.0967 42.5399 35.6017 42.7178 36.1461C42.8955 36.6904 42.9639 37.2647 42.9199 37.8356C42.8759 38.4066 42.7201 38.9636 42.4609 39.4742C42.2017 39.9849 41.8441 40.4395 41.4092 40.8121L31.2178 49.5377L30.3193 50.3073L31.2285 51.0651L39.1973 57.7096H39.1982C40.0543 58.4586 40.5844 59.5131 40.6738 60.6471C40.7631 61.7809 40.4049 62.9052 39.6768 63.7789C38.9486 64.6526 37.9077 65.2073 36.7764 65.3239C35.6479 65.4401 34.5189 65.1109 33.6289 64.4078L20.7832 53.7037L20.7822 53.7028C20.295 53.2973 19.9021 52.7904 19.6309 52.2174C19.3597 51.6445 19.2166 51.0192 19.2119 50.3854C19.2073 49.7516 19.3409 49.1243 19.6035 48.5475C19.8663 47.9706 20.2521 47.4571 20.7334 47.0446L35.7334 34.1881Z" fill="url(#paint0_linear_398_36)" stroke="#031718" stroke-width="2"/>
<defs>
<linearGradient id="paint0_linear_398_36" x1="0.214227" y1="37.0397" x2="119.786" y2="84.0318" gradientUnits="userSpaceOnUse">
<stop stop-color="#031719"/>
<stop offset="1" stop-color="#1A4F54"/>
</linearGradient>
</defs>
</svg>
