<svg width="1200" height="1200" viewBox="0 0 1200 1200" fill="none" xmlns="http://www.w3.org/2000/svg">
<g filter="url(#filter0_d_281_46)">
<mask id="path-1-inside-1_281_46" fill="white">
<path d="M376.496 338L380.496 307C380.496 276.333 368.496 256.667 344.496 248C325.829 242 311.496 239 301.496 239H300.496C280.496 239 263.163 242.333 248.496 249C233.829 255 223.163 262.667 216.496 272C202.496 291.333 194.496 311.667 192.496 333C192.496 358.333 203.829 380.333 226.496 399C249.163 417 276.496 433 308.496 447C341.163 460.333 373.496 475 405.496 491C438.163 507 465.829 530 488.496 560C511.163 590 522.496 626 522.496 668C522.496 750 496.496 811.333 444.496 852C393.163 892.667 334.496 913 268.496 913C203.163 913 148.829 898.333 105.496 869C62.8294 839 41.4961 799 41.4961 749V748C41.4961 723.333 45.1628 702 52.4961 684C60.4961 665.333 69.8294 651.667 80.4961 643C102.496 625 122.496 615.333 140.496 614L152.496 613C171.163 613 188.163 617.667 203.496 627C218.829 635.667 226.496 648 226.496 664C226.496 672 222.163 678.667 213.496 684C204.829 689.333 197.163 697.333 190.496 708C184.496 718.667 181.163 727.667 180.496 735L178.496 746C178.496 786.667 197.163 813.667 234.496 827C247.829 831.667 258.496 834 266.496 834C303.163 834 332.496 823 354.496 801C377.163 779 388.496 751 388.496 717C388.496 676.333 371.163 643.333 336.496 618C310.496 599.333 282.163 583.667 251.496 571C221.496 558.333 201.163 549.333 190.496 544C179.829 538.667 168.496 532.333 156.496 525C144.496 517.667 131.163 507.333 116.496 494C84.4961 466 68.4961 428.333 68.4961 381C68.4961 333 81.4961 292.667 107.496 260C154.163 200.667 224.163 171 317.496 171C366.829 171 408.496 180.667 442.496 200C476.496 218.667 493.496 244.667 493.496 278C493.496 302 486.496 322 472.496 338C459.163 354 441.829 362 420.496 362C410.496 362 400.496 360 390.496 356C381.163 352 376.496 346 376.496 338ZM888.262 319C835.595 385 797.595 451 774.262 517H775.262C867.928 517 920.928 517.333 934.262 518C948.262 518 955.928 517.333 957.262 516C958.595 514.667 959.595 513 960.262 511C948.928 429 939.928 373.333 933.262 344C926.595 314 919.928 299 913.262 299C906.595 299 898.262 305.667 888.262 319ZM799.262 790L821.262 786C827.928 786 831.262 789.667 831.262 797C831.262 820.333 826.595 840 817.262 856C807.928 872 796.262 883.333 782.262 890C759.595 901.333 740.262 907 724.262 907C693.595 907 670.595 895.667 655.262 873C639.928 849.667 632.262 815 632.262 769C632.262 722.333 644.928 662 670.262 588H612.262C604.928 588 601.262 584.333 601.262 577C601.262 569.667 606.928 558 618.262 542C629.595 525.333 641.595 517 654.262 517H699.262C746.595 411.667 802.262 320.667 866.262 244C882.928 224 903.262 205.333 927.262 188C951.928 170.667 970.928 162 984.262 162C997.595 162 1007.6 168 1014.26 180C1031.6 208 1051.93 310.333 1075.26 487C1083.26 563 1096.93 641.667 1116.26 723C1136.26 803.667 1154.6 850.667 1171.26 864C1175.26 866.667 1177.26 870 1177.26 874C1177.26 884 1162.93 893.333 1134.26 902C1106.26 910.667 1084.6 915 1069.26 915C1054.6 915 1043.26 913 1035.26 909C1027.26 905.667 1022.26 902 1020.26 898C1008.26 872 996.262 810 984.262 712L978.262 665C975.595 633.667 972.928 610 970.262 594L963.262 589L754.262 588C746.262 622 742.262 651.667 742.262 677C742.262 702.333 742.928 721 744.262 733C746.262 744.333 751.928 756.667 761.262 770C770.595 783.333 783.262 790 799.262 790Z"/>
</mask>
<path d="M376.496 338L380.496 307C380.496 276.333 368.496 256.667 344.496 248C325.829 242 311.496 239 301.496 239H300.496C280.496 239 263.163 242.333 248.496 249C233.829 255 223.163 262.667 216.496 272C202.496 291.333 194.496 311.667 192.496 333C192.496 358.333 203.829 380.333 226.496 399C249.163 417 276.496 433 308.496 447C341.163 460.333 373.496 475 405.496 491C438.163 507 465.829 530 488.496 560C511.163 590 522.496 626 522.496 668C522.496 750 496.496 811.333 444.496 852C393.163 892.667 334.496 913 268.496 913C203.163 913 148.829 898.333 105.496 869C62.8294 839 41.4961 799 41.4961 749V748C41.4961 723.333 45.1628 702 52.4961 684C60.4961 665.333 69.8294 651.667 80.4961 643C102.496 625 122.496 615.333 140.496 614L152.496 613C171.163 613 188.163 617.667 203.496 627C218.829 635.667 226.496 648 226.496 664C226.496 672 222.163 678.667 213.496 684C204.829 689.333 197.163 697.333 190.496 708C184.496 718.667 181.163 727.667 180.496 735L178.496 746C178.496 786.667 197.163 813.667 234.496 827C247.829 831.667 258.496 834 266.496 834C303.163 834 332.496 823 354.496 801C377.163 779 388.496 751 388.496 717C388.496 676.333 371.163 643.333 336.496 618C310.496 599.333 282.163 583.667 251.496 571C221.496 558.333 201.163 549.333 190.496 544C179.829 538.667 168.496 532.333 156.496 525C144.496 517.667 131.163 507.333 116.496 494C84.4961 466 68.4961 428.333 68.4961 381C68.4961 333 81.4961 292.667 107.496 260C154.163 200.667 224.163 171 317.496 171C366.829 171 408.496 180.667 442.496 200C476.496 218.667 493.496 244.667 493.496 278C493.496 302 486.496 322 472.496 338C459.163 354 441.829 362 420.496 362C410.496 362 400.496 360 390.496 356C381.163 352 376.496 346 376.496 338ZM888.262 319C835.595 385 797.595 451 774.262 517H775.262C867.928 517 920.928 517.333 934.262 518C948.262 518 955.928 517.333 957.262 516C958.595 514.667 959.595 513 960.262 511C948.928 429 939.928 373.333 933.262 344C926.595 314 919.928 299 913.262 299C906.595 299 898.262 305.667 888.262 319ZM799.262 790L821.262 786C827.928 786 831.262 789.667 831.262 797C831.262 820.333 826.595 840 817.262 856C807.928 872 796.262 883.333 782.262 890C759.595 901.333 740.262 907 724.262 907C693.595 907 670.595 895.667 655.262 873C639.928 849.667 632.262 815 632.262 769C632.262 722.333 644.928 662 670.262 588H612.262C604.928 588 601.262 584.333 601.262 577C601.262 569.667 606.928 558 618.262 542C629.595 525.333 641.595 517 654.262 517H699.262C746.595 411.667 802.262 320.667 866.262 244C882.928 224 903.262 205.333 927.262 188C951.928 170.667 970.928 162 984.262 162C997.595 162 1007.6 168 1014.26 180C1031.6 208 1051.93 310.333 1075.26 487C1083.26 563 1096.93 641.667 1116.26 723C1136.26 803.667 1154.6 850.667 1171.26 864C1175.26 866.667 1177.26 870 1177.26 874C1177.26 884 1162.93 893.333 1134.26 902C1106.26 910.667 1084.6 915 1069.26 915C1054.6 915 1043.26 913 1035.26 909C1027.26 905.667 1022.26 902 1020.26 898C1008.26 872 996.262 810 984.262 712L978.262 665C975.595 633.667 972.928 610 970.262 594L963.262 589L754.262 588C746.262 622 742.262 651.667 742.262 677C742.262 702.333 742.928 721 744.262 733C746.262 744.333 751.928 756.667 761.262 770C770.595 783.333 783.262 790 799.262 790Z" fill="url(#paint0_linear_281_46)"/>
<path d="M376.496 338L373.521 337.616L373.496 337.807V338H376.496ZM380.496 307L383.471 307.384L383.496 307.193V307H380.496ZM344.496 248L345.515 245.178L345.465 245.16L345.414 245.144L344.496 248ZM248.496 249L249.632 251.777L249.685 251.755L249.738 251.731L248.496 249ZM216.496 272L218.926 273.76L218.932 273.752L218.937 273.744L216.496 272ZM192.496 333L189.509 332.72L189.496 332.86V333H192.496ZM226.496 399L224.589 401.316L224.61 401.333L224.63 401.349L226.496 399ZM308.496 447L307.294 449.748L307.328 449.763L307.362 449.778L308.496 447ZM405.496 491L404.154 493.683L404.165 493.689L404.176 493.694L405.496 491ZM488.496 560L486.102 561.808L486.103 561.808L488.496 560ZM444.496 852L442.648 849.637L442.641 849.643L442.633 849.648L444.496 852ZM105.496 869L103.771 871.454L103.792 871.469L103.814 871.484L105.496 869ZM52.4961 684L49.7387 682.818L49.728 682.843L49.7178 682.868L52.4961 684ZM80.4961 643L82.3879 645.328L82.3958 645.322L80.4961 643ZM140.496 614L140.718 616.992L140.731 616.991L140.745 616.99L140.496 614ZM152.496 613V610H152.371L152.247 610.01L152.496 613ZM203.496 627L201.936 629.563L201.978 629.588L202.02 629.612L203.496 627ZM213.496 684L211.924 681.445L211.924 681.445L213.496 684ZM190.496 708L187.952 706.41L187.915 706.469L187.881 706.529L190.496 708ZM180.496 735L183.448 735.537L183.472 735.405L183.484 735.272L180.496 735ZM178.496 746L175.544 745.463L175.496 745.729V746H178.496ZM234.496 827L233.487 829.825L233.496 829.828L233.505 829.832L234.496 827ZM354.496 801L352.407 798.847L352.391 798.863L352.375 798.879L354.496 801ZM336.496 618L338.266 615.578L338.256 615.57L338.246 615.563L336.496 618ZM251.496 571L250.329 573.764L250.34 573.768L250.351 573.773L251.496 571ZM190.496 544L191.838 541.317L191.838 541.317L190.496 544ZM156.496 525L154.932 527.56L154.932 527.56L156.496 525ZM116.496 494L118.514 491.78L118.493 491.761L118.472 491.742L116.496 494ZM107.496 260L109.843 261.868L109.849 261.861L109.854 261.855L107.496 260ZM442.496 200L441.013 202.608L441.033 202.619L441.052 202.63L442.496 200ZM472.496 338L470.238 336.024L470.215 336.052L470.191 336.079L472.496 338ZM390.496 356L389.314 358.757L389.348 358.772L389.382 358.785L390.496 356ZM376.496 338L379.471 338.384L383.471 307.384L380.496 307L377.521 306.616L373.521 337.616L376.496 338ZM380.496 307H383.496C383.496 291.293 380.424 278.123 374.057 267.687C367.663 257.208 358.084 249.717 345.515 245.178L344.496 248L343.477 250.822C354.908 254.95 363.33 261.625 368.935 270.813C374.568 280.044 377.496 292.04 377.496 307H380.496ZM344.496 248L345.414 245.144C326.678 239.122 311.98 236 301.496 236V239V242C311.012 242 324.981 244.878 343.578 250.856L344.496 248ZM301.496 239V236H300.496V239V242H301.496V239ZM300.496 239V236C280.168 236 262.393 239.388 247.255 246.269L248.496 249L249.738 251.731C263.932 245.279 280.824 242 300.496 242V239ZM248.496 249L247.36 246.223C232.362 252.359 221.153 260.318 214.055 270.256L216.496 272L218.937 273.744C225.172 265.015 235.297 257.641 249.632 251.777L248.496 249ZM216.496 272L214.066 270.24C199.788 289.957 191.565 310.793 189.509 332.72L192.496 333L195.483 333.28C197.427 312.54 205.204 292.709 218.926 273.76L216.496 272ZM192.496 333H189.496C189.496 359.378 201.353 382.181 224.589 401.316L226.496 399L228.403 396.684C206.306 378.486 195.496 357.289 195.496 333H192.496ZM226.496 399L224.63 401.349C247.537 419.54 275.103 435.665 307.294 449.748L308.496 447L309.699 444.252C277.889 430.335 250.789 414.46 228.362 396.651L226.496 399ZM308.496 447L307.362 449.778C339.958 463.082 372.222 477.717 404.154 493.683L405.496 491L406.838 488.317C374.771 472.283 342.368 457.585 309.63 444.222L308.496 447ZM405.496 491L404.176 493.694C436.406 509.48 463.71 532.171 486.102 561.808L488.496 560L490.89 558.191C467.949 527.829 439.919 504.52 406.816 488.306L405.496 491ZM488.496 560L486.103 561.808C508.33 591.227 519.496 626.572 519.496 668H522.496H525.496C525.496 625.428 513.996 588.773 490.89 558.191L488.496 560ZM522.496 668H519.496C519.496 749.324 493.747 809.675 442.648 849.637L444.496 852L446.344 854.363C499.246 812.992 525.496 750.676 525.496 668H522.496ZM444.496 852L442.633 849.648C391.834 889.892 333.826 910 268.496 910V913V916C335.167 916 394.491 895.442 446.359 854.352L444.496 852ZM268.496 913V910C203.613 910 149.904 895.438 107.178 866.516L105.496 869L103.814 871.484C147.755 901.229 202.713 916 268.496 916V913ZM105.496 869L107.222 866.546C65.3131 837.079 44.4961 797.974 44.4961 749H41.4961H38.4961C38.4961 800.026 60.3458 840.921 103.771 871.454L105.496 869ZM41.4961 749H44.4961V748H41.4961H38.4961V749H41.4961ZM41.4961 748H44.4961C44.4961 723.621 48.1211 702.69 55.2744 685.132L52.4961 684L49.7178 682.868C42.2045 701.31 38.4961 723.046 38.4961 748H41.4961ZM52.4961 684L55.2535 685.182C63.1466 666.765 72.2356 653.577 82.3879 645.328L80.4961 643L78.6043 640.672C67.4233 649.756 57.8456 663.902 49.7387 682.818L52.4961 684ZM80.4961 643L82.3958 645.322C104.172 627.505 123.594 618.26 140.718 616.992L140.496 614L140.274 611.008C121.398 612.406 100.82 622.495 78.5964 640.678L80.4961 643ZM140.496 614L140.745 616.99L152.745 615.99L152.496 613L152.247 610.01L140.247 611.01L140.496 614ZM152.496 613V616C170.636 616 187.092 620.527 201.936 629.563L203.496 627L205.056 624.437C189.233 614.806 171.69 610 152.496 610V613ZM203.496 627L202.02 629.612C216.527 637.811 223.496 649.208 223.496 664H226.496H229.496C229.496 646.792 221.132 633.522 204.972 624.388L203.496 627ZM226.496 664H223.496C223.496 670.671 219.979 676.488 211.924 681.445L213.496 684L215.068 686.555C224.346 680.846 229.496 673.329 229.496 664H226.496ZM213.496 684L211.924 681.445C202.781 687.071 194.807 695.442 187.952 706.41L190.496 708L193.04 709.59C199.518 699.225 206.878 691.595 215.068 686.555L213.496 684ZM190.496 708L187.881 706.529C181.794 717.352 178.231 726.784 177.508 734.728L180.496 735L183.484 735.272C184.095 728.549 187.199 719.982 193.111 709.471L190.496 708ZM180.496 735L177.544 734.463L175.544 745.463L178.496 746L181.448 746.537L183.448 735.537L180.496 735ZM178.496 746H175.496C175.496 766.796 180.273 784.346 190.028 798.456C199.788 812.572 214.355 822.992 233.487 829.825L234.496 827L235.505 824.175C217.304 817.675 203.871 807.928 194.964 795.044C186.052 782.154 181.496 765.871 181.496 746H178.496ZM234.496 827L233.505 829.832C246.952 834.538 257.994 837 266.496 837V834V831C258.998 831 248.707 828.795 235.487 824.168L234.496 827ZM266.496 834V837C303.806 837 333.955 825.784 356.617 803.121L354.496 801L352.375 798.879C331.037 820.216 302.52 831 266.496 831V834ZM354.496 801L356.586 803.153C379.882 780.542 391.496 751.742 391.496 717H388.496H385.496C385.496 750.258 374.444 777.458 352.407 798.847L354.496 801ZM388.496 717H391.496C391.496 675.315 373.655 641.439 338.266 615.578L336.496 618L334.726 620.422C368.67 645.228 385.496 677.352 385.496 717H388.496ZM336.496 618L338.246 615.563C312.051 596.757 283.514 580.979 252.641 568.227L251.496 571L250.351 573.773C280.812 586.354 308.941 601.91 334.747 620.437L336.496 618ZM251.496 571L252.663 568.236C222.655 555.566 202.406 546.601 191.838 541.317L190.496 544L189.154 546.683C199.919 552.066 220.338 561.101 250.329 573.764L251.496 571ZM190.496 544L191.838 541.317C181.259 536.027 170 529.737 158.06 522.44L156.496 525L154.932 527.56C166.992 534.93 178.4 541.306 189.154 546.683L190.496 544ZM156.496 525L158.06 522.44C146.273 515.236 133.093 505.033 118.514 491.78L116.496 494L114.478 496.22C129.233 509.633 142.72 520.097 154.932 527.56L156.496 525ZM116.496 494L118.472 491.742C87.2008 464.38 71.4961 427.578 71.4961 381H68.4961H65.4961C65.4961 429.089 81.7914 467.62 114.521 496.258L116.496 494ZM68.4961 381H71.4961C71.4961 333.572 84.3279 293.926 109.843 261.868L107.496 260L105.149 258.132C78.6643 291.407 65.4961 332.428 65.4961 381H68.4961ZM107.496 260L109.854 261.855C155.818 203.414 224.843 174 317.496 174V171V168C223.483 168 152.507 197.919 105.138 258.145L107.496 260ZM317.496 171V174C366.443 174 407.569 183.59 441.013 202.608L442.496 200L443.979 197.392C409.424 177.743 367.216 168 317.496 168V171ZM442.496 200L441.052 202.63C474.282 220.873 490.496 245.961 490.496 278H493.496H496.496C496.496 243.372 478.711 216.46 443.94 197.37L442.496 200ZM493.496 278H490.496C490.496 301.373 483.698 320.642 470.238 336.024L472.496 338L474.754 339.975C489.294 323.358 496.496 302.627 496.496 278H493.496ZM472.496 338L470.191 336.079C457.444 351.376 440.964 359 420.496 359V362V365C442.695 365 460.882 356.623 474.801 339.921L472.496 338ZM420.496 362V359C410.906 359 401.283 357.084 391.61 353.215L390.496 356L389.382 358.785C399.709 362.916 410.086 365 420.496 365V362ZM390.496 356L391.678 353.243C387.327 351.378 384.299 349.145 382.364 346.658C380.463 344.214 379.496 341.37 379.496 338H376.496H373.496C373.496 342.63 374.863 346.786 377.628 350.342C380.36 353.855 384.332 356.622 389.314 358.757L390.496 356ZM888.262 319L890.607 320.871L890.635 320.836L890.662 320.8L888.262 319ZM774.262 517L771.433 516L770.019 520H774.262V517ZM934.262 518L934.112 520.996L934.187 521H934.262V518ZM960.262 511L963.108 511.949L963.329 511.284L963.233 510.589L960.262 511ZM933.262 344L930.333 344.651L930.335 344.658L930.336 344.665L933.262 344ZM799.262 790V793H799.532L799.798 792.952L799.262 790ZM821.262 786V783H820.991L820.725 783.048L821.262 786ZM817.262 856L814.67 854.488L814.67 854.488L817.262 856ZM782.262 890L780.972 887.291L780.946 887.304L780.92 887.317L782.262 890ZM655.262 873L652.755 874.648L652.766 874.664L652.777 874.681L655.262 873ZM670.262 588L673.1 588.972L674.46 585H670.262V588ZM618.262 542L620.71 543.734L620.726 543.711L620.742 543.687L618.262 542ZM699.262 517V520H701.203L701.998 518.23L699.262 517ZM866.262 244L868.565 245.923L868.566 245.921L866.262 244ZM927.262 188L925.537 185.545L925.521 185.557L925.505 185.568L927.262 188ZM1014.26 180L1011.64 181.457L1011.67 181.519L1011.71 181.579L1014.26 180ZM1075.26 487L1078.25 486.686L1078.24 486.646L1078.24 486.607L1075.26 487ZM1116.26 723L1113.34 723.694L1113.35 723.708L1113.35 723.722L1116.26 723ZM1171.26 864L1169.39 866.343L1169.49 866.424L1169.6 866.496L1171.26 864ZM1134.26 902L1133.39 899.128L1133.38 899.131L1133.37 899.134L1134.26 902ZM1035.26 909L1036.6 906.317L1036.51 906.271L1036.42 906.231L1035.26 909ZM1020.26 898L1017.54 899.257L1017.56 899.3L1017.58 899.342L1020.26 898ZM984.262 712L987.239 711.635L987.239 711.628L987.238 711.62L984.262 712ZM978.262 665L975.273 665.254L975.278 665.317L975.286 665.38L978.262 665ZM970.262 594L973.221 593.507L973.017 592.281L972.005 591.559L970.262 594ZM963.262 589L965.005 586.559L964.23 586.005L963.276 586L963.262 589ZM754.262 588L754.276 585L751.888 584.989L751.341 587.313L754.262 588ZM744.262 733L741.28 733.331L741.291 733.427L741.307 733.521L744.262 733ZM761.262 770L763.719 768.28L763.719 768.28L761.262 770ZM888.262 319L885.917 317.129C833.083 383.338 794.898 449.627 771.433 516L774.262 517L777.09 518C800.292 452.373 838.107 386.662 890.607 320.871L888.262 319ZM774.262 517V520H775.262V517V514H774.262V517ZM775.262 517V520C867.981 520 920.875 520.334 934.112 520.996L934.262 518L934.412 515.004C920.982 514.332 867.876 514 775.262 514V517ZM934.262 518V521C941.291 521 946.809 520.833 950.772 520.489C952.745 520.317 954.415 520.095 955.725 519.804C956.38 519.658 957.012 519.481 957.579 519.254C958.102 519.045 958.8 518.705 959.383 518.121L957.262 516L955.14 513.879C955.39 513.629 955.556 513.601 955.351 513.683C955.188 513.748 954.894 513.842 954.423 513.946C953.484 514.155 952.111 514.35 950.252 514.511C946.548 514.833 941.233 515 934.262 515V518ZM957.262 516L959.383 518.121C961.083 516.421 962.311 514.338 963.108 511.949L960.262 511L957.416 510.051C956.879 511.662 956.107 512.912 955.14 513.879L957.262 516ZM960.262 511L963.233 510.589C951.902 428.602 942.887 372.813 936.187 343.335L933.262 344L930.336 344.665C936.97 373.854 945.955 429.398 957.29 511.411L960.262 511ZM933.262 344L936.19 343.349C932.844 328.292 929.46 316.809 926.003 309.032C924.28 305.154 922.465 302.025 920.504 299.819C918.557 297.629 916.141 296 913.262 296V299V302C913.716 302 914.633 302.246 916.02 303.806C917.392 305.35 918.91 307.845 920.52 311.468C923.73 318.691 927.013 329.708 930.333 344.651L933.262 344ZM913.262 299V296C908.944 296 904.538 298.137 900.138 301.657C895.695 305.211 890.939 310.431 885.862 317.2L888.262 319L890.662 320.8C895.585 314.236 899.995 309.456 903.886 306.343C907.819 303.196 910.913 302 913.262 302V299ZM799.262 790L799.798 792.952L821.798 788.952L821.262 786L820.725 783.048L798.725 787.048L799.262 790ZM821.262 786V789C824.055 789 825.621 789.755 826.542 790.768C827.512 791.835 828.262 793.729 828.262 797H831.262H834.262C834.262 792.938 833.345 789.331 830.982 786.732C828.569 784.078 825.135 783 821.262 783V786ZM831.262 797H828.262C828.262 819.938 823.675 839.052 814.67 854.488L817.262 856L819.853 857.512C829.515 840.948 834.262 820.728 834.262 797H831.262ZM817.262 856L814.67 854.488C805.581 870.071 794.329 880.931 780.972 887.291L782.262 890L783.552 892.709C798.195 885.736 810.276 873.929 819.853 857.512L817.262 856ZM782.262 890L780.92 887.317C758.452 898.551 739.602 904 724.262 904V907V910C740.922 910 760.738 904.116 783.603 892.683L782.262 890ZM724.262 907V904C694.45 904 672.448 893.051 657.747 871.319L655.262 873L652.777 874.681C668.743 898.282 692.74 910 724.262 910V907ZM655.262 873L657.769 871.352C642.904 848.732 635.262 814.756 635.262 769H632.262H629.262C629.262 815.244 636.953 850.601 652.755 874.648L655.262 873ZM632.262 769H635.262C635.262 722.813 647.812 662.84 673.1 588.972L670.262 588L667.423 587.028C642.045 661.16 629.262 721.854 629.262 769H632.262ZM670.262 588V585H612.262V588V591H670.262V588ZM612.262 588V585C609.057 585 607.205 584.201 606.133 583.129C605.061 582.056 604.262 580.204 604.262 577H601.262H598.262C598.262 581.129 599.296 584.777 601.89 587.371C604.485 589.966 608.133 591 612.262 591V588ZM601.262 577H604.262C604.262 574.013 605.445 569.753 608.21 564.061C610.945 558.429 615.095 551.66 620.71 543.734L618.262 542L615.814 540.266C610.095 548.339 605.745 555.404 602.813 561.439C599.912 567.413 598.262 572.654 598.262 577H601.262ZM618.262 542L620.742 543.687C631.857 527.342 643.069 520 654.262 520V517V514C640.121 514 627.333 523.325 615.781 540.313L618.262 542ZM654.262 517V520H699.262V517V514H654.262V517ZM699.262 517L701.998 518.23C749.236 413.108 804.765 322.349 868.565 245.923L866.262 244L863.959 242.077C799.758 318.984 743.954 410.225 696.525 515.77L699.262 517ZM866.262 244L868.566 245.921C885.052 226.138 905.194 207.638 929.018 190.432L927.262 188L925.505 185.568C901.329 203.028 880.805 221.862 863.957 242.079L866.262 244ZM927.262 188L928.987 190.455C941.229 181.852 951.981 175.461 961.257 171.229C970.564 166.984 978.199 165 984.262 165V162V159C976.991 159 968.46 161.349 958.767 165.771C949.043 170.206 937.961 176.815 925.537 185.545L927.262 188ZM984.262 162V165C990.464 165 995.748 166.39 1000.22 169.072C1004.69 171.757 1008.52 175.835 1011.64 181.457L1014.26 180L1016.88 178.543C1013.34 172.165 1008.83 167.243 1003.31 163.928C997.775 160.61 991.393 159 984.262 159V162ZM1014.26 180L1011.71 181.579C1015.82 188.212 1020.25 199.525 1024.94 215.77C1029.62 231.949 1034.49 252.796 1039.57 278.335C1049.72 329.409 1060.62 399.086 1072.29 487.393L1075.26 487L1078.24 486.607C1066.57 398.248 1055.64 328.424 1045.45 277.165C1040.36 251.538 1035.45 230.509 1030.71 214.105C1025.98 197.766 1021.37 185.788 1016.81 178.421L1014.26 180ZM1075.26 487L1072.28 487.314C1080.29 563.453 1093.98 642.247 1113.34 723.694L1116.26 723L1119.18 722.306C1099.87 641.086 1086.23 562.547 1078.25 486.686L1075.26 487ZM1116.26 723L1113.35 723.722C1123.36 764.112 1132.98 796.168 1142.22 819.84C1146.83 831.676 1151.38 841.474 1155.85 849.193C1160.31 856.878 1164.81 862.676 1169.39 866.343L1171.26 864L1173.14 861.657C1169.39 858.657 1165.34 853.58 1161.04 846.182C1156.77 838.818 1152.36 829.324 1147.81 817.66C1138.71 794.332 1129.16 762.555 1119.17 722.278L1116.26 723ZM1171.26 864L1169.6 866.496C1172.96 868.735 1174.26 871.215 1174.26 874H1177.26H1180.26C1180.26 868.785 1177.57 864.598 1172.93 861.504L1171.26 864ZM1177.26 874H1174.26C1174.26 877.429 1171.8 881.478 1164.87 885.986C1158.06 890.424 1147.63 894.825 1133.39 899.128L1134.26 902L1135.13 904.872C1149.56 900.508 1160.63 895.91 1168.15 891.014C1175.56 886.189 1180.26 880.571 1180.26 874H1177.26ZM1134.26 902L1133.37 899.134C1105.45 907.777 1084.13 912 1069.26 912V915V918C1085.06 918 1107.07 913.556 1135.15 904.866L1134.26 902ZM1069.26 915V912C1054.8 912 1044 910.016 1036.6 906.317L1035.26 909L1033.92 911.683C1042.52 915.984 1054.39 918 1069.26 918V915ZM1035.26 909L1036.42 906.231C1028.54 902.95 1024.43 899.636 1022.95 896.658L1020.26 898L1017.58 899.342C1020.09 904.364 1025.98 908.383 1034.11 911.769L1035.26 909ZM1020.26 898L1022.99 896.743C1017.15 884.097 1011.2 862.407 1005.21 831.43C999.225 800.525 993.235 760.6 987.239 711.635L984.262 712L981.284 712.365C987.288 761.4 993.298 801.475 999.316 832.57C1005.32 863.593 1011.37 885.903 1017.54 899.257L1020.26 898ZM984.262 712L987.238 711.62L981.238 664.62L978.262 665L975.286 665.38L981.286 712.38L984.262 712ZM978.262 665L981.251 664.746C978.583 633.392 975.908 609.628 973.221 593.507L970.262 594L967.303 594.493C969.949 610.371 972.608 633.942 975.273 665.254L978.262 665ZM970.262 594L972.005 591.559L965.005 586.559L963.262 589L961.518 591.441L968.518 596.441L970.262 594ZM963.262 589L963.276 586L754.276 585L754.262 588L754.247 591L963.247 592L963.262 589ZM754.262 588L751.341 587.313C743.307 621.46 739.262 651.367 739.262 677H742.262H745.262C745.262 651.966 749.217 622.54 757.182 588.687L754.262 588ZM742.262 677H739.262C739.262 702.351 739.927 721.157 741.28 733.331L744.262 733L747.243 732.669C745.929 720.843 745.262 702.315 745.262 677H742.262ZM744.262 733L741.307 733.521C743.408 745.426 749.317 758.167 758.804 771.72L761.262 770L763.719 768.28C754.54 755.167 749.115 743.241 747.216 732.479L744.262 733ZM761.262 770L758.804 771.72C768.687 785.839 782.263 793 799.262 793V790V787C784.261 787 772.503 780.827 763.719 768.28L761.262 770Z" fill="black" mask="url(#path-1-inside-1_281_46)"/>
</g>
<defs>
<filter id="filter0_d_281_46" x="31.4961" y="162" width="1155.77" height="798" filterUnits="userSpaceOnUse" color-interpolation-filters="sRGB">
<feFlood flood-opacity="0" result="BackgroundImageFix"/>
<feColorMatrix in="SourceAlpha" type="matrix" values="0 0 0 0 0 0 0 0 0 0 0 0 0 0 0 0 0 0 127 0" result="hardAlpha"/>
<feOffset dy="35"/>
<feGaussianBlur stdDeviation="5"/>
<feComposite in2="hardAlpha" operator="out"/>
<feColorMatrix type="matrix" values="0 0 0 0 0 0 0 0 0 0 0 0 0 0 0 0 0 0 1 0"/>
<feBlend mode="normal" in2="BackgroundImageFix" result="effect1_dropShadow_281_46"/>
<feBlend mode="normal" in="SourceGraphic" in2="effect1_dropShadow_281_46" result="shape"/>
</filter>
<linearGradient id="paint0_linear_281_46" x1="467" y1="152.5" x2="558.5" y2="834" gradientUnits="userSpaceOnUse">
<stop stop-color="#104D52"/>
<stop offset="1" stop-color="#59B3BB"/>
</linearGradient>
</defs>
</svg>
